<svg xmlns="http://www.w3.org/2000/svg" viewBox="-0.5 -0.5 16 16" fill="#000000" id="Beer-Bottle-Bold--Streamline-Phosphor.svg" height="16" width="16"><desc>Beer Bottle Bold Streamline Icon: https://streamlinehq.com</desc><path d="M14.637802734375 2.32334765625 12.67756640625 0.36311132812499997c-0.40181835937500004 -0.398431640625 -1.08427734375 -0.21247265625 -1.22841796875 0.334734375 -0.0524296875 0.19901953125 -0.01901953125 0.41089453125 0.09209765625 0.584126953125l-3.12045703125 2.343708984375 -2.28673828125 0.456978515625c-0.142359375 0.02865234375 -0.27315234375 0.098525390625 -0.376119140625 0.20092968749999998l-5.104576171875 5.1039667968749995c-0.6699140625 0.6698437500000001 -0.6699140625 1.755943359375 0 2.4257929687499997l2.53421484375 2.53421484375c0.6698437500000001 0.6699140625 1.7559492187499999 0.6699140625 2.4257929687499997 0l5.1039667968749995 -5.1033515625c0.102404296875 -0.102966796875 0.17227734375 -0.233759765625 0.200923828125 -0.376119140625l0.456984375 -2.28796875 2.341869140625 -3.124125c0.47630859374999995 0.30551953125 1.1047324218749999 -0.019154296875 1.1311640625 -0.584408203125 0.009615234375 -0.20558203125 -0.06739453125 -0.4057734375 -0.212302734375 -0.55191796875ZM6.27678515625 11.603232421875001l-2.87909765625 -2.87909765625 1.8989765625 -1.8989765625 2.87909765625 2.87909765625Zm-1.8763183593750001 1.77646875c-0.06500390625 0.000046875 -0.12736523437500002 -0.025734375 -0.17335546875000002 -0.07167187500000001L1.692890625 10.77380859375c-0.095818359375 -0.09571289062499999 -0.095818359375 -0.25100390625 0 -0.346716796875l0.663416015625 -0.66158203125 2.87909765625 2.87909765625L4.573828125 13.308029296875c-0.045990234375 0.0459375 -0.1083515625 0.07171875 -0.173361328125 0.07167187500000001Zm5.69694140625 -7.546916015625c-0.065953125 0.08785546875 -0.111375 0.189380859375 -0.13293164062499999 0.297099609375l-0.44105273437500003 2.231607421875 -0.306287109375 0.301388671875 -2.87909765625 -2.87909765625 0.306287109375 -0.306287109375 2.231607421875 -0.44595703124999997c0.107724609375 -0.02155078125 0.209244140625 -0.06697265625 0.297099609375 -0.13292578125l3.410197265625 -2.558109375 0.079025390625 0.07901953125Z" stroke-width="1"></path></svg>