<svg width="56" height="56" viewBox="0 0 56 56" fill="none" xmlns="http://www.w3.org/2000/svg">
<rect x="2.5" y="2.5" width="51.85" height="51.85" rx="25.925" fill="#F5F5F5"/>
<rect x="2.5" y="2.5" width="51.85" height="51.85" rx="25.925" stroke="#F72F2F"/>
<rect width="35" height="35" transform="translate(11 11)" fill="#F5F5F5"/>
<path d="M12.0938 24.6719C12.0938 18.6313 16.9906 13.7344 23.0312 13.7344H33.4219C39.4625 13.7344 44.3594 18.6313 44.3594 24.6719H12.0938Z" fill="#111111"/>
<path d="M12.0938 35.0625H44.3594V37.7969C44.3594 40.8172 41.9109 43.2656 38.8906 43.2656H17.5625C14.5422 43.2656 12.0938 40.8172 12.0938 37.7969V35.0625Z" fill="#111111"/>
<path d="M11.5469 30.7307L14.9375 27.4062L18.3281 30.7307L21.9448 27.4062L25.7875 30.7307L29.1781 27.4062L33.4729 30.7307L36.1854 27.4062L40.0281 30.7307L42.7406 27.4062L45.4531 30.7307H43.0604L42.7406 31.0473L40.0281 33.4219L36.6375 31.0473L33.4729 33.4219L29.1781 30.7307L25.7875 33.4219L21.9448 30.7307L18.3281 33.4219L14.9375 30.7307H11.5469Z" fill="#111111"/>
</svg>
