<svg width="15" height="35" viewBox="0 0 15 35" fill="none" xmlns="http://www.w3.org/2000/svg">
<rect width="35" height="35" fill="#F5F5F5"/>
<path d="M1.09375 13.6719C1.09375 7.63126 5.99064 2.73438 12.0312 2.73438H22.4219C28.4625 2.73438 33.3594 7.63126 33.3594 13.6719H1.09375Z" fill="#111111"/>
<path d="M1.09375 24.0625H33.3594V26.7969C33.3594 29.8172 30.9109 32.2656 27.8906 32.2656H6.5625C3.54219 32.2656 1.09375 29.8172 1.09375 26.7969V24.0625Z" fill="#111111"/>
<path d="M0.546875 19.7307L3.9375 16.4062L7.32812 19.7307L10.9448 16.4062L14.7875 19.7307L18.1781 16.4062L22.4729 19.7307L25.1854 16.4062L29.0281 19.7307L31.7406 16.4062L34.4531 19.7307H32.0604L31.7406 20.0473L29.0281 22.4219L25.6375 20.0473L22.4729 22.4219L18.1781 19.7307L14.7875 22.4219L10.9448 19.7307L7.32812 22.4219L3.9375 19.7307H0.546875Z" fill="#111111"/>
</svg>
