<svg width="335" height="223" viewBox="0 0 335 223" fill="none" xmlns="http://www.w3.org/2000/svg">
<g clip-path="url(#clip0_1_6835)">
<path d="M120.165 128.126C131.645 107.931 153.545 92.4239 176.727 93.9178C159.627 112.513 149.656 136.558 148.577 161.797C148.196 171.532 148.787 182.4 142.323 189.69C138.301 194.226 132.153 196.422 126.109 196.883C120.064 197.344 114.021 196.252 108.057 195.164L106.61 195.609C106.059 172.385 108.684 148.322 120.165 128.126Z" fill="#F0F0F0"/>
<path d="M176.761 94.4039C159.618 102.657 145.001 116.439 136.027 133.249C134.087 136.883 132.436 140.738 131.715 144.814C130.994 148.893 131.498 152.775 132.891 156.648C134.164 160.189 135.877 163.664 136.267 167.453C136.679 171.446 135.209 175.181 132.564 178.144C129.328 181.77 124.982 184.017 120.655 186.067C115.851 188.343 110.825 190.631 107.423 194.878C107.01 195.393 106.236 194.723 106.648 194.209C112.567 186.819 122.701 185.43 129.728 179.477C133.007 176.7 135.468 172.917 135.313 168.485C135.177 164.609 133.414 161.024 132.094 157.45C130.707 153.697 130.016 149.923 130.513 145.922C131.022 141.829 132.526 137.901 134.365 134.233C138.511 125.961 144.186 118.367 150.686 111.803C158.157 104.257 166.864 98.0449 176.43 93.4351C177.022 93.15 177.349 94.1207 176.761 94.4039Z" fill="white"/>
<path d="M138.656 127.631C136.028 125.709 134.168 122.916 133.41 119.75C132.651 116.584 133.042 113.251 134.514 110.347C134.814 109.761 135.739 110.199 135.439 110.786C134.064 113.488 133.7 116.592 134.412 119.539C135.125 122.486 136.867 125.081 139.325 126.856C139.859 127.242 139.186 128.015 138.656 127.631Z" fill="white"/>
<path d="M132.009 154.938C138.594 153.975 144.575 150.566 148.758 145.391C149.172 144.877 149.947 145.547 149.533 146.06C145.17 151.438 138.939 154.973 132.084 155.959C131.43 156.052 131.359 155.031 132.009 154.938V154.938Z" fill="white"/>
<path d="M158.663 105.517C159.525 106.472 160.611 107.199 161.823 107.631C163.035 108.063 164.335 108.187 165.607 107.993C166.259 107.891 166.33 108.913 165.682 109.014C164.276 109.222 162.84 109.083 161.5 108.609C160.159 108.134 158.956 107.339 157.994 106.292C157.895 106.201 157.835 106.076 157.825 105.941C157.815 105.807 157.856 105.674 157.941 105.57C158.03 105.468 158.156 105.405 158.291 105.395C158.426 105.385 158.56 105.429 158.663 105.517Z" fill="white"/>
<path d="M222.852 157.627C222.447 157.702 222.042 157.777 221.633 157.86C216.189 158.899 210.839 160.378 205.635 162.282C205.231 162.423 204.823 162.572 204.423 162.724C191.934 167.447 180.431 174.447 170.498 183.369C166.549 186.923 162.876 190.772 159.51 194.884C154.863 200.562 150.276 207.088 144.203 210.79C143.574 211.183 142.921 211.537 142.248 211.85L107.264 197.339C107.201 197.266 107.134 197.201 107.071 197.128L105.647 196.612C105.806 196.388 105.976 196.159 106.134 195.935C106.226 195.805 106.325 195.677 106.417 195.547C106.48 195.461 106.544 195.375 106.597 195.294C106.618 195.266 106.639 195.237 106.657 195.216C106.709 195.135 106.767 195.065 106.816 194.992C107.759 193.709 108.714 192.43 109.679 191.156C109.682 191.148 109.682 191.148 109.693 191.143C117.072 181.453 125.324 172.293 134.704 164.677C134.986 164.448 135.271 164.211 135.569 163.989C139.817 160.579 144.335 157.523 149.08 154.849C151.683 153.394 154.358 152.071 157.095 150.886C164.172 147.838 171.685 145.922 179.357 145.208C194.653 143.788 210.232 147.275 221.963 156.884C222.263 157.13 222.556 157.373 222.852 157.627Z" fill="#F0F0F0"/>
<path d="M222.59 158.038C203.933 154.306 183.964 156.511 166.679 164.529C162.942 166.263 159.302 168.347 156.272 171.168C153.241 173.99 151.306 177.393 150.086 181.324C148.971 184.918 148.247 188.723 146.277 191.984C144.201 195.42 140.78 197.517 136.883 198.291C132.116 199.238 127.293 198.415 122.604 197.447C117.399 196.371 112.008 195.172 106.734 196.515C106.095 196.677 105.88 195.676 106.518 195.514C115.694 193.178 124.621 198.17 133.816 197.647C138.106 197.404 142.349 195.865 144.894 192.233C147.119 189.057 147.869 185.133 148.967 181.484C150.12 177.653 151.84 174.224 154.646 171.328C157.516 168.366 161.082 166.136 164.758 164.314C173.049 160.206 182.152 157.559 191.295 156.232C201.803 154.705 212.495 154.987 222.908 157.065C223.553 157.194 223.23 158.167 222.59 158.038V158.038Z" fill="white"/>
<path d="M172.16 161.626C171.218 158.51 171.415 155.16 172.716 152.175C174.016 149.19 176.335 146.765 179.259 145.332C179.851 145.045 180.326 145.952 179.733 146.24C177.008 147.569 174.848 149.829 173.643 152.61C172.438 155.392 172.267 158.513 173.16 161.41C173.354 162.04 172.352 162.252 172.16 161.626Z" fill="white"/>
<path d="M150.412 179.427C156.249 182.624 163.077 183.503 169.533 181.889C170.173 181.728 170.388 182.729 169.749 182.889C163.027 184.556 155.924 183.627 149.857 180.288C149.279 179.969 149.837 179.11 150.412 179.427Z" fill="white"/>
<path d="M201.448 156.015C201.561 157.297 201.991 158.53 202.698 159.605C203.406 160.68 204.369 161.562 205.502 162.172C206.084 162.484 205.525 163.342 204.947 163.033C203.699 162.353 202.636 161.377 201.852 160.191C201.067 159.006 200.585 157.646 200.448 156.231C200.423 156.099 200.451 155.962 200.523 155.849C200.596 155.736 200.709 155.655 200.84 155.623C200.973 155.595 201.111 155.62 201.225 155.694C201.339 155.767 201.419 155.883 201.448 156.015Z" fill="white"/>
<path d="M156.21 181.567C151.31 157.878 145.186 149.98 145.186 149.98L142.846 148.165L140.033 145.98L140.046 145.699L139.379 145.472L139.222 145.35L138.965 145.153L138.924 145.197L138.837 145.288L126.105 140.96L109.952 135.473L102.473 125.751C101.255 124.168 99.6863 122.888 97.8907 122.012C96.0952 121.136 94.1212 120.688 92.1235 120.703L68.2359 120.88C65.006 120.904 61.9019 122.135 59.5338 124.332L43.8328 138.895L19.3676 150.58L19.3263 150.538L19.0694 150.722L15.2894 152.529L15.4453 153.341L13.1057 155.03C13.1057 155.03 6.9814 162.379 2.08194 184.422C0.835573 190.03 0.222066 202.062 0.000622302 216.888C-0.0105008 217.638 0.127587 218.383 0.406853 219.079C0.686119 219.775 1.10099 220.409 1.62735 220.943C2.15371 221.477 2.78106 221.902 3.47291 222.192C4.16476 222.481 4.90731 222.631 5.65739 222.631H136.331V222.631H152.64C153.39 222.631 154.132 222.481 154.823 222.192C155.515 221.902 156.142 221.479 156.668 220.945C157.194 220.411 157.609 219.778 157.889 219.083C158.169 218.387 158.307 217.643 158.297 216.894C158.081 200.761 157.468 187.65 156.21 181.567Z" fill="#3F3D56"/>
<path d="M172.976 20.6593C167.892 20.6593 163.016 22.6789 159.421 26.2738C155.826 29.8687 153.807 34.7444 153.807 39.8284C153.807 44.9123 155.826 49.788 159.421 53.3829C163.016 56.9778 167.892 58.9974 172.976 58.9974H315.831C320.915 58.9974 325.791 56.9778 329.385 53.3829C332.98 49.788 335 44.9123 335 39.8284C335 34.7444 332.98 29.8687 329.385 26.2738C325.791 22.6789 320.915 20.6593 315.831 20.6593H172.976Z" fill="#E5E5E5"/>
<path d="M172.976 24.5388C168.921 24.5388 165.032 26.1497 162.164 29.017C159.297 31.8844 157.686 35.7734 157.686 39.8284C157.686 43.8835 159.297 47.7725 162.164 50.6398C165.032 53.5072 168.921 55.118 172.976 55.118H315.831C319.886 55.118 323.775 53.5072 326.642 50.6398C329.51 47.7725 331.12 43.8835 331.12 39.8284C331.12 35.7734 329.51 31.8844 326.642 29.017C323.775 26.1497 319.886 24.5388 315.831 24.5388H172.976Z" fill="white"/>
<path d="M83.9309 111.729C101.215 111.729 115.226 97.7178 115.226 80.434C115.226 63.1502 101.215 49.1389 83.9309 49.1389C66.6471 49.1389 52.6357 63.1502 52.6357 80.434C52.6357 97.7178 66.6471 111.729 83.9309 111.729Z" fill="#9E616A"/>
<path d="M75.9251 110.197C75.7914 109.902 75.6581 109.607 75.5251 109.311C75.5764 109.312 75.6271 109.32 75.6783 109.321L75.9251 110.197Z" fill="#2F2E41"/>
<path d="M51.7655 50.562C53.3484 49.2993 55.1983 48.1375 57.222 48.2028C59.2457 48.2681 61.2978 50.0958 60.8785 52.0767C64.5956 45.4952 70.5121 40.4334 77.5895 37.7796C84.6668 35.1257 92.4528 35.0495 99.5808 37.5644C104.61 39.3389 109.543 42.889 110.698 48.0958C110.995 49.4324 111.058 50.898 111.893 51.9834C112.945 53.3519 114.959 53.6614 116.616 53.18C116.633 53.1752 116.649 53.1703 116.666 53.1654C116.946 53.0698 117.248 53.0604 117.534 53.1384C117.819 53.2165 118.075 53.3784 118.267 53.6032C118.46 53.828 118.58 54.1054 118.613 54.3995C118.646 54.6935 118.59 54.9908 118.453 55.2527L117.029 57.9069C118.823 58.3068 120.687 58.2671 122.463 57.7913C122.758 57.714 123.069 57.7298 123.355 57.8365C123.641 57.9433 123.886 58.1358 124.058 58.3876C124.23 58.6395 124.32 58.9383 124.315 59.2432C124.31 59.548 124.211 59.844 124.032 60.0904C119.339 66.5331 111.499 70.6935 103.499 70.6446C97.8126 70.6099 92.0679 68.6502 86.534 69.9578C84.3931 70.4636 82.3926 71.4424 80.6794 72.8222C78.9661 74.202 77.5835 75.9479 76.633 77.9318C75.6825 79.9157 75.1882 82.0871 75.1863 84.287C75.1845 86.4868 75.6752 88.6591 76.6224 90.6445C74.9224 88.785 71.636 89.2253 69.897 91.0485C68.158 92.8717 67.7078 95.5929 67.8831 98.1063C68.151 101.951 69.6572 105.573 71.245 109.098C57.9324 108.679 45.3409 99.3408 41.1026 86.7101C36.8465 74.0265 41.307 58.9051 51.7655 50.562Z" fill="#2F2E41"/>
<path opacity="0.2" d="M30.8025 174.415L39.5801 222.172L44.8468 222.631L30.8025 174.415Z" fill="black"/>
<path opacity="0.2" d="M127.489 170.813L118.712 222.138L113.445 222.631L127.489 170.813Z" fill="black"/>
<path d="M204.531 48.9709H176.108C176.017 48.9715 175.928 48.9542 175.844 48.9201C175.761 48.886 175.685 48.8356 175.621 48.772C175.557 48.7084 175.506 48.6327 175.471 48.5493C175.436 48.466 175.418 48.3765 175.418 48.2862C175.418 48.1959 175.436 48.1065 175.471 48.0232C175.506 47.9398 175.557 47.8641 175.621 47.8005C175.685 47.7369 175.761 47.6865 175.844 47.6524C175.928 47.6183 176.017 47.601 176.108 47.6016H204.531C204.711 47.6029 204.884 47.6755 205.012 47.8038C205.139 47.932 205.211 48.1055 205.211 48.2862C205.211 48.467 205.139 48.6404 205.012 48.7687C204.884 48.897 204.711 48.9696 204.531 48.9709Z" fill="#F7941E"/>
<path d="M240.587 49.1992H212.164C212.073 49.1998 211.984 49.1826 211.9 49.1484C211.817 49.1143 211.741 49.064 211.677 49.0003C211.612 48.9367 211.562 48.861 211.527 48.7777C211.492 48.6943 211.474 48.6049 211.474 48.5146C211.474 48.4243 211.492 48.3349 211.527 48.2515C211.562 48.1681 211.612 48.0925 211.677 48.0288C211.741 47.9652 211.817 47.9149 211.9 47.8807C211.984 47.8466 212.073 47.8294 212.164 47.83H240.587C240.677 47.8294 240.766 47.8466 240.85 47.8807C240.934 47.9149 241.01 47.9652 241.074 48.0288C241.138 48.0925 241.189 48.1681 241.223 48.2515C241.258 48.3349 241.276 48.4243 241.276 48.5146C241.276 48.6049 241.258 48.6943 241.223 48.7777C241.189 48.861 241.138 48.9367 241.074 49.0003C241.01 49.064 240.934 49.1143 240.85 49.1484C240.766 49.1826 240.677 49.1998 240.587 49.1992Z" fill="#F7941E"/>
<path d="M276.643 49.4275H248.22C248.039 49.4262 247.866 49.3536 247.739 49.2253C247.612 49.097 247.54 48.9236 247.54 48.7428C247.54 48.5621 247.612 48.3886 247.739 48.2604C247.866 48.1321 248.039 48.0595 248.22 48.0582H276.643C276.733 48.0576 276.823 48.0749 276.906 48.109C276.99 48.1431 277.066 48.1935 277.13 48.2571C277.194 48.3207 277.245 48.3964 277.28 48.4798C277.314 48.5631 277.332 48.6525 277.332 48.7428C277.332 48.8331 277.314 48.9226 277.28 49.0059C277.245 49.0893 277.194 49.165 277.13 49.2286C277.066 49.2922 276.99 49.3426 276.906 49.3767C276.823 49.4108 276.733 49.4281 276.643 49.4275H276.643Z" fill="#F7941E"/>
<path d="M312.699 49.6554H284.276C284.095 49.6541 283.922 49.5814 283.795 49.4532C283.667 49.3249 283.596 49.1515 283.596 48.9707C283.596 48.79 283.667 48.6165 283.795 48.4883C283.922 48.36 284.095 48.2874 284.276 48.2861H312.699C312.88 48.2874 313.052 48.36 313.18 48.4883C313.307 48.6165 313.379 48.79 313.379 48.9707C313.379 49.1515 313.307 49.3249 313.18 49.4532C313.052 49.5814 312.88 49.6541 312.699 49.6554Z" fill="#F7941E"/>
<path d="M190.256 42.6701C193.174 42.6701 195.539 40.305 195.539 37.3875C195.539 34.47 193.174 32.1049 190.256 32.1049C187.339 32.1049 184.974 34.47 184.974 37.3875C184.974 40.305 187.339 42.6701 190.256 42.6701Z" fill="#F7941E"/>
<path d="M226.53 42.6701C229.448 42.6701 231.813 40.305 231.813 37.3875C231.813 34.47 229.448 32.1049 226.53 32.1049C223.613 32.1049 221.248 34.47 221.248 37.3875C221.248 40.305 223.613 42.6701 226.53 42.6701Z" fill="#F7941E"/>
<path d="M262.804 42.6701C265.722 42.6701 268.087 40.305 268.087 37.3875C268.087 34.47 265.722 32.1049 262.804 32.1049C259.887 32.1049 257.522 34.47 257.522 37.3875C257.522 40.305 259.887 42.6701 262.804 42.6701Z" fill="#F7941E"/>
<path d="M299.078 42.6701C301.996 42.6701 304.361 40.305 304.361 37.3875C304.361 34.47 301.996 32.1049 299.078 32.1049C296.161 32.1049 293.796 34.47 293.796 37.3875C293.796 40.305 296.161 42.6701 299.078 42.6701Z" fill="#F7941E"/>
</g>
<defs>
<clipPath id="clip0_1_6835">
<rect width="335" height="222.631" fill="white"/>
</clipPath>
</defs>
</svg>
