<svg width="80" height="81" viewBox="0 0 80 81" fill="none" xmlns="http://www.w3.org/2000/svg">
<path d="M75.791 22.2704L65.6396 29.5757L68.7549 33.9046L78.9063 26.5994L75.791 22.2704Z" fill="#FE0000"/>
<path d="M47.1701 42.7944L44.927 44.4253L48.0634 48.739L50.3065 47.1081L47.1701 42.7944Z" fill="#FE0000"/>
<path d="M32.8154 42.8105L29.6768 47.1226L31.4447 48.4094L34.5833 44.0974L32.8154 42.8105Z" fill="#FE0000"/>
<path d="M4.22792 22.2343L1.11646 26.5659L12.2921 34.5935L15.4036 30.2618L4.22792 22.2343Z" fill="#FE0000"/>
<path d="M76.6401 75.7068L72.6934 79.2802L49.0934 53.2802L40.0001 43.2535L30.9068 53.2802L7.30677 79.2802L3.36011 75.7068L23.7068 53.2802L31.2534 44.9602L36.4001 39.2802L40.0001 35.3335L43.6001 39.2802L48.7468 44.9602L56.2934 53.2802L76.6401 75.7068Z" fill="#FE0000"/>
<path d="M62.0533 12.6133H17.9467L40 0L62.0533 12.6133ZM38.0533 7.28H41.9467L40 6.16L38.0533 7.28ZM70.2133 80.4267H9.78667C7.19108 80.4267 4.7018 79.3956 2.86645 77.5602C1.03109 75.7249 0 73.2356 0 70.64V22.88L16.5067 13.5467V31.1733L30.88 41.4933L40 31.36L49.12 41.3867L64.5067 30.3467V14L80 22.88V70.64C80 71.9252 79.7469 73.1978 79.255 74.3852C78.7632 75.5726 78.0423 76.6514 77.1336 77.5602C76.2248 78.469 75.1459 79.1899 73.9585 79.6817C72.7712 80.1735 71.4985 80.4267 70.2133 80.4267ZM5.33333 25.9733V70.64C5.33333 71.8211 5.80252 72.9538 6.63768 73.789C7.47285 74.6241 8.60557 75.0933 9.78667 75.0933H70.2133C71.3944 75.0933 72.5272 74.6241 73.3623 73.789C74.1975 72.9538 74.6667 71.8211 74.6667 70.64V25.9733L69.84 23.3067V33.2L48.3733 48.6133L40 39.28L31.6267 48.5067L11.1733 33.8133V22.64L5.33333 25.9733Z" fill="#FE0000"/>
<path d="M51.1731 22.6401H29.8398C28.367 22.6401 27.1731 23.834 27.1731 25.3068C27.1731 26.7796 28.367 27.9735 29.8398 27.9735H51.1731C52.6459 27.9735 53.8398 26.7796 53.8398 25.3068C53.8398 23.834 52.6459 22.6401 51.1731 22.6401Z" fill="#FE0000"/>
<path d="M31.6264 48.5065L11.1731 33.8132V7.14648H69.8398V32.9598L48.3731 48.3731L39.9998 39.2798L31.6264 48.5065ZM39.9998 31.3598L49.1198 41.3865L64.5064 30.3465V12.6132H16.5064V31.0932L30.8798 41.4132L39.9998 31.3598Z" fill="#FE0000"/>
</svg>
