<svg width="155" height="183" viewBox="0 0 155 183" fill="none" xmlns="http://www.w3.org/2000/svg">
<g clip-path="url(#clip0_1_3826)">
<path d="M110.165 153.524L111.698 182.945C111.698 182.945 46.8811 121.255 38.8062 103.205C30.7312 85.1547 45.9311 40.5049 45.9311 40.5049L79.656 59.0298L110.165 153.524Z" fill="#9F616A"/>
<path d="M10.7814 28.1548L0.80641 29.1048C0.80641 29.1048 -4.41858 40.5047 11.7314 41.4547L10.7814 28.1548Z" fill="#9F616A"/>
<path d="M10.7814 45.7295L0.80641 46.6795C0.80641 46.6795 -4.41858 58.0795 11.7314 59.0294L10.7814 45.7295Z" fill="#9F616A"/>
<path d="M10.7814 64.73L0.80641 65.68C0.80641 65.68 -4.41858 77.0799 11.7314 78.0299L10.7814 64.73Z" fill="#9F616A"/>
<path d="M13.6315 83.73L3.65651 84.68C3.65651 84.68 -1.56849 96.0799 14.5815 97.0299L13.6315 83.73Z" fill="#9F616A"/>
<path d="M5.92529 32.7348H6.68217V12.0005C6.68217 10.4246 6.99257 8.86407 7.59565 7.4081C8.19873 5.95214 9.08267 4.62921 10.197 3.51487C11.3114 2.40052 12.6343 1.51657 14.0902 0.913487C15.5462 0.310406 17.1067 1.20741e-06 18.6826 0H62.6112C64.1871 -3.21967e-06 65.7476 0.310396 67.2035 0.913473C68.6595 1.51655 69.9824 2.4005 71.0968 3.51484C72.2111 4.62919 73.0951 5.9521 73.6982 7.40807C74.3013 8.86403 74.6117 10.4245 74.6117 12.0004V125.751C74.6117 127.327 74.3013 128.887 73.6982 130.343C73.0951 131.799 72.2112 133.122 71.0968 134.236C69.9825 135.351 68.6595 136.235 67.2036 136.838C65.7476 137.441 64.1871 137.751 62.6112 137.751H18.6827C15.5 137.751 12.4476 136.487 10.1971 134.236C7.94653 131.986 6.68219 128.933 6.68218 125.751V47.4939H5.92529V32.7348Z" fill="#3F3D56"/>
<path d="M18.1982 3.12257H23.9323C23.6686 3.76907 23.5679 4.4705 23.6392 5.16506C23.7104 5.85963 23.9514 6.52601 24.3408 7.10552C24.7303 7.68502 25.2563 8.15986 25.8725 8.48819C26.4887 8.81653 27.1762 8.98829 27.8744 8.98834H53.0405C53.7387 8.98829 54.4261 8.81653 55.0423 8.4882C55.6585 8.15986 56.1845 7.68503 56.574 7.10552C56.9635 6.52602 57.2044 5.85963 57.2757 5.16506C57.3469 4.47049 57.2462 3.76906 56.9825 3.12256H62.3382C64.7151 3.12256 66.9945 4.06674 68.6752 5.74741C70.3559 7.42807 71.3001 9.70754 71.3001 12.0844V125.668C71.3001 126.845 71.0683 128.01 70.6179 129.097C70.1675 130.185 69.5074 131.173 68.6752 132.005C67.843 132.837 66.8551 133.497 65.7678 133.947C64.6805 134.398 63.5151 134.63 62.3382 134.63H18.1982C17.0213 134.63 15.8559 134.398 14.7686 133.947C13.6813 133.497 12.6934 132.837 11.8612 132.005C11.029 131.173 10.3689 130.185 9.9185 129.097C9.46813 128.01 9.23633 126.845 9.23633 125.668V12.0844C9.23633 10.9075 9.46813 9.74214 9.9185 8.65484C10.3689 7.56754 11.029 6.5796 11.8612 5.74742C12.6934 4.91524 13.6813 4.25511 14.7686 3.80474C15.8559 3.35437 17.0213 3.12257 18.1982 3.12257Z" fill="white"/>
<path d="M49.7254 34.9424H30.8115V39.5065H49.7254V34.9424Z" fill="#F34A4A"/>
<path d="M50.6259 54.5542H29.9111V59.1183H50.6259V54.5542Z" fill="#E5E5E5"/>
<path d="M63.3852 64.3584H17.1519V68.9225H63.3852V64.3584Z" fill="#E5E5E5"/>
<path d="M63.3852 74.1626H17.1519V78.7267H63.3852V74.1626Z" fill="#E5E5E5"/>
<path d="M154.91 168.847L101.744 108.192L99.8437 69.242L79.8937 35.9921L74.1938 21.7422C74.1938 21.7422 60.8938 23.1672 71.8188 50.2421L76.3312 64.7295C72.2636 73.4906 70.1563 83.0337 70.1563 92.693V125.891C70.1563 133.708 107.408 176.288 111.744 182.792L154.91 168.847Z" fill="#9F616A"/>
<path opacity="0.2" d="M75.7576 38.8101L79.7236 36.8609L79.5884 36.5857L75.924 38.3868L70.3922 23.8838L70.106 23.9932L75.7576 38.8101Z" fill="black"/>
<path opacity="0.2" d="M0.859365 28.9609L0.753418 29.2485L6.62869 31.4128L6.73464 31.1252L0.859365 28.9609Z" fill="black"/>
<path opacity="0.2" d="M0.859365 46.7358L0.753418 47.0234L6.62869 49.1877L6.73464 48.9001L0.859365 46.7358Z" fill="black"/>
<path opacity="0.2" d="M0.859365 65.7373L0.753418 66.0249L6.62869 68.1892L6.73464 67.9015L0.859365 65.7373Z" fill="black"/>
<path opacity="0.2" d="M3.93776 84.7443L3.80518 85.0205L6.6656 86.3934L6.79819 86.1171L3.93776 84.7443Z" fill="black"/>
<path d="M40.2916 118.115C47.6087 118.115 53.5403 112.183 53.5403 104.866C53.5403 97.5493 47.6087 91.6177 40.2916 91.6177C32.9746 91.6177 27.043 97.5493 27.043 104.866C27.043 112.183 32.9746 118.115 40.2916 118.115Z" fill="#37E80F"/>
<path d="M39.0291 110.459L35.064 105.36L37.3698 103.566L39.2473 105.98L45.5903 99.2847L47.7113 101.294L39.0291 110.459Z" fill="white"/>
</g>
<defs>
<clipPath id="clip0_1_3826">
<rect width="154.91" height="182.945" fill="white"/>
</clipPath>
</defs>
</svg>
