<svg width="264" height="31" viewBox="0 0 264 31" fill="none" xmlns="http://www.w3.org/2000/svg">
<g clip-path="url(#clip0_1_3811)">
<path d="M7.64352 21.6549C6.44237 21.6549 5.47053 22.6376 5.47053 23.8388C5.47053 25.0399 6.44237 26.0227 7.64352 26.0227C8.84467 26.0227 9.82743 25.0399 9.82743 23.8388C9.82743 22.6376 8.84467 21.6549 7.64352 21.6549ZM1.0918 4.18359V6.3675H3.2757L7.20674 14.6554L5.7326 17.3307C5.55789 17.6365 5.45961 17.9968 5.45961 18.379C5.45961 19.5801 6.44237 20.5629 7.64352 20.5629H20.747V18.379H8.10214C7.94927 18.379 7.82915 18.2589 7.82915 18.106L7.86191 17.975L8.84467 16.1951H16.9797C17.7987 16.1951 18.5194 15.7474 18.8906 15.0704L22.7998 7.98359C22.8872 7.83072 22.9309 7.64509 22.9309 7.45946C22.9309 6.85888 22.4395 6.3675 21.8389 6.3675H5.68892L4.66249 4.18359H1.0918ZM18.5631 21.6549C17.3619 21.6549 16.3901 22.6376 16.3901 23.8388C16.3901 25.0399 17.3619 26.0227 18.5631 26.0227C19.7642 26.0227 20.747 25.0399 20.747 23.8388C20.747 22.6376 19.7642 21.6549 18.5631 21.6549Z" fill="black"/>
</g>
<g clip-path="url(#clip1_1_3811)">
<path d="M138.236 6.36768H120.764C119.552 6.36768 118.591 7.33951 118.591 8.55158L118.581 21.655C118.581 22.8671 119.552 23.8389 120.764 23.8389H138.236C139.448 23.8389 140.42 22.8671 140.42 21.655V8.55158C140.42 7.33951 139.448 6.36768 138.236 6.36768ZM138.236 21.655H120.764V15.1033H138.236V21.655ZM138.236 10.7355H120.764V8.55158H138.236V10.7355Z" fill="black"/>
</g>
<g clip-path="url(#clip2_1_3811)">
<path d="M248.896 2.51709C241.949 2.51709 236.31 8.15571 236.31 15.1033C236.31 22.0509 241.949 27.6895 248.896 27.6895C255.844 27.6895 261.482 22.0509 261.482 15.1033C261.482 8.15571 255.844 2.51709 248.896 2.51709ZM246.379 21.3964L240.086 15.1033L241.861 13.3286L246.379 17.8345L255.932 8.28157L257.707 10.0688L246.379 21.3964Z" fill="#FE0000"/>
</g>
<line x1="29" y1="14.5" x2="114" y2="14.5" stroke="black" stroke-dasharray="4 5"/>
<line x1="145" y1="14.5" x2="230" y2="14.5" stroke="#FE0000" stroke-dasharray="4 5"/>
<defs>
<clipPath id="clip0_1_3811">
<rect width="26.2069" height="26.2069" fill="white" transform="translate(0 2)"/>
</clipPath>
<clipPath id="clip1_1_3811">
<rect width="26.2069" height="26.2069" fill="white" transform="translate(116.396 2)"/>
</clipPath>
<clipPath id="clip2_1_3811">
<rect width="30.2069" height="30.2069" fill="white" transform="translate(233.793)"/>
</clipPath>
</defs>
</svg>
