<svg width="264" height="30" viewBox="0 0 264 30" fill="none" xmlns="http://www.w3.org/2000/svg">
<path d="M11.2225 18.5625H23.6875V19.4375H10.75C9.75905 19.4375 9.0625 18.7289 9.0625 18C9.0625 17.7599 9.13164 17.5352 9.25441 17.3442L9.25448 17.3442L9.25934 17.3364L10.7781 14.8864L10.9488 14.611L10.7963 14.3252L6.74627 6.73519L6.58742 6.4375H6.25H4.5625V5.5625H7.33988L8.23898 7.26293L8.39738 7.5625H8.73625H25.375C25.7472 7.5625 25.9375 7.82111 25.9375 8C25.9375 8.07459 25.9171 8.13649 25.8918 8.17582L25.8918 8.17579L25.8871 8.1834L21.8596 14.6734L21.8588 14.6747C21.5879 15.1137 21.0356 15.4375 20.3687 15.4375H11.9875H11.6747L11.5097 15.7032L10.4972 17.3332L10.4551 17.4009L10.4335 17.4777L10.3998 17.5977L10.3787 17.6724V17.75C10.3787 18.2611 10.8185 18.5625 11.2225 18.5625ZM9.07375 23C9.07375 22.2677 9.76289 21.5625 10.75 21.5625C11.741 21.5625 12.4375 22.2711 12.4375 23C12.4375 23.7289 11.741 24.4375 10.75 24.4375C9.76289 24.4375 9.07375 23.7323 9.07375 23ZM20.3237 23C20.3237 22.2677 21.0129 21.5625 22 21.5625C22.991 21.5625 23.6875 22.2711 23.6875 23C23.6875 23.7289 22.991 24.4375 22 24.4375C21.0129 24.4375 20.3237 23.7323 20.3237 23Z" fill="#F72F2F" stroke="#F72F2F" stroke-width="1.125"/>
<line x1="34" y1="14.5" x2="119" y2="14.5" stroke="#F72F2F" stroke-dasharray="4 5"/>
<path d="M124.5 20.625C124.5 21.3212 124.777 21.9889 125.269 22.4812C125.761 22.9734 126.429 23.25 127.125 23.25H142.875C143.571 23.25 144.239 22.9734 144.731 22.4812C145.223 21.9889 145.5 21.3212 145.5 20.625V13.4062H124.5V20.625ZM127.594 17.0625C127.594 16.6895 127.742 16.3319 128.006 16.0681C128.269 15.8044 128.627 15.6562 129 15.6562H131.25C131.623 15.6562 131.981 15.8044 132.244 16.0681C132.508 16.3319 132.656 16.6895 132.656 17.0625V18C132.656 18.373 132.508 18.7306 132.244 18.9944C131.981 19.2581 131.623 19.4062 131.25 19.4062H129C128.627 19.4062 128.269 19.2581 128.006 18.9944C127.742 18.7306 127.594 18.373 127.594 18V17.0625ZM142.875 6.75H127.125C126.429 6.75 125.761 7.02656 125.269 7.51884C124.777 8.01113 124.5 8.67881 124.5 9.375V10.5938H145.5V9.375C145.5 8.67881 145.223 8.01113 144.731 7.51884C144.239 7.02656 143.571 6.75 142.875 6.75Z" fill="#F72F2F"/>
<line x1="151" y1="14.5" x2="236" y2="14.5" stroke="#F72F2F" stroke-dasharray="4 5"/>
<path d="M261 15C261 10.0312 256.969 6 252 6C247.031 6 243 10.0312 243 15C243 19.9688 247.031 24 252 24C256.969 24 261 19.9688 261 15Z" fill="#F72F2F" stroke="#F72F2F" stroke-width="2" stroke-miterlimit="10"/>
<path d="M256.5 11.25L250.2 18.75L247.5 15.75" stroke="#F5F5F5" stroke-width="2" stroke-linecap="round" stroke-linejoin="round"/>
</svg>

