<svg width="358" height="181" viewBox="0 0 358 181" fill="none" xmlns="http://www.w3.org/2000/svg">
<g clip-path="url(#clip0_120_6707)">
<path d="M117.897 181C107.095 181 96.3085 180.805 85.5384 180.415C70.1493 179.857 54.2362 179.281 39.4455 171.008C29.0988 165.22 19.9352 155.935 12.9456 144.156C8.27389 136.172 4.84838 127.51 2.7894 118.475C-1.0514 102.025 -0.920575 84.8852 3.17086 68.4969C4.60466 62.8781 6.58125 57.4145 9.07226 52.1847C19.8585 29.6574 39.5318 14.5354 63.0479 10.6964C63.2421 10.671 63.4385 10.6668 63.6336 10.6838C63.7393 10.6895 63.8448 10.6957 63.9522 10.6911L64.0906 10.6468C64.4453 10.5224 64.8096 10.4281 65.1798 10.3648C101.448 4.91936 139.788 15.9375 176.054 42.2273C204.094 62.5572 241.255 73.5045 289.662 75.6949L290.349 75.7312C303.824 76.5119 316.858 82.1149 328.045 91.9353C339.086 101.628 347.376 114.56 352.018 129.334C352.589 131.135 353.112 133.01 353.573 134.906C354.003 136.668 353.972 138.512 353.485 140.259C352.998 142.006 352.071 143.596 350.794 144.875V144.878L350.674 145.003C350.384 145.294 350.078 145.574 349.766 145.833L349.399 146.139C346.306 148.709 343.862 150.739 340.938 152.316C338.988 153.36 336.914 154.15 334.766 154.666C322.97 157.567 310.991 160.256 299.161 162.659C276.188 167.331 252.61 171.185 229.081 174.113C192.194 178.701 155.063 181 117.897 181ZM63.3586 11.4817C63.2863 11.481 63.2141 11.486 63.1426 11.4965C39.8464 15.2995 20.3593 30.2731 9.68003 52.5774C7.2136 57.7554 5.25657 63.1648 3.83703 68.728C-0.217121 84.971 -0.346316 101.958 3.46031 118.262C5.49914 127.211 8.89144 135.79 13.5181 143.698C20.4393 155.362 29.5092 164.554 39.7474 170.28C54.4053 178.479 70.2434 179.053 85.5602 179.607C133.466 181.334 181.431 179.228 229.007 173.311C252.52 170.384 276.083 166.533 299.041 161.864C310.863 159.462 322.833 156.775 334.621 153.876C336.718 153.373 338.742 152.602 340.645 151.583C343.51 150.039 345.929 148.029 348.992 145.484L348.994 145.482L349.362 145.177C349.63 144.953 349.893 144.714 350.145 144.466L350.218 144.39C352.736 141.83 353.715 138.453 352.904 135.125C352.448 133.249 351.93 131.394 351.365 129.611C341.881 99.4317 317.347 78.1037 290.315 76.5379L289.632 76.5016C267.521 75.5009 248.172 72.7289 230.482 68.0265C209.364 62.4133 190.928 53.9634 175.686 42.9122C139.558 16.7231 101.378 5.746 65.2684 11.1657C64.9311 11.2243 64.5992 11.3111 64.2761 11.4251L64.0267 11.4955C63.8851 11.5019 63.7431 11.5002 63.6016 11.4904C63.5989 11.4902 63.5961 11.4901 63.5934 11.4899C63.513 11.4858 63.4349 11.4817 63.3586 11.4817Z" fill="#FD7575"/>
<path d="M63.3586 11.4817C63.2863 11.481 63.2141 11.486 63.1426 11.4965C39.8464 15.2995 20.3593 30.2731 9.68003 52.5774C7.2136 57.7554 5.25657 63.1648 3.83703 68.728C-0.217121 84.971 -0.346316 101.958 3.46031 118.262C5.49914 127.211 8.89144 135.79 13.5181 143.698C20.4393 155.362 29.5092 164.554 39.7474 170.28C54.4053 178.479 70.2434 179.053 85.5602 179.607C133.466 181.334 181.431 179.228 229.007 173.311C252.52 170.384 276.083 166.533 299.041 161.864C310.863 159.462 322.833 156.775 334.621 153.876C336.718 153.373 338.742 152.602 340.645 151.583C343.51 150.039 345.929 148.029 348.992 145.484L348.994 145.482L349.362 145.177C349.63 144.953 349.893 144.714 350.145 144.466L350.218 144.39C352.736 141.83 353.715 138.453 352.904 135.125C352.448 133.249 351.93 131.394 351.365 129.611C341.881 99.4317 317.347 78.1037 290.315 76.5379L289.632 76.5016C267.521 75.5009 248.172 72.7289 230.482 68.0265C209.364 62.4133 190.928 53.9634 175.686 42.9122C139.558 16.7231 101.378 5.746 65.2684 11.1657C64.9311 11.2243 64.5992 11.3111 64.2761 11.4251L64.0267 11.4955C63.8851 11.5019 63.7431 11.5002 63.6016 11.4904L63.5934 11.4899C63.513 11.4858 63.4349 11.4817 63.3586 11.4817Z" fill="#FD7575"/>
<path d="M111.825 58.972C110.825 58.0043 109.802 52.608 108.525 52.0602C109.479 54.1875 108.787 54.7507 108.781 57.0853C108.793 58.411 108.64 59.7329 108.325 61.0199H86.6968V43.9965C86.6967 42.4669 86.9954 40.9523 87.5758 39.5391C88.1561 38.1259 89.0068 36.8419 90.0792 35.7603C91.1516 34.6787 92.4248 33.8207 93.8259 33.2354C95.2271 32.6501 96.7289 32.3488 98.2455 32.3489C98.8243 32.3603 99.3995 32.4452 99.9573 32.6016C101.816 33.1078 103.511 34.0981 104.87 35.4733C106.23 36.8484 107.207 38.5599 107.704 40.4362C109.353 46.5143 111.975 56.6317 111.825 58.972Z" fill="#2F2E41"/>
<path d="M87.9655 79.914L87.9762 66.6453L80.2427 67.3423L82.972 75.7108L81.6946 96.7455C81.0751 96.8857 80.5094 97.2047 80.0665 97.6635C79.6237 98.1224 79.3227 98.7013 79.2004 99.3297C79.0781 99.9581 79.1398 100.609 79.3778 101.202C79.6158 101.796 80.02 102.307 80.541 102.673C81.062 103.039 81.6773 103.244 82.312 103.264C82.9466 103.283 83.5731 103.116 84.1151 102.782C84.6572 102.449 85.0912 101.963 85.3645 101.385C85.6377 100.807 85.7383 100.162 85.6539 99.5268L87.9655 79.914Z" fill="#FFB6B6"/>
<path d="M103.185 174.733L106.309 174.732L107.796 162.578H103.184L103.185 174.733Z" fill="#FFB6B6"/>
<path d="M102.127 173.178L107.066 172.881V175.015L111.761 178.286C111.993 178.447 112.168 178.679 112.26 178.948C112.352 179.217 112.356 179.508 112.272 179.78C112.188 180.051 112.021 180.288 111.794 180.457C111.567 180.625 111.292 180.716 111.01 180.716H105.13L104.117 178.605L103.721 180.716H101.504L102.127 173.178Z" fill="#2F2E41"/>
<path d="M85.1195 174.733L88.2442 174.732L89.7302 162.578H85.1191L85.1195 174.733Z" fill="#FFB6B6"/>
<path d="M84.0612 173.178L89.0002 172.881V175.015L93.6958 178.286C93.9278 178.447 94.1024 178.679 94.1944 178.948C94.2863 179.217 94.2906 179.508 94.2067 179.78C94.1228 180.051 93.9551 180.288 93.7281 180.457C93.5011 180.625 93.2266 180.716 92.9447 180.716H87.0647L86.0512 178.605L85.6555 180.716H83.4385L84.0612 173.178Z" fill="#2F2E41"/>
<path d="M100.403 52.3162L93.9305 52.4442L89.3618 57.308L85.699 57.8498C84.0421 58.0949 82.5188 58.9061 81.3838 60.1479C80.2487 61.3897 79.5706 62.9868 79.4629 64.6723L80.0974 68.1876H83.9047L86.1072 81.2303C85.2508 83.4313 85.1926 85.1686 86.9505 85.851L92.4076 96.2186L108.525 88.9229C109.342 87.5056 109.604 86.0821 108.769 84.6978L109.921 64.7317H113.795C113.795 60.9974 112.543 57.8493 108.863 57.4338C107.402 57.2743 105.934 57.1896 104.464 57.18L100.403 52.3162Z" fill="#E6E6E6"/>
<path d="M108.525 88.923C108.525 88.923 92.7882 91.7389 86.9504 85.8511C86.9504 85.8511 86.3577 86.8659 85.4646 88.5488C85.2078 89.0328 84.7118 89.3607 84.4122 89.9469C84.14 90.4797 83.4397 91.1348 83.1431 91.7391C82.9045 92.2252 83.2873 92.8605 83.039 93.3857C80.0494 99.7101 76.5565 108.631 77.3053 114.522C77.7882 118.321 78.7856 127.161 79.8361 136.655C79.9181 137.397 79.2534 138.35 79.3359 139.097C79.4137 139.802 80.2387 140.302 80.3165 141.009C80.3681 141.478 79.792 141.956 79.8435 142.425C79.9 142.939 80.5842 143.443 80.6404 143.956C82.0794 157.065 83.397 169.304 83.397 169.304H90.7577L92.1465 141.351L91.0115 131.162L93.6766 110.554L97.3569 130.138L97.8304 141.159L101.72 169.816H108.525V142.074L109.033 140.633L108.525 138.785L109.033 136.793L108.525 134.624V88.923Z" fill="#2F2E41"/>
<path d="M102.389 48.5307C101.387 49.874 99.9604 50.8328 98.3454 51.2493C96.7303 51.6658 95.0227 51.5151 93.5039 50.8221C91.9851 50.129 90.7455 48.935 89.9894 47.4366C89.2333 45.9381 89.0058 44.2247 89.3442 42.5784C89.6826 40.9321 90.5668 39.4511 91.8513 38.3794C93.1357 37.3076 94.7438 36.709 96.4106 36.6821C98.0774 36.6552 99.7036 37.2016 101.021 38.2314C102.339 39.2611 103.27 40.7128 103.66 42.3473C103.682 42.436 103.699 42.5242 103.717 42.6157C103.923 43.6403 103.911 44.6973 103.682 45.7169C103.454 46.7365 103.013 47.6956 102.389 48.5307Z" fill="#FFB6B6"/>
<path d="M100.86 44.3088C100.704 43.521 100.31 42.8011 99.7327 42.248C99.7897 43.003 99.6858 43.7615 99.4281 44.4726C97.4985 44.6449 95.5603 44.2577 93.8416 43.3565C92.5471 42.4708 90.8998 42.5475 88.981 43.3565C88.9808 42.4152 89.1646 41.483 89.5217 40.6134C89.8788 39.7437 90.4023 38.9535 91.0623 38.2879C91.7222 37.6222 92.5057 37.0943 93.368 36.7341C94.2303 36.3739 95.1545 36.1886 96.0879 36.1887H97.357C99.2417 36.1891 101.049 36.9444 102.382 38.2885C103.715 39.6326 104.464 41.4556 104.464 43.3565C103.293 43.7802 102.086 44.0988 100.86 44.3088Z" fill="#2F2E41"/>
<path d="M45.3375 135.665C56.6136 135.665 65.7547 126.445 65.7547 115.073C65.7547 103.7 56.6136 94.4807 45.3375 94.4807C34.0615 94.4807 24.9204 103.7 24.9204 115.073C24.9204 126.445 34.0615 135.665 45.3375 135.665Z" fill="#FFC7C7"/>
<path d="M175.447 41.1839C186.723 41.1839 195.864 31.9646 195.864 20.5919C195.864 9.21933 186.723 0 175.447 0C164.171 0 155.03 9.21933 155.03 20.5919C155.03 31.9646 164.171 41.1839 175.447 41.1839Z" fill="#FFC7C7"/>
<path d="M337.583 138.895C348.859 138.895 358 129.675 358 118.303C358 106.93 348.859 97.7108 337.583 97.7108C326.307 97.7108 317.166 106.93 317.166 118.303C317.166 129.675 326.307 138.895 337.583 138.895Z" fill="#FFC7C7"/>
<path d="M212.278 22.8375V69.5312C212.278 70.5011 211.898 71.4318 211.222 72.1213C210.546 72.8107 209.627 73.2031 208.665 73.2132C208.652 73.2146 208.639 73.2152 208.625 73.2149H203.237C198.925 73.2149 194.79 71.4875 191.742 68.4128C188.693 65.338 186.98 61.1678 186.98 56.8194V22.8375C186.98 21.8605 187.365 20.9236 188.05 20.2327C188.735 19.5419 189.664 19.1538 190.633 19.1538H192.816C191.805 22.1298 205.533 23.3827 206.287 19.1538H208.625C209.594 19.1538 210.523 19.5419 211.208 20.2327C211.893 20.9236 212.278 21.8605 212.278 22.8375Z" fill="#F72F2F"/>
<path d="M196.287 15.6622C196.287 15.5342 196.338 15.4115 196.427 15.321C196.517 15.2305 196.639 15.1796 196.766 15.1794H200.021C200.147 15.1798 200.269 15.2308 200.358 15.3213C200.448 15.4118 200.498 15.5344 200.498 15.6622C200.498 15.79 200.448 15.9126 200.358 16.0031C200.269 16.0936 200.147 16.1446 200.021 16.145H196.766C196.639 16.1448 196.517 16.0939 196.427 16.0034C196.338 15.9129 196.287 15.7902 196.287 15.6622Z" fill="#111111"/>
<path d="M201.84 16.145C202.104 16.145 202.319 15.9288 202.319 15.6622C202.319 15.3956 202.104 15.1794 201.84 15.1794C201.576 15.1794 201.361 15.3956 201.361 15.6622C201.361 15.9288 201.576 16.145 201.84 16.145Z" fill="#111111"/>
<path d="M97.7138 109.179H44.1541C43.3935 109.177 42.6646 108.871 42.1267 108.329C41.5888 107.786 41.2857 107.051 41.2837 106.284V79.9633C41.2856 79.1962 41.5886 78.4611 42.1264 77.9186C42.6642 77.3761 43.3931 77.0704 44.1537 77.0684H97.7135C98.4741 77.0703 99.2029 77.3759 99.7408 77.9183C100.279 78.4607 100.582 79.1958 100.584 79.9629V106.284C100.582 107.051 100.279 107.786 99.7411 108.329C99.2033 108.871 98.4744 109.177 97.7138 109.179ZM44.1541 77.8759C43.6056 77.8775 43.08 78.098 42.6922 78.4892C42.3044 78.8804 42.0859 79.4105 42.0844 79.9637V106.284C42.086 106.837 42.3046 107.367 42.6925 107.758C43.0803 108.149 43.606 108.37 44.1545 108.371H97.7131C98.2616 108.37 98.7873 108.149 99.1752 107.758C99.5631 107.367 99.7817 106.837 99.7832 106.283V79.9633C99.7815 79.4102 99.5629 78.8801 99.175 78.489C98.7872 78.0978 98.2616 77.8774 97.7131 77.8759L44.1541 77.8759Z" fill="#111111"/>
<path d="M73.8047 105.289C63.2415 105.289 52.227 105.187 48.1174 105.121C47.5767 105.11 47.0618 104.886 46.6826 104.497C46.3034 104.108 46.09 103.585 46.0879 103.04V81.2519C46.0881 81.0566 46.165 80.8693 46.3018 80.7311C46.4385 80.5928 46.624 80.5147 46.8177 80.514H95.0485C95.2421 80.5143 95.4277 80.5918 95.5648 80.7297C95.7019 80.8676 95.7793 81.0547 95.78 81.25V96.0326C95.771 98.4456 94.8246 100.759 93.1438 102.476C91.4631 104.194 89.1819 105.178 86.7897 105.219C82.9595 105.269 78.4241 105.289 73.8047 105.289Z" fill="#F72F2F"/>
<path d="M92.1855 94.6745H48.6051C48.2402 94.6735 47.8845 94.5592 47.5862 94.3471C47.288 94.1351 47.0617 93.8355 46.9381 93.4892L42.0055 79.5326C41.9104 79.2634 41.8808 78.9751 41.9191 78.692C41.9574 78.4089 42.0625 78.1392 42.2256 77.9055C42.3886 77.6719 42.6049 77.4811 42.8563 77.3492C43.1076 77.2173 43.3866 77.1482 43.67 77.1476L98.1446 77.0712C98.4035 77.0709 98.6594 77.1279 98.8941 77.2382C99.1288 77.3485 99.3367 77.5093 99.5031 77.7094C99.6695 77.9095 99.7904 78.144 99.8572 78.3963C99.924 78.6487 99.9351 78.9127 99.8898 79.1698L99.9318 79.1878L99.7754 79.5559L99.7739 79.5596L93.8109 93.5925C93.675 93.9138 93.4485 94.1876 93.1595 94.38C92.8705 94.5724 92.5317 94.6748 92.1855 94.6745ZM98.1471 77.8787L43.6715 77.9552C43.5163 77.9555 43.3634 77.9933 43.2257 78.0655C43.0881 78.1377 42.9696 78.2422 42.8802 78.3702C42.7909 78.4982 42.7333 78.646 42.7123 78.801C42.6913 78.9561 42.7075 79.114 42.7596 79.2615L47.6921 93.2176C47.7599 93.4073 47.8839 93.5714 48.0474 93.6876C48.2108 93.8038 48.4058 93.8664 48.6057 93.867H92.1855C92.375 93.8671 92.5603 93.8111 92.7185 93.7057C92.8766 93.6004 93.0006 93.4506 93.0749 93.2747L99.0381 79.2414C99.1013 79.0927 99.1269 78.9305 99.1126 78.7694C99.0984 78.6082 99.0447 78.4532 98.9564 78.3181C98.8681 78.183 98.7479 78.0722 98.6066 77.9955C98.4654 77.9188 98.3075 77.8787 98.1471 77.8787Z" fill="#111111"/>
<path d="M70.8529 97.7125C72.7376 97.7125 74.2654 96.1716 74.2654 94.2708C74.2654 92.37 72.7376 90.8291 70.8529 90.8291C68.9682 90.8291 67.4404 92.37 67.4404 94.2708C67.4404 96.1716 68.9682 97.7125 70.8529 97.7125Z" fill="#F5F5F5"/>
<path d="M199.761 67.8339C201.646 67.8339 203.174 66.293 203.174 64.3922C203.174 62.4915 201.646 60.9506 199.761 60.9506C197.876 60.9506 196.349 62.4915 196.349 64.3922C196.349 66.293 197.876 67.8339 199.761 67.8339Z" fill="#F5F5F5"/>
<path d="M328.828 114.314L319.712 105.237C319.269 104.792 318.742 104.439 318.163 104.199C317.584 103.959 316.963 103.837 316.337 103.84H316.305C315.675 103.842 315.051 103.97 314.469 104.216C313.888 104.463 313.361 104.824 312.919 105.277C310.88 107.358 309.721 110.154 309.684 113.078C309.648 116.003 310.737 118.828 312.722 120.959C312.818 121.064 312.919 121.165 313.019 121.266C313.573 121.822 314.185 122.316 314.844 122.74C316.646 123.914 318.748 124.536 320.893 124.529H320.961C322.434 124.524 323.891 124.224 325.248 123.648C326.605 123.071 327.836 122.229 328.868 121.169C329.762 120.254 330.261 119.018 330.253 117.733C330.246 116.448 329.733 115.218 328.828 114.314ZM328.299 120.6C326.607 122.32 324.379 123.398 321.99 123.654C319.601 123.91 317.197 123.328 315.184 122.005C314.609 121.621 314.071 121.181 313.579 120.693C311.615 118.736 310.502 116.073 310.485 113.289C310.467 110.505 311.547 107.828 313.487 105.847C313.856 105.468 314.296 105.166 314.781 104.961C315.266 104.755 315.787 104.648 316.313 104.647H316.337C316.859 104.646 317.375 104.747 317.857 104.947C318.34 105.146 318.778 105.44 319.148 105.81L328.263 114.891C329.018 115.644 329.446 116.668 329.452 117.738C329.459 118.808 329.045 119.838 328.299 120.6Z" fill="#111111"/>
<path d="M298.919 84.5238L289.803 75.4432C288.906 74.5453 287.692 74.0429 286.428 74.0462H286.4C285.768 74.0487 285.144 74.1774 284.562 74.4248C283.98 74.6722 283.452 75.0334 283.009 75.4876C281.324 77.2135 280.232 79.4384 279.892 81.8362C279.552 84.234 279.982 86.6786 281.12 88.8118L281.124 88.8158C281.593 89.6883 282.176 90.4936 282.857 91.2101C282.933 91.299 283.021 91.3878 283.109 91.4766C285.203 93.5723 288.034 94.7455 290.984 94.739H291.056C292.529 94.7328 293.986 94.4324 295.343 93.8551C296.7 93.2778 297.93 92.4351 298.963 91.3757C299.406 90.9229 299.756 90.3865 299.994 89.7971C300.232 89.2076 300.352 88.5768 300.348 87.9405C300.344 87.3043 300.215 86.675 299.97 86.0888C299.725 85.5025 299.368 84.9708 298.919 84.5238ZM298.39 90.8104C297.432 91.7936 296.29 92.5756 295.031 93.1112C293.771 93.6469 292.419 93.9257 291.052 93.9315H290.984C288.931 93.9307 286.924 93.3177 285.216 92.1697C283.508 91.0217 282.174 89.3898 281.383 87.4794C280.592 85.569 280.379 83.4653 280.77 81.4328C281.161 79.4004 282.139 77.53 283.582 76.0569C284.328 75.2959 285.343 74.8646 286.405 74.8578C287.466 74.851 288.487 75.2692 289.242 76.0206L298.358 85.0972C299.112 85.8512 299.539 86.8761 299.545 87.9471C299.551 89.0181 299.136 90.0478 298.39 90.8104Z" fill="#111111"/>
<path d="M329.41 117.167L319.36 107.156C318.701 106.501 317.811 106.137 316.886 106.143C315.961 106.148 315.076 106.524 314.425 107.187C313.611 108.017 312.967 109 312.529 110.081C312.092 111.162 311.871 112.319 311.877 113.487C311.884 114.654 312.118 115.808 312.567 116.884C313.017 117.96 313.672 118.936 314.495 119.756C315.319 120.577 316.295 121.225 317.367 121.665C318.439 122.105 319.587 122.327 320.744 122.319C321.901 122.311 323.046 122.073 324.112 121.619C325.178 121.165 326.145 120.503 326.958 119.671L329.41 117.167Z" fill="#F72F2F"/>
<path d="M299.503 87.3759L289.453 77.3652C288.794 76.7102 287.904 76.3456 286.979 76.3514C286.054 76.3572 285.169 76.7329 284.518 77.396C283.703 78.2257 283.059 79.209 282.622 80.2899C282.185 81.3708 281.963 82.5279 281.97 83.6952C281.976 84.8626 282.211 86.0171 282.66 87.0929C283.11 88.1688 283.765 89.1447 284.588 89.965C285.412 90.7853 286.387 91.4338 287.46 91.8736C288.532 92.3133 289.679 92.5355 290.837 92.5277C291.994 92.5198 293.139 92.2819 294.205 91.8276C295.271 91.3733 296.238 90.7115 297.05 89.88L299.503 87.3759Z" fill="#F72F2F"/>
<path d="M318.367 123.402L318.127 124.04C316.998 123.608 315.904 123.175 314.844 122.74C296.076 115.016 287.117 105.976 281.124 88.8159L281.12 88.8118C280.835 88.0043 280.559 87.178 280.291 86.3328L280.924 86.1268C281.135 86.9397 281.444 87.7234 281.844 88.4606C282.173 89.4014 282.51 90.3179 282.857 91.2102C288.49 105.693 296.797 113.97 312.722 120.96C313.523 121.311 314.344 121.659 315.184 122.005C316.16 122.647 317.236 123.119 318.367 123.402Z" fill="#111111"/>
<path d="M289.636 94.004L289.073 94.5787L309.866 115.291L310.429 114.716L289.636 94.004Z" fill="#111111"/>
<path d="M113.601 76.8421L113.612 63.5734L105.878 64.2704L108.608 72.6389L98.7005 87.7858C98.0809 87.926 97.5153 88.245 97.0724 88.7038C96.6295 89.1627 96.3286 89.7416 96.2063 90.37C96.084 90.9984 96.1456 91.649 96.3837 92.2427C96.6217 92.8363 97.0259 93.3473 97.5469 93.7133C98.0679 94.0793 98.6832 94.2845 99.3178 94.3039C99.9525 94.3233 100.579 94.1561 101.121 93.8225C101.663 93.489 102.097 93.0036 102.37 92.4256C102.644 91.8475 102.744 91.2018 102.66 90.5671L113.601 76.8421Z" fill="#FFB6B6"/>
<path d="M209.744 79.1376H189.16C187.563 79.1358 186.032 78.4952 184.903 77.3563C183.773 76.2175 183.138 74.6733 183.136 73.0627V40.4219C183.023 40.34 182.931 40.2322 182.868 40.1073C182.804 39.9824 182.771 39.844 182.772 39.7037V36.4209C182.771 36.2806 182.804 36.1423 182.868 36.0174C182.931 35.8925 183.023 35.7847 183.136 35.7029V34.8218C183.023 34.74 182.931 34.6322 182.868 34.5073C182.804 34.3825 182.771 34.2441 182.772 34.1038V30.8209C182.771 30.6806 182.804 30.5422 182.868 30.4174C182.931 30.2925 183.023 30.1847 183.136 30.1029V28.5105C182.997 28.4349 182.88 28.3224 182.799 28.1852C182.718 28.048 182.675 27.8911 182.676 27.7313V24.4486C182.675 24.2888 182.718 24.1319 182.799 23.9946C182.88 23.8574 182.997 23.7449 183.136 23.6692V19.3059C183.138 17.6953 183.773 16.1511 184.903 15.0123C186.032 13.8734 187.563 13.2328 189.16 13.231H209.744C211.341 13.2328 212.872 13.8734 214.001 15.0123C215.13 16.1512 215.765 17.6953 215.767 19.3059V28.817C215.875 28.8855 215.965 28.9806 216.027 29.0935C216.089 29.2063 216.122 29.3333 216.122 29.4623V35.7218C216.122 35.8509 216.089 35.9778 216.027 36.0908C215.965 36.2037 215.875 36.2988 215.767 36.3673V73.0627C215.765 74.6733 215.13 76.2174 214.001 77.3563C212.872 78.4952 211.341 79.1358 209.744 79.1376ZM189.16 14.0385C187.775 14.04 186.448 14.5955 185.469 15.583C184.489 16.5705 183.939 17.9094 183.937 19.3059V24.3561L183.552 24.3711C183.532 24.3718 183.513 24.3803 183.499 24.3947C183.485 24.4091 183.477 24.4284 183.476 24.4486V27.7313C183.477 27.7515 183.485 27.7708 183.499 27.7852C183.513 27.7996 183.532 27.808 183.552 27.8088L183.937 27.8236V30.6698L183.632 30.7455C183.616 30.7496 183.601 30.7593 183.59 30.7729C183.579 30.7865 183.573 30.8034 183.572 30.8209V34.1038C183.573 34.1213 183.579 34.1382 183.59 34.1518C183.601 34.1654 183.616 34.175 183.632 34.1791L183.937 34.2548V36.2699L183.632 36.3456C183.616 36.3497 183.601 36.3593 183.59 36.3729C183.579 36.3866 183.573 36.4034 183.572 36.4209V39.7037C183.573 39.7212 183.579 39.7381 183.59 39.7517C183.6 39.7654 183.616 39.775 183.632 39.7792L183.937 39.8549V73.0627C183.939 74.4592 184.489 75.7981 185.469 76.7856C186.448 77.7731 187.775 78.3286 189.16 78.3301H209.744C211.128 78.3285 212.456 77.773 213.435 76.7855C214.414 75.798 214.965 74.4592 214.966 73.0627V35.6759H215.321V29.5085H214.966V19.3059C214.965 17.9094 214.414 16.5705 213.435 15.583C212.456 14.5955 211.128 14.0401 209.744 14.0385L189.16 14.0385Z" fill="#111111"/>
</g>
<defs>
<clipPath id="clip0_120_6707">
<rect width="358" height="181" fill="white"/>
</clipPath>
</defs>
</svg>

