<svg width="30" height="30" viewBox="0 0 30 30" fill="none" xmlns="http://www.w3.org/2000/svg">
<mask id="path-1-inside-1_120_6692" fill="white">
<path fill-rule="evenodd" clip-rule="evenodd" d="M20.2208 8.91613C20.1259 8.71857 19.9937 8.5416 19.833 8.39301C19.7537 8.31971 19.6681 8.25392 19.5775 8.19611C19.4232 5.56213 17.3865 3.5741 14.9286 3.5741C12.4573 3.5741 10.5064 5.57523 10.3572 8.19421C10.2666 8.25197 10.1811 8.3177 10.1019 8.39091C9.94065 8.54002 9.80815 8.71772 9.71319 8.91613H6.61963C4.89374 8.91613 3.49463 10.3152 3.49463 12.0411V23.2996C3.49463 25.0255 4.89374 26.4246 6.61963 26.4246H23.3153C25.0412 26.4246 26.4403 25.0255 26.4403 23.2996V12.0411C26.4403 10.3152 25.0412 8.91613 23.3153 8.91613H20.2208ZM14.9286 4.8241C13.3381 4.8241 11.9539 6.01501 11.6568 7.79588C11.7466 7.77278 11.8408 7.76049 11.9378 7.76049H12.0475C12.6689 7.76049 13.1725 8.26417 13.1725 8.88549V10.386C13.1725 11.0073 12.6689 11.511 12.0475 11.511H11.9378C11.7411 11.511 11.5563 11.4605 11.3954 11.3718H11.3762C11.1428 11.3718 10.9107 11.3293 10.6927 11.2459C10.4747 11.1624 10.2736 11.0389 10.1019 10.8803C9.93024 10.7215 9.79118 10.5304 9.69528 10.3164C9.67322 10.2672 9.65358 10.217 9.63642 10.1661H6.61963C6.11897 10.1661 5.66413 10.3624 5.32785 10.6821L13.7478 17.8933C14.4498 18.4945 15.4851 18.4945 16.1871 17.8933L24.6071 10.6821C24.2708 10.3624 23.8159 10.1661 23.3153 10.1661H20.2993C20.2819 10.2177 20.262 10.2686 20.2397 10.3185C20.1438 10.5325 20.0047 10.7236 19.833 10.8824C19.6614 11.041 19.4603 11.1645 19.2423 11.248C19.2261 11.2542 19.2099 11.2601 19.1936 11.2659C19.0495 12.4883 18.0724 13.4557 16.8454 13.5848C16.7708 13.6971 16.6431 13.7711 16.4982 13.7711H15.9049C15.6747 13.7711 15.4881 13.5846 15.4881 13.3544C15.4881 13.1242 15.6747 12.9377 15.9049 12.9377H16.4982C16.6256 12.9377 16.7397 12.9949 16.8161 13.085C17.7449 12.9769 18.4927 12.276 18.6713 11.3706C18.6339 11.3728 18.5963 11.3739 18.5588 11.3739L18.5564 11.3739L18.5321 11.3738C18.373 11.46 18.1908 11.5089 17.9971 11.5089H17.8873C17.266 11.5089 16.7623 11.0053 16.7623 10.3839V8.88348C16.7623 8.26216 17.266 7.75848 17.8873 7.75848H17.9971C18.0928 7.75848 18.1857 7.77044 18.2745 7.79294C17.9633 6.02438 16.5305 4.8241 14.9286 4.8241ZM10.1742 9.64914V9.62204C10.1761 9.48072 10.2071 9.34099 10.2656 9.21035C10.326 9.07553 10.4146 8.95304 10.5262 8.84985C10.612 8.77054 10.7101 8.70384 10.8172 8.65185L10.8394 8.64134C10.822 8.71995 10.8128 8.80165 10.8128 8.88549V10.3859C10.8128 10.4697 10.822 10.5513 10.8393 10.6298L10.8138 10.6177C10.7081 10.5659 10.6111 10.4998 10.5262 10.4213C10.4146 10.3181 10.326 10.1956 10.2656 10.0608C10.2071 9.93019 10.1761 9.79045 10.1742 9.64914ZM17.8716 8.38373C17.6027 8.39204 17.3873 8.61261 17.3873 8.88348V10.3839C17.3873 10.6534 17.6005 10.873 17.8673 10.8835L17.8716 8.38373ZM18.4958 8.84773L18.4931 10.4474C18.4957 10.4266 18.4971 10.4054 18.4971 10.3839V8.88348C18.4971 8.87146 18.4966 8.85954 18.4958 8.84773ZM19.0945 10.6324C19.1126 10.5525 19.1221 10.4693 19.1221 10.3839V8.88348C19.1221 8.80125 19.1132 8.72108 19.0965 8.64387L19.1211 8.65559C19.2269 8.70733 19.3239 8.77347 19.4088 8.85195C19.5204 8.95514 19.6089 9.07764 19.6693 9.21245C19.7297 9.34727 19.7608 9.49177 19.7608 9.63769C19.7608 9.78362 19.7297 9.92811 19.6693 10.0629C19.6089 10.1977 19.5204 10.3202 19.4088 10.4234C19.323 10.5027 19.2248 10.5694 19.1178 10.6214L19.0945 10.6324ZM11.4378 10.3859C11.4378 10.3984 11.4383 10.4107 11.4392 10.4228L11.4419 8.82139C11.4392 8.84238 11.4378 8.86377 11.4378 8.88549V10.3859ZM12.0634 10.8857C12.3322 10.8773 12.5475 10.6568 12.5475 10.386V8.88549C12.5475 8.61608 12.3345 8.39643 12.0676 8.38589L12.0634 10.8857ZM4.74463 12.0411C4.74463 11.9724 4.74833 11.9045 4.75553 11.8377L11.7732 17.8479L4.76051 23.5447C4.75003 23.4645 4.74463 23.3827 4.74463 23.2996V12.0411ZM18.0483 17.9451L25.1794 11.8377C25.1866 11.9045 25.1903 11.9724 25.1903 12.0411V23.2996C25.1903 23.3901 25.1839 23.4792 25.1715 23.5663L18.0483 17.9451ZM17.0002 18.8427L17.0807 18.7738L24.5753 24.6881C24.2424 24.9904 23.8003 25.1746 23.3153 25.1746H6.61963C6.12903 25.1746 5.68244 24.9862 5.34828 24.6777L12.7382 18.6744L12.9347 18.8427C14.1047 19.8447 15.8303 19.8447 17.0002 18.8427Z"/>
</mask>
<path fill-rule="evenodd" clip-rule="evenodd" d="M20.2208 8.91613C20.1259 8.71857 19.9937 8.5416 19.833 8.39301C19.7537 8.31971 19.6681 8.25392 19.5775 8.19611C19.4232 5.56213 17.3865 3.5741 14.9286 3.5741C12.4573 3.5741 10.5064 5.57523 10.3572 8.19421C10.2666 8.25197 10.1811 8.3177 10.1019 8.39091C9.94065 8.54002 9.80815 8.71772 9.71319 8.91613H6.61963C4.89374 8.91613 3.49463 10.3152 3.49463 12.0411V23.2996C3.49463 25.0255 4.89374 26.4246 6.61963 26.4246H23.3153C25.0412 26.4246 26.4403 25.0255 26.4403 23.2996V12.0411C26.4403 10.3152 25.0412 8.91613 23.3153 8.91613H20.2208ZM14.9286 4.8241C13.3381 4.8241 11.9539 6.01501 11.6568 7.79588C11.7466 7.77278 11.8408 7.76049 11.9378 7.76049H12.0475C12.6689 7.76049 13.1725 8.26417 13.1725 8.88549V10.386C13.1725 11.0073 12.6689 11.511 12.0475 11.511H11.9378C11.7411 11.511 11.5563 11.4605 11.3954 11.3718H11.3762C11.1428 11.3718 10.9107 11.3293 10.6927 11.2459C10.4747 11.1624 10.2736 11.0389 10.1019 10.8803C9.93024 10.7215 9.79118 10.5304 9.69528 10.3164C9.67322 10.2672 9.65358 10.217 9.63642 10.1661H6.61963C6.11897 10.1661 5.66413 10.3624 5.32785 10.6821L13.7478 17.8933C14.4498 18.4945 15.4851 18.4945 16.1871 17.8933L24.6071 10.6821C24.2708 10.3624 23.8159 10.1661 23.3153 10.1661H20.2993C20.2819 10.2177 20.262 10.2686 20.2397 10.3185C20.1438 10.5325 20.0047 10.7236 19.833 10.8824C19.6614 11.041 19.4603 11.1645 19.2423 11.248C19.2261 11.2542 19.2099 11.2601 19.1936 11.2659C19.0495 12.4883 18.0724 13.4557 16.8454 13.5848C16.7708 13.6971 16.6431 13.7711 16.4982 13.7711H15.9049C15.6747 13.7711 15.4881 13.5846 15.4881 13.3544C15.4881 13.1242 15.6747 12.9377 15.9049 12.9377H16.4982C16.6256 12.9377 16.7397 12.9949 16.8161 13.085C17.7449 12.9769 18.4927 12.276 18.6713 11.3706C18.6339 11.3728 18.5963 11.3739 18.5588 11.3739L18.5564 11.3739L18.5321 11.3738C18.373 11.46 18.1908 11.5089 17.9971 11.5089H17.8873C17.266 11.5089 16.7623 11.0053 16.7623 10.3839V8.88348C16.7623 8.26216 17.266 7.75848 17.8873 7.75848H17.9971C18.0928 7.75848 18.1857 7.77044 18.2745 7.79294C17.9633 6.02438 16.5305 4.8241 14.9286 4.8241ZM10.1742 9.64914V9.62204C10.1761 9.48072 10.2071 9.34099 10.2656 9.21035C10.326 9.07553 10.4146 8.95304 10.5262 8.84985C10.612 8.77054 10.7101 8.70384 10.8172 8.65185L10.8394 8.64134C10.822 8.71995 10.8128 8.80165 10.8128 8.88549V10.3859C10.8128 10.4697 10.822 10.5513 10.8393 10.6298L10.8138 10.6177C10.7081 10.5659 10.6111 10.4998 10.5262 10.4213C10.4146 10.3181 10.326 10.1956 10.2656 10.0608C10.2071 9.93019 10.1761 9.79045 10.1742 9.64914ZM17.8716 8.38373C17.6027 8.39204 17.3873 8.61261 17.3873 8.88348V10.3839C17.3873 10.6534 17.6005 10.873 17.8673 10.8835L17.8716 8.38373ZM18.4958 8.84773L18.4931 10.4474C18.4957 10.4266 18.4971 10.4054 18.4971 10.3839V8.88348C18.4971 8.87146 18.4966 8.85954 18.4958 8.84773ZM19.0945 10.6324C19.1126 10.5525 19.1221 10.4693 19.1221 10.3839V8.88348C19.1221 8.80125 19.1132 8.72108 19.0965 8.64387L19.1211 8.65559C19.2269 8.70733 19.3239 8.77347 19.4088 8.85195C19.5204 8.95514 19.6089 9.07764 19.6693 9.21245C19.7297 9.34727 19.7608 9.49177 19.7608 9.63769C19.7608 9.78362 19.7297 9.92811 19.6693 10.0629C19.6089 10.1977 19.5204 10.3202 19.4088 10.4234C19.323 10.5027 19.2248 10.5694 19.1178 10.6214L19.0945 10.6324ZM11.4378 10.3859C11.4378 10.3984 11.4383 10.4107 11.4392 10.4228L11.4419 8.82139C11.4392 8.84238 11.4378 8.86377 11.4378 8.88549V10.3859ZM12.0634 10.8857C12.3322 10.8773 12.5475 10.6568 12.5475 10.386V8.88549C12.5475 8.61608 12.3345 8.39643 12.0676 8.38589L12.0634 10.8857ZM4.74463 12.0411C4.74463 11.9724 4.74833 11.9045 4.75553 11.8377L11.7732 17.8479L4.76051 23.5447C4.75003 23.4645 4.74463 23.3827 4.74463 23.2996V12.0411ZM18.0483 17.9451L25.1794 11.8377C25.1866 11.9045 25.1903 11.9724 25.1903 12.0411V23.2996C25.1903 23.3901 25.1839 23.4792 25.1715 23.5663L18.0483 17.9451ZM17.0002 18.8427L17.0807 18.7738L24.5753 24.6881C24.2424 24.9904 23.8003 25.1746 23.3153 25.1746H6.61963C6.12903 25.1746 5.68244 24.9862 5.34828 24.6777L12.7382 18.6744L12.9347 18.8427C14.1047 19.8447 15.8303 19.8447 17.0002 18.8427Z" fill="#F72F2F" stroke="#F72F2F" stroke-width="2" mask="url(#path-1-inside-1_120_6692)"/>
</svg>
