<svg width="148" height="195" viewBox="0 0 148 195" fill="none" xmlns="http://www.w3.org/2000/svg">
<path fill-rule="evenodd" clip-rule="evenodd" d="M122.5 179C155.913 179 183 136.915 183 84.9999C183 68.8989 180.395 53.7434 175.803 40.4956C184.662 56.8456 190 77.9543 190 101C190 152.915 162.913 195 129.5 195C106.45 195 86.4101 174.971 76.197 145.504C87.295 165.986 103.919 179 122.5 179Z" fill="#F7941E"/>
<path fill-rule="evenodd" clip-rule="evenodd" d="M63.5 -56.8864C31.4804 -54.4571 6 -13.3518 6 37C6 87.3518 31.4804 128.457 63.5 130.886C62.5061 130.962 61.5059 131 60.5 131C27.0868 131 0 88.9148 0 37C0 -14.9148 27.0868 -57 60.5 -57C61.5059 -57 62.5061 -56.9619 63.5 -56.8864Z" fill="#F7941E"/>
</svg>
