<svg width="243" height="203" viewBox="0 0 243 203" fill="none" xmlns="http://www.w3.org/2000/svg">
<g clip-path="url(#clip0_1_3613)">
<path d="M11.2651 192.85C14.6279 199.087 21.7651 201.764 21.7651 201.764C21.7651 201.764 23.45 194.33 20.0872 188.093C16.7243 181.857 9.58714 179.18 9.58714 179.18C9.58714 179.18 7.90223 186.614 11.2651 192.85Z" fill="#FE0000"/>
<path d="M13.5767 190.799C19.648 194.452 21.9862 201.707 21.9862 201.707C21.9862 201.707 14.4809 203.04 8.4096 199.388C2.33826 195.735 0 188.48 0 188.48C0 188.48 7.50531 187.146 13.5767 190.799Z" fill="#F7941E"/>
<path d="M149.697 9.71582H111.816V10.257H149.697V9.71582Z" fill="#F2F2F2"/>
<path d="M139.415 10.1221H138.874V15.1278H139.415V10.1221Z" fill="#F2F2F2"/>
<path d="M122.909 10.1221H122.368V15.1278H122.909V10.1221Z" fill="#F2F2F2"/>
<path d="M168.908 35.6914H131.027V36.2326H168.908V35.6914Z" fill="#F2F2F2"/>
<path d="M141.85 30.8218H141.309V35.8275H141.85V30.8218Z" fill="#F2F2F2"/>
<path d="M158.355 30.8218H157.814V35.8275H158.355V30.8218Z" fill="#F2F2F2"/>
<path d="M219.235 47.8672H181.354V48.4083H219.235V47.8672Z" fill="#F2F2F2"/>
<path d="M192.177 42.9971H191.636V48.0028H192.177V42.9971Z" fill="#F2F2F2"/>
<path d="M208.683 42.9971H208.142V48.0028H208.683V42.9971Z" fill="#F2F2F2"/>
<path d="M215.447 173.415H177.566V173.956H215.447V173.415Z" fill="#F2F2F2"/>
<path d="M188.389 168.545H187.848V173.551H188.389V168.545Z" fill="#F2F2F2"/>
<path d="M204.895 168.545H204.354V173.551H204.895V168.545Z" fill="#F2F2F2"/>
<path d="M150.779 86.5596H112.898V87.1007H150.779V86.5596Z" fill="#F2F2F2"/>
<path d="M123.721 81.6899H123.18V86.6956H123.721V81.6899Z" fill="#F2F2F2"/>
<path d="M140.227 81.6899H139.686V86.6956H140.227V81.6899Z" fill="#F2F2F2"/>
<path d="M162.685 151.769H124.804V152.31H162.685V151.769Z" fill="#F2F2F2"/>
<path d="M135.627 146.899H135.085V151.905H135.627V146.899Z" fill="#F2F2F2"/>
<path d="M152.132 146.899H151.591V151.905H152.132V146.899Z" fill="#F2F2F2"/>
<path d="M223.294 132.017H185.413V132.558H223.294V132.017Z" fill="#F2F2F2"/>
<path d="M196.236 127.147H195.695V132.153H196.236V127.147Z" fill="#F2F2F2"/>
<path d="M212.741 127.147H212.2V132.153H212.741V127.147Z" fill="#F2F2F2"/>
<path d="M97.9655 189.996H33.8965V189.535H97.5044V167.18H39.2826L36.4543 161.287L36.8699 161.088L39.5727 166.719H97.9655V189.996Z" fill="#2F2E41"/>
<path d="M42.4237 201.288C45.0967 201.288 47.2635 199.122 47.2635 196.449C47.2635 193.776 45.0967 191.609 42.4237 191.609C39.7508 191.609 37.584 193.776 37.584 196.449C37.584 199.122 39.7508 201.288 42.4237 201.288Z" fill="#3F3D56"/>
<path d="M90.1298 201.288C92.8027 201.288 94.9695 199.122 94.9695 196.449C94.9695 193.776 92.8027 191.609 90.1298 191.609C87.4569 191.609 85.29 193.776 85.29 196.449C85.29 199.122 87.4569 201.288 90.1298 201.288Z" fill="#3F3D56"/>
<path d="M146.363 96.6576C148.017 96.6576 149.359 95.3162 149.359 93.6616C149.359 92.0069 148.017 90.6655 146.363 90.6655C144.708 90.6655 143.367 92.0069 143.367 93.6616C143.367 95.3162 144.708 96.6576 146.363 96.6576Z" fill="#3F3D56"/>
<path d="M104.818 159.575H32.8038L17.2217 108.642H120.865L120.771 108.942L104.818 159.575ZM33.1448 159.114H104.48L120.237 109.103H17.8447L33.1448 159.114Z" fill="#2F2E41"/>
<path d="M99.1966 156.923H35.9442L22.2578 111.752H113.291L113.208 112.018L99.1966 156.923Z" fill="#F2F2F2"/>
<path d="M122.157 104.091L121.711 103.972L124.753 92.5083H142.445V92.9694H125.107L122.157 104.091Z" fill="#2F2E41"/>
<path d="M115.686 124.082H22.2573V124.543H115.686V124.082Z" fill="#2F2E41"/>
<path d="M110.336 141.064H27.4526V141.525H110.336V141.064Z" fill="#2F2E41"/>
<path d="M69.2725 108.872H68.8115V159.343H69.2725V108.872Z" fill="#2F2E41"/>
<path d="M89.9093 108.858L86.6006 159.328L87.0606 159.358L90.3693 108.888L89.9093 108.858Z" fill="#2F2E41"/>
<path d="M48.1846 108.857L47.7246 108.887L51.0141 159.359L51.4742 159.329L48.1846 108.857Z" fill="#2F2E41"/>
<path d="M242.438 201.581H0V202.122H242.438V201.581Z" fill="#2F2E41"/>
<path d="M161.105 16.7414C161.105 16.7414 165.06 27.9992 162.626 29.7311C160.192 31.4631 170.841 45.6074 170.841 45.6074L183.62 42.1435L176.622 30.3084C176.622 30.3084 175.71 18.4734 175.71 16.7414C175.71 15.0095 161.105 16.7414 161.105 16.7414Z" fill="#A0616A"/>
<path opacity="0.1" d="M161.105 16.7414C161.105 16.7414 165.06 27.9992 162.626 29.7311C160.192 31.4631 170.841 45.6074 170.841 45.6074L183.62 42.1435L176.622 30.3084C176.622 30.3084 175.71 18.4734 175.71 16.7414C175.71 15.0095 161.105 16.7414 161.105 16.7414Z" fill="black"/>
<path d="M154.466 96.9898C154.466 96.9898 153.311 111.423 154.466 118.928C155.62 126.433 157.352 147.217 157.352 147.217C157.352 147.217 157.352 186.474 163.703 187.052C170.053 187.629 174.672 188.206 175.249 185.897C175.827 183.588 172.363 182.433 174.095 181.278C175.827 180.124 176.404 176.083 174.095 171.464C171.785 166.845 174.095 120.083 174.095 120.083L185.064 149.526C185.064 149.526 186.218 173.773 187.373 177.237C188.528 180.701 186.218 187.052 190.26 187.629C194.301 188.206 198.919 184.742 201.229 183.588C203.538 182.433 197.765 182.433 198.919 181.856C200.074 181.278 203.538 179.546 202.383 178.969C201.229 178.392 200.074 150.68 200.074 150.68C200.074 150.68 196.899 91.5052 192.858 89.196C188.816 86.8867 186.218 90.8643 186.218 90.8643L154.466 96.9898Z" fill="#2F2E41"/>
<path d="M164.858 184.742V189.36C164.858 189.36 159.662 201.915 164.858 201.915C170.053 201.915 174.095 203.216 174.095 201.484V185.896L164.858 184.742Z" fill="#2F2E41"/>
<path d="M198.919 184.735V189.353C198.919 189.353 204.115 201.908 198.919 201.908C193.723 201.908 189.682 203.209 189.682 201.477V185.889L198.919 184.735Z" fill="#2F2E41"/>
<path d="M169.188 25.1131C174.927 25.1131 179.579 20.4605 179.579 14.7213C179.579 8.98214 174.927 4.32959 169.188 4.32959C163.448 4.32959 158.796 8.98214 158.796 14.7213C158.796 20.4605 163.448 25.1131 169.188 25.1131Z" fill="#A0616A"/>
<path d="M166.012 34.063C166.012 34.063 168.899 42.7228 173.517 40.9908L178.136 39.2589L186.218 94.6815C186.218 94.6815 179.868 103.919 170.631 98.1455C161.394 92.3723 166.012 34.063 166.012 34.063Z" fill="#FE0000"/>
<path d="M174.095 32.3293L176.693 26.8447C176.693 26.8447 191.992 34.0612 194.301 36.3705C196.61 38.6798 196.61 42.1437 196.61 42.1437L192.569 56.5767C192.569 56.5767 193.724 88.3293 193.724 89.4839C193.724 90.6385 197.765 96.9891 194.878 94.6798C191.992 92.3705 191.414 90.0612 189.105 93.5251C186.796 96.9891 181.6 101.03 181.6 101.03L174.095 32.3293Z" fill="#3F3D56"/>
<path d="M194.301 73.896L192.569 90.0609C192.569 90.0609 182.177 99.2981 184.486 99.8754C186.795 100.453 187.95 98.1434 187.95 98.1434C187.95 98.1434 191.991 102.185 194.301 99.8754C196.61 97.5661 202.383 75.628 202.383 75.628L194.301 73.896Z" fill="#A0616A"/>
<path d="M169.409 0.0351402C167.105 -0.0472155 164.64 -0.087954 162.697 1.15349C161.804 1.77652 161.02 2.54385 160.378 3.42406C158.486 5.81555 156.851 8.82459 157.554 11.7918L158.37 11.4735C158.37 12.2655 158.194 13.0476 157.855 13.7633C157.97 13.4291 158.355 13.9693 158.252 14.3074L157.353 17.2568C158.83 16.715 160.669 17.812 160.894 19.37C160.997 15.9441 161.352 12.0157 164.131 10.0098C165.533 8.99817 167.306 8.68936 169.013 8.41513C170.587 8.16214 172.237 7.9209 173.745 8.43917C175.253 8.95745 176.537 10.4996 176.196 12.057C176.891 11.8175 177.668 12.3021 178.012 12.9523C178.356 13.6024 178.374 14.3694 178.384 15.1047C179.125 15.6285 179.969 14.5884 180.271 13.7326C180.98 11.7237 181.61 9.58535 181.228 7.48956C180.846 5.39377 179.138 3.39092 177.008 3.38381C177.266 3.0998 177.404 2.72634 177.393 2.34243L175.637 2.19407C176.083 2.13096 176.492 1.91482 176.796 1.58269C176.091 2.35842 170.549 0.0758919 169.409 0.0351402Z" fill="#2F2E41"/>
<path d="M168.899 30.599C168.899 30.599 164.199 25.9935 162.507 26.2756C160.816 26.5577 158.507 30.599 158.507 30.599C158.507 30.599 144.651 35.2175 145.228 39.8361C145.806 44.4547 152.156 66.9701 152.156 66.9701C152.156 66.9701 157.352 94.1041 152.734 96.9907C148.115 99.8773 174.672 107.382 175.249 103.919C175.826 100.455 176.981 65.8155 175.249 60.6196C173.517 55.4237 168.899 30.599 168.899 30.599Z" fill="#3F3D56"/>
<path d="M189.105 39.835H196.244C196.244 39.835 201.229 61.7731 201.806 64.0824C202.383 66.3917 203.538 77.3607 202.961 77.3607C202.383 77.3607 190.837 75.0515 190.837 76.7834L189.105 39.835Z" fill="#3F3D56"/>
<path d="M188.863 94.161H161.535C158.868 81.893 158.645 70.04 161.535 58.7153H188.863C184.453 69.8363 184.177 81.6081 188.863 94.161Z" fill="#F2F2F2"/>
<path d="M150.424 79.0926L158.507 82.5565C158.507 82.5565 174.094 84.8658 174.094 78.5153C174.094 72.1648 158.507 75.6287 158.507 75.6287L153.311 73.9673L150.424 79.0926Z" fill="#A0616A"/>
<path d="M152.157 36.3721L145.229 38.104L140.033 68.702C140.033 68.702 138.301 76.7844 141.188 77.3618C144.074 77.9391 152.157 82.5577 152.157 82.5577C152.157 82.5577 153.311 73.8979 155.62 73.8979L149.847 69.2793L153.311 49.0731L152.157 36.3721Z" fill="#3F3D56"/>
<path d="M54.1826 95.4897H16.3018V96.0309H54.1826V95.4897Z" fill="#F2F2F2"/>
<path d="M27.1251 90.6187H26.584V95.6243H27.1251V90.6187Z" fill="#F2F2F2"/>
<path d="M43.6305 90.6187H43.0894V95.6243H43.6305V90.6187Z" fill="#F2F2F2"/>
<path d="M67.4409 15.3979H29.5601V15.9391H67.4409V15.3979Z" fill="#F2F2F2"/>
<path d="M57.1593 15.8037H56.6182V20.8094H57.1593V15.8037Z" fill="#F2F2F2"/>
<path d="M40.6539 15.8037H40.1128V20.8094H40.6539V15.8037Z" fill="#F2F2F2"/>
<path d="M105.593 68.7021H67.7119V69.2433H105.593V68.7021Z" fill="#F2F2F2"/>
<path d="M95.3107 69.1079H94.7695V74.1136H95.3107V69.1079Z" fill="#F2F2F2"/>
<path d="M78.8053 69.1079H78.2642V74.1136H78.8053V69.1079Z" fill="#F2F2F2"/>
<path d="M41.1953 68.4316H3.31445V68.9728H41.1953V68.4316Z" fill="#F2F2F2"/>
<path d="M30.9132 68.8374H30.3721V73.8431H30.9132V68.8374Z" fill="#F2F2F2"/>
<path d="M14.4079 68.8374H13.8667V73.8431H14.4079V68.8374Z" fill="#F2F2F2"/>
<path d="M86.6524 41.3735H48.7715V41.9147H86.6524V41.3735Z" fill="#F2F2F2"/>
<path d="M59.5944 36.5034H59.0532V41.5091H59.5944V36.5034Z" fill="#F2F2F2"/>
<path d="M76.0997 36.5034H75.5586V41.5091H76.0997V36.5034Z" fill="#F2F2F2"/>
</g>
<defs>
<clipPath id="clip0_1_3613">
<rect width="242.438" height="202.384" fill="white"/>
</clipPath>
</defs>
</svg>
