<svg width="35" height="35" viewBox="0 0 35 35" fill="none" xmlns="http://www.w3.org/2000/svg">
<path d="M6.72153 4.13285H9.22462V19.6309H6.72153V4.13285Z" fill="#F5F5F5"/>
<path d="M11.2272 2.32474H13.7303V19.1143H11.2272V2.32474Z" fill="#F5F5F5"/>
<path d="M15.7327 0H18.2358V16.7896H15.7327V0Z" fill="#F5F5F5"/>
<path d="M20.2382 2.32474H22.7413V19.1143H20.2382V2.32474Z" fill="#F5F5F5"/>
<path d="M24.7438 4.13285H27.2469V20.9224H24.7438V4.13285Z" fill="#F5F5F5"/>
<path fill-rule="evenodd" clip-rule="evenodd" d="M8.73462 4.63285H7.21153V19.1309H8.73462V4.63285ZM13.2403 2.82474H11.7172V18.6143H13.2403V2.82474ZM17.7458 0.5H16.2227V16.2896H17.7458V0.5ZM22.2513 2.82474H20.7282V18.6143H22.2513V2.82474ZM26.7569 4.63285H25.2338V20.4224H26.7569V4.63285ZM15.7327 0V16.7896H18.2358V0H15.7327ZM13.7303 2.32474V19.1143H11.2272V2.32474H13.7303ZM9.22462 4.13285V19.6309H6.72153V4.13285H9.22462ZM22.7413 2.32474V19.1143H20.2382V2.32474H22.7413ZM24.7438 4.13285V20.9224H27.2469V4.13285H24.7438Z" fill="#111111"/>
<path d="M29.75 12.3987C29.75 12.3987 7.84795 9.94482 5.59517 12.3987C3.34238 14.8525 12.8541 35 12.8541 35H25.2444L29.75 12.3987Z" fill="#111111"/>
</svg>
