<svg width="35" height="35" viewBox="0 0 35 35" fill="none" xmlns="http://www.w3.org/2000/svg">
<g clip-path="url(#clip0_1408_4838)">
<path d="M24.7917 32.0833C27.2125 32.0833 29.1667 30.1292 29.1667 27.7083C29.1667 25.2875 27.2125 23.3333 24.7917 23.3333C22.8958 23.3333 21.2917 24.5583 20.6792 26.25H13.3292L16.2312 21.7875C16.6542 21.8458 17.0771 21.875 17.5 21.875C17.9229 21.875 18.3458 21.8458 18.7687 21.7875L20.2562 24.0771C20.8687 23.3042 21.6562 22.6917 22.5896 22.3125L21.7146 20.9562C25.2437 19.3521 27.7083 15.8083 27.7083 11.6667H7.29166C7.29166 15.8083 9.75624 19.3521 13.3 20.9562L7.53957 29.8229C7.10207 30.4937 7.29166 31.3979 7.96249 31.8354C8.63332 32.2729 9.53749 32.0833 9.97499 31.4125L11.4333 29.1521H20.6792C21.2917 30.8583 22.8958 32.0833 24.7917 32.0833ZM24.7917 26.25C25.5937 26.25 26.25 26.9062 26.25 27.7083C26.25 28.5104 25.5937 29.1667 24.7917 29.1667C23.9896 29.1667 23.3333 28.5104 23.3333 27.7083C23.3333 26.9062 23.9896 26.25 24.7917 26.25Z" fill="#111111"/>
<path d="M13.7229 10.2083H15.1813C15.4 8.53124 15.5167 7.81666 13.8833 5.89166C13.2708 5.16249 12.8917 4.76874 13.2125 2.91666H11.7687C11.4625 4.53541 11.8125 5.90624 13.0667 7.23332C13.3875 7.58332 14.2188 8.21041 13.7229 10.2083Z" fill="#111111"/>
<path d="M17.3395 10.2083H18.7979C19.0166 8.53124 19.1333 7.81666 17.4999 5.89166C16.8874 5.16249 16.5083 4.75416 16.8291 2.91666H15.3854C15.0791 4.53541 15.4291 5.90624 16.6833 7.23332C17.0187 7.58332 17.8499 8.21041 17.3395 10.2083Z" fill="#111111"/>
<path d="M21.0145 10.2083H22.4729C22.6916 8.53124 22.8083 7.81666 21.175 5.89166C20.5625 5.16249 20.1833 4.76874 20.5041 2.91666H19.0604C18.7541 4.53541 19.1041 5.90624 20.3583 7.23332C20.6791 7.58332 21.5104 8.21041 21.0145 10.2083Z" fill="#111111"/>
</g>
<defs>
<clipPath id="clip0_1408_4838">
<rect width="35" height="35" fill="white"/>
</clipPath>
</defs>
</svg>
