<svg width="56" height="56" viewBox="0 0 56 56" fill="none" xmlns="http://www.w3.org/2000/svg">
<rect x="2.5" y="2.5" width="51.85" height="51.85" rx="25.925" fill="#F5F5F5"/>
<rect x="2.5" y="2.5" width="51.85" height="51.85" rx="25.925" stroke="#F72F2F"/>
<g clip-path="url(#clip0_1408_4836)">
<path d="M35.4569 42.9442C37.9427 42.9442 39.9493 40.9376 39.9493 38.4518C39.9493 35.966 37.9427 33.9594 35.4569 33.9594C33.5102 33.9594 31.863 35.2173 31.234 36.9544H23.6868L26.6668 32.3721C27.101 32.432 27.5353 32.462 27.9696 32.462C28.4038 32.462 28.8381 32.432 29.2724 32.3721L30.7998 34.7231C31.4287 33.9295 32.2373 33.3005 33.1957 32.9112L32.2972 31.5186C35.9211 29.8713 38.4518 26.2325 38.4518 21.9797H17.4873C17.4873 26.2325 20.018 29.8713 23.6569 31.5186L17.7419 40.6231C17.2926 41.312 17.4873 42.2404 18.1761 42.6896C18.865 43.1389 19.7934 42.9442 20.2426 42.2554L21.7401 39.9343H31.234C31.863 41.6863 33.5102 42.9442 35.4569 42.9442ZM35.4569 36.9544C36.2805 36.9544 36.9544 37.6282 36.9544 38.4518C36.9544 39.2754 36.2805 39.9493 35.4569 39.9493C34.6333 39.9493 33.9594 39.2754 33.9594 38.4518C33.9594 37.6282 34.6333 36.9544 35.4569 36.9544Z" fill="#111111"/>
<path d="M24.0912 20.4822H25.5886C25.8133 18.7602 25.9331 18.0264 24.2559 16.0497C23.627 15.301 23.2376 14.8967 23.5671 12.9949H22.0846C21.7701 14.6571 22.1295 16.0647 23.4173 17.4274C23.7468 17.7868 24.6003 18.4307 24.0912 20.4822Z" fill="#111111"/>
<path d="M27.8048 20.4822H29.3023C29.5269 18.7602 29.6467 18.0264 27.9695 16.0497C27.3406 15.301 26.9512 14.8817 27.2807 12.9949H25.7982C25.4837 14.6571 25.8431 16.0647 27.1309 17.4274C27.4753 17.7868 28.3289 18.4307 27.8048 20.4822Z" fill="#111111"/>
<path d="M31.5784 20.4822H33.0759C33.3005 18.7602 33.4203 18.0264 31.7432 16.0497C31.1142 15.301 30.7249 14.8967 31.0543 12.9949H29.5718C29.2574 14.6571 29.6168 16.0647 30.9046 17.4274C31.234 17.7868 32.0876 18.4307 31.5784 20.4822Z" fill="#111111"/>
</g>
<defs>
<clipPath id="clip0_1408_4836">
<rect width="35.9392" height="35.9392" fill="white" transform="translate(10 10)"/>
</clipPath>
</defs>
</svg>
