<svg width="23" height="30" viewBox="0 0 23 30" fill="none" xmlns="http://www.w3.org/2000/svg">
<path d="M18.4569 29.9442C20.9427 29.9442 22.9493 27.9376 22.9493 25.4519C22.9493 22.9661 20.9427 20.9595 18.4569 20.9595C16.5102 20.9595 14.863 22.2173 14.234 23.9544H6.68681L9.66677 19.3721C10.101 19.432 10.5353 19.462 10.9696 19.462C11.4038 19.462 11.8381 19.432 12.2724 19.3721L13.7998 21.7232C14.4287 20.9295 15.2373 20.3006 16.1957 19.9112L15.2972 18.5186C18.9211 16.8714 21.4518 13.2325 21.4518 8.97974H0.487305C0.487305 13.2325 3.01802 16.8714 6.65686 18.5186L0.741874 27.6232C0.292634 28.312 0.487305 29.2404 1.17614 29.6897C1.86497 30.1389 2.7934 29.9442 3.24264 29.2554L4.74011 26.9343H14.234C14.863 28.6864 16.5102 29.9442 18.4569 29.9442ZM18.4569 23.9544C19.2805 23.9544 19.9544 24.6282 19.9544 25.4519C19.9544 26.2755 19.2805 26.9493 18.4569 26.9493C17.6333 26.9493 16.9594 26.2755 16.9594 25.4519C16.9594 24.6282 17.6333 23.9544 18.4569 23.9544Z" fill="#111111"/>
<path d="M7.09117 7.48226H8.58863C8.81325 5.76018 8.93305 5.02642 7.25589 3.04976C6.62696 2.30103 6.23761 1.89671 6.56706 -0.00506592H5.08457C4.7701 1.65712 5.12949 3.06474 6.41731 4.42743C6.74675 4.78682 7.60031 5.43073 7.09117 7.48226Z" fill="#111111"/>
<path d="M10.8048 7.48226H12.3023C12.5269 5.76018 12.6467 5.02642 10.9695 3.04976C10.3406 2.30103 9.95124 1.88174 10.2807 -0.00506592H8.79819C8.48372 1.65712 8.84311 3.06474 10.1309 4.42743C10.4753 4.78682 11.3289 5.43073 10.8048 7.48226Z" fill="#111111"/>
<path d="M14.5784 7.48226H16.0759C16.3005 5.76018 16.4203 5.02642 14.7432 3.04976C14.1142 2.30103 13.7249 1.89671 14.0543 -0.00506592H12.5718C12.2574 1.65712 12.6168 3.06474 13.9046 4.42743C14.234 4.78682 15.0876 5.43073 14.5784 7.48226Z" fill="#111111"/>
</svg>
