<svg width="20" height="20" viewBox="0 0 20 20" fill="none" xmlns="http://www.w3.org/2000/svg">
<g clip-path="url(#clip0_1_6875)">
<path d="M1.71875 19.375H18.2812C18.8818 19.375 19.375 18.9607 19.375 18.4501V9.58147C19.375 9.07087 18.8867 8.66071 18.2812 8.66071H17.2266V7.36747C17.2266 5.63058 16.4355 3.70117 15.1465 2.53767C13.8623 1.37416 12.0215 0.625 10.0049 0.625H10H9.99512C7.97852 0.625 6.1377 1.37416 4.85352 2.53348C3.56445 3.69699 2.77344 5.6264 2.77344 7.36328V8.66071H1.71875C1.11328 8.66071 0.625 9.07506 0.625 9.58147V18.4501C0.625 18.9607 1.11328 19.375 1.71875 19.375ZM5.36133 7.36747C5.36133 6.22489 5.84473 4.81027 6.7334 4.0067V3.99414C7.59277 3.21568 8.7793 2.75949 9.99512 2.75949H10.0049C11.2207 2.75949 12.4072 3.21568 13.2666 3.99414V4.00251L13.2617 4.0067C14.1553 4.81027 14.6338 6.22489 14.6338 7.36747V8.66071H5.36133V7.36747Z" fill="#333333" fill-opacity="0.63"/>
</g>
<defs>
<clipPath id="clip0_1_6875">
<rect width="20" height="20" fill="white"/>
</clipPath>
</defs>
</svg>
