<svg width="300" height="300" viewBox="0 0 300 300" fill="none" xmlns="http://www.w3.org/2000/svg">
<g clip-path="url(#clip0_2437_16615)">
<rect width="300" height="300" fill="white"/>
<path d="M190.299 170.21L60.6197 201.245C56.2208 202.293 51.5543 201.677 47.644 199.531C43.7337 197.385 40.8989 193.886 39.7615 189.8L0.543136 48.2584C-0.584326 44.1702 0.079122 39.8333 2.38794 36.1992C4.69675 32.565 8.46238 29.9304 12.8587 28.8733L133.504 0L164.383 12.8474L202.614 150.825C203.742 154.913 203.078 159.25 200.77 162.884C198.461 166.518 194.695 169.153 190.299 170.21Z" fill="#F2F2F2"/>
<path d="M14.0882 33.3115C10.9575 34.0643 8.27594 35.9404 6.63178 38.5284C4.98762 41.1163 4.51517 44.2047 5.31806 47.116L44.5364 188.657C45.3464 191.567 47.3651 194.059 50.1497 195.587C52.9344 197.115 56.2574 197.554 59.39 196.808L189.069 165.773C192.2 165.02 194.881 163.144 196.526 160.556C198.17 157.968 198.642 154.88 197.839 151.968L160.201 16.1285L133.063 4.83789L14.0882 33.3115Z" fill="white"/>
<path d="M164.054 13.578L143.984 18.3811C142.519 18.7318 140.964 18.5272 139.661 17.8123C138.359 17.0974 137.415 15.9308 137.037 14.5691L133.22 0.792886C133.204 0.732573 133.205 0.669104 133.226 0.609758C133.246 0.550412 133.284 0.497592 133.335 0.457353C133.386 0.417114 133.449 0.391086 133.515 0.382255C133.581 0.373424 133.649 0.382145 133.71 0.40742L164.11 12.9543C164.177 12.9822 164.234 13.029 164.272 13.0882C164.309 13.1474 164.326 13.216 164.32 13.2846C164.314 13.3531 164.285 13.4182 164.237 13.4708C164.19 13.5234 164.126 13.5608 164.054 13.578Z" fill="#F2F2F2"/>
<path d="M153.495 134.451L94.4543 148.581C94.0916 148.668 93.714 148.688 93.3431 148.639C92.9723 148.59 92.6154 148.474 92.2928 148.297C91.9703 148.12 91.6884 147.886 91.4633 147.607C91.2382 147.329 91.0743 147.012 90.9809 146.675C90.8874 146.338 90.8664 145.987 90.9189 145.643C90.9714 145.298 91.0965 144.966 91.2869 144.666C91.4774 144.367 91.7295 144.105 92.0288 143.896C92.3282 143.686 92.669 143.534 93.0317 143.447L152.073 129.317C152.436 129.23 152.813 129.211 153.184 129.26C153.555 129.308 153.912 129.425 154.234 129.602C154.557 129.779 154.839 130.013 155.064 130.291C155.289 130.569 155.453 130.886 155.546 131.223C155.64 131.56 155.661 131.911 155.608 132.256C155.556 132.601 155.431 132.932 155.24 133.232C155.05 133.532 154.798 133.794 154.498 134.003C154.199 134.212 153.858 134.364 153.495 134.451Z" fill="#CCCCCC"/>
<path d="M167.29 140.388L96.8549 157.245C96.1223 157.42 95.3448 157.318 94.6934 156.961C94.042 156.603 93.5701 156.02 93.3814 155.339C93.1928 154.658 93.3029 153.936 93.6875 153.33C94.0721 152.725 94.6997 152.286 95.4323 152.111L165.867 135.254C166.6 135.079 167.377 135.182 168.027 135.54C168.678 135.897 169.15 136.48 169.338 137.161C169.527 137.841 169.417 138.563 169.033 139.168C168.649 139.774 168.022 140.212 167.29 140.388Z" fill="#CCCCCC"/>
<path d="M70.0692 146.881C64.6158 146.881 60.2076 150.99 60.2076 156.074C60.2076 161.158 64.6158 165.268 70.0692 165.268C75.5227 165.268 79.9308 161.158 79.9308 156.074C79.9308 150.99 75.5227 146.881 70.0692 146.881ZM75 159.375L73.6095 160.671L70.0692 157.371L66.5289 160.671L65.1384 159.375L68.6787 156.074L65.1384 152.774L66.5289 151.478L70.0692 154.778L73.6095 151.478L75 152.774L71.4597 156.074L75 159.375Z" fill="#F72F2F"/>
<path d="M147.218 109.931L68.8051 128.69C66.539 129.23 64.1351 128.912 62.1208 127.806C60.1065 126.701 58.6463 124.898 58.0606 122.793L41.6282 63.4655C41.0476 61.3594 41.3896 59.1253 42.5792 57.2533C43.7688 55.3812 45.7088 54.0242 47.9736 53.4798L126.386 34.7208C128.652 34.1812 131.056 34.499 133.07 35.6046C135.085 36.7101 136.545 38.5131 137.131 40.618L153.563 99.9452C154.144 102.051 153.802 104.285 152.612 106.157C151.422 108.03 149.482 109.387 147.218 109.931Z" fill="white"/>
<path d="M147.218 109.931L68.8051 128.69C66.539 129.23 64.1351 128.912 62.1208 127.806C60.1065 126.701 58.6463 124.898 58.0606 122.793L41.6282 63.4655C41.0476 61.3594 41.3896 59.1253 42.5792 57.2533C43.7688 55.3812 45.7088 54.0242 47.9736 53.4798L126.386 34.7208C128.652 34.1812 131.056 34.499 133.07 35.6046C135.085 36.7101 136.545 38.5131 137.131 40.618L153.563 99.9452C154.144 102.051 153.802 104.285 152.612 106.157C151.422 108.03 149.482 109.387 147.218 109.931ZM48.2324 54.4141C46.234 54.8944 44.5222 56.0918 43.4726 57.7436C42.423 59.3954 42.1212 61.3667 42.6335 63.225L59.0659 122.552C59.5827 124.41 60.8711 126 62.6484 126.976C64.4257 127.951 66.5468 128.232 68.5464 127.756L146.959 108.997C148.957 108.516 150.669 107.319 151.719 105.667C152.768 104.015 153.07 102.044 152.558 100.186L136.125 40.8585C135.608 39.0012 134.32 37.4104 132.543 36.4349C130.765 35.4594 128.644 35.1789 126.645 35.6551L48.2324 54.4141Z" fill="#E6E6E6"/>
<path d="M122.408 54.6691L82.8343 64.1366C82.4884 64.2264 82.1186 64.1907 81.7999 64.0368C81.4811 63.8829 81.2371 63.6223 81.1171 63.3076C81.0613 63.1432 81.0421 62.97 81.0607 62.7985C81.0793 62.627 81.1353 62.4608 81.2253 62.3101C81.3153 62.1593 81.4374 62.0272 81.5841 61.9218C81.7309 61.8164 81.8992 61.7398 82.0788 61.6968L122.362 52.0596C123.99 52.8259 123.562 54.3931 122.408 54.6691Z" fill="#F2F2F2"/>
<path d="M124.195 61.1203L84.6212 70.5878C84.2752 70.6775 83.9055 70.6419 83.5867 70.488C83.2679 70.3341 83.0239 70.0735 82.904 69.7588C82.8482 69.5944 82.829 69.4212 82.8476 69.2496C82.8662 69.0781 82.9222 68.912 83.0122 68.7612C83.1022 68.6105 83.2242 68.4784 83.371 68.3729C83.5177 68.2675 83.686 68.191 83.8657 68.148L124.149 58.5107C125.777 59.277 125.349 60.8443 124.195 61.1203Z" fill="#F2F2F2"/>
<path d="M77.0836 76.307L65.0061 79.1964C64.6117 79.2904 64.1932 79.2351 63.8426 79.0426C63.492 78.8502 63.2378 78.5363 63.1359 78.1699L59.4671 64.9241C59.366 64.5575 59.4255 64.1686 59.6326 63.8428C59.8396 63.5169 60.1773 63.2807 60.5716 63.186L72.6491 60.2966C73.0435 60.2028 73.4619 60.2581 73.8125 60.4506C74.1631 60.643 74.4173 60.9567 74.5193 61.3231L78.1881 74.5689C78.2892 74.9355 78.2297 75.3244 78.0226 75.6503C77.8156 75.9761 77.4779 76.2123 77.0836 76.307Z" fill="#E6E6E6"/>
<path d="M127.738 74.3568L67.3416 88.8058C66.9956 88.8956 66.6259 88.8599 66.3071 88.706C65.9883 88.5521 65.7443 88.2915 65.6244 87.9769C65.5686 87.8125 65.5494 87.6392 65.568 87.4677C65.5866 87.2962 65.6426 87.13 65.7326 86.9793C65.8226 86.8286 65.9447 86.6965 66.0914 86.591C66.2381 86.4856 66.4064 86.4091 66.5861 86.3661L127.693 71.7471C129.32 72.5134 128.892 74.0807 127.738 74.3568Z" fill="#F2F2F2"/>
<path d="M129.526 80.8099L69.129 95.2589C68.783 95.3487 68.4133 95.313 68.0945 95.1591C67.7758 95.0053 67.5317 94.7446 67.4118 94.43C67.356 94.2656 67.3368 94.0923 67.3554 93.9208C67.374 93.7493 67.43 93.5831 67.52 93.4324C67.61 93.2817 67.7321 93.1496 67.8788 93.0441C68.0256 92.9387 68.1939 92.8622 68.3735 92.8192L129.481 78.2002C131.108 78.9665 130.68 80.5338 129.526 80.8099Z" fill="#F2F2F2"/>
<path d="M131.312 87.2591L70.9152 101.708C70.5692 101.798 70.1995 101.762 69.8807 101.608C69.5619 101.454 69.3179 101.194 69.198 100.879C69.1422 100.715 69.123 100.542 69.1416 100.37C69.1602 100.199 69.2162 100.032 69.3062 99.8816C69.3962 99.7309 69.5183 99.5988 69.665 99.4934C69.8117 99.3879 69.9801 99.3114 70.1597 99.2684L131.267 84.6494C132.894 85.4157 132.466 86.983 131.312 87.2591Z" fill="#F2F2F2"/>
<path d="M133.099 93.7112L72.7024 108.16C72.3565 108.25 71.9867 108.214 71.668 108.061C71.3492 107.907 71.1052 107.646 70.9852 107.331C70.9294 107.167 70.9102 106.994 70.9288 106.822C70.9474 106.651 71.0034 106.484 71.0934 106.334C71.1834 106.183 71.3055 106.051 71.4522 105.945C71.599 105.84 71.7673 105.764 71.9469 105.721L133.054 91.1016C134.681 91.8679 134.253 93.4352 133.099 93.7112Z" fill="#F2F2F2"/>
<path d="M134.886 100.16L74.4887 114.61C74.1428 114.699 73.773 114.664 73.4543 114.51C73.1355 114.356 72.8915 114.095 72.7715 113.781C72.7157 113.616 72.6965 113.443 72.7151 113.271C72.7337 113.1 72.7897 112.934 72.8797 112.783C72.9697 112.632 73.0918 112.5 73.2385 112.395C73.3853 112.289 73.5536 112.213 73.7332 112.17L134.84 97.5508C136.468 98.3171 136.039 99.8844 134.886 100.16Z" fill="#F2F2F2"/>
<path d="M240.039 224.148H106.129C101.588 224.143 97.2341 222.464 94.0231 219.48C90.8121 216.496 89.0059 212.45 89.0008 208.23V62.0706C89.0059 57.8503 90.8121 53.8042 94.0231 50.82C97.2341 47.8357 101.588 46.1571 106.129 46.1523H230.71L257.166 65.7506V208.23C257.161 212.45 255.355 216.496 252.144 219.48C248.933 222.464 244.58 224.143 240.039 224.148Z" fill="#E6E6E6"/>
<path d="M106.129 50.7344C102.895 50.7378 99.7947 51.9332 97.508 54.0583C95.2214 56.1834 93.9352 59.0647 93.9315 62.0701V208.229C93.9352 211.234 95.2214 214.116 97.508 216.241C99.7947 218.366 102.895 219.561 106.129 219.565H240.038C243.272 219.561 246.373 218.366 248.659 216.241C250.946 214.116 252.232 211.234 252.236 208.229V67.9578L228.985 50.7344H106.129Z" fill="white"/>
<path d="M213.993 93.2343H153.026C152.269 93.2343 151.544 92.955 151.009 92.4579C150.474 91.9607 150.174 91.2865 150.174 90.5834C150.174 89.8804 150.474 89.2061 151.009 88.709C151.544 88.2119 152.269 87.9326 153.026 87.9326H213.993C214.75 87.9326 215.475 88.2119 216.01 88.709C216.545 89.2061 216.845 89.8804 216.845 90.5834C216.845 91.2865 216.545 91.9607 216.01 92.4579C215.475 92.955 214.75 93.2343 213.993 93.2343Z" fill="#F72F2F"/>
<path d="M225.759 102.181H153.026C152.27 102.18 151.545 101.9 151.011 101.403C150.477 100.906 150.177 100.232 150.177 99.5297C150.177 98.8273 150.477 98.1536 151.011 97.6566C151.545 97.1595 152.27 96.8799 153.026 96.8789H225.759C226.133 96.8784 226.505 96.9467 226.851 97.0797C227.198 97.2127 227.513 97.4079 227.778 97.654C228.043 97.9002 228.254 98.1926 228.397 98.5145C228.541 98.8363 228.615 99.1813 228.615 99.5297C228.615 99.8781 228.541 100.223 228.397 100.545C228.254 100.867 228.043 101.159 227.778 101.405C227.513 101.652 227.198 101.847 226.851 101.98C226.505 102.113 226.133 102.181 225.759 102.181Z" fill="#F72F2F"/>
<path d="M213.993 128.024H153.028C152.272 128.024 151.546 128.304 151.011 128.801C150.477 129.298 150.176 129.972 150.176 130.675C150.176 131.378 150.477 132.052 151.011 132.549C151.546 133.046 152.272 133.326 153.028 133.326H213.993C214.75 133.326 215.475 133.046 216.01 132.549C216.545 132.052 216.845 131.378 216.845 130.675C216.845 129.972 216.545 129.298 216.01 128.801C215.475 128.304 214.75 128.024 213.993 128.024Z" fill="#CCCCCC"/>
<path d="M225.76 136.973H153.028C152.272 136.973 151.546 137.252 151.011 137.749C150.477 138.246 150.176 138.92 150.176 139.623C150.176 140.326 150.477 141 151.011 141.498C151.546 141.995 152.272 142.274 153.028 142.274H225.76C226.516 142.274 227.242 141.995 227.776 141.498C228.311 141 228.612 140.326 228.612 139.623C228.612 138.92 228.311 138.246 227.776 137.749C227.242 137.252 226.516 136.973 225.76 136.973Z" fill="#CCCCCC"/>
<path d="M213.993 173.421H153.026C152.269 173.421 151.544 173.141 151.009 172.644C150.474 172.147 150.174 171.473 150.174 170.77C150.174 170.067 150.474 169.393 151.009 168.896C151.544 168.398 152.269 168.119 153.026 168.119H213.993C214.75 168.119 215.475 168.398 216.01 168.896C216.545 169.393 216.845 170.067 216.845 170.77C216.845 171.473 216.545 172.147 216.01 172.644C215.475 173.141 214.75 173.421 213.993 173.421Z" fill="#CCCCCC"/>
<path d="M225.759 182.368H153.026C152.27 182.367 151.545 182.087 151.011 181.59C150.477 181.093 150.177 180.42 150.177 179.717C150.177 179.015 150.477 178.341 151.011 177.844C151.545 177.347 152.27 177.067 153.026 177.066H225.759C226.133 177.066 226.505 177.134 226.851 177.267C227.198 177.4 227.513 177.595 227.778 177.842C228.043 178.088 228.254 178.38 228.397 178.702C228.541 179.024 228.615 179.369 228.615 179.717C228.615 180.066 228.541 180.411 228.397 180.732C228.254 181.054 228.043 181.347 227.778 181.593C227.513 181.839 227.198 182.034 226.851 182.167C226.505 182.3 226.133 182.369 225.759 182.368Z" fill="#CCCCCC"/>
<path d="M127.163 85.9131C121.709 85.9131 117.301 90.0226 117.301 95.1066C117.301 100.191 121.709 104.3 127.163 104.3C132.616 104.3 137.024 100.191 137.024 95.1066C137.024 90.0226 132.616 85.9131 127.163 85.9131ZM132.093 98.4071L130.703 99.7034L127.163 96.4029L123.622 99.7034L122.232 98.4071L125.772 95.1066L122.232 91.8062L123.622 90.5099L127.163 93.8103L130.703 90.5099L132.093 91.8062L128.553 95.1066L132.093 98.4071Z" fill="#F72F2F"/>
<path d="M138.755 135.149C138.755 136.379 138.495 137.598 137.989 138.735C137.482 139.872 136.74 140.905 135.804 141.775C134.868 142.646 133.757 143.336 132.534 143.807C131.31 144.278 129.999 144.521 128.675 144.521C128.589 144.523 128.502 144.52 128.416 144.512C126.434 144.464 124.51 143.875 122.887 142.817C121.263 141.759 120.012 140.279 119.288 138.563C118.565 136.848 118.402 134.972 118.82 133.17C119.238 131.369 120.219 129.722 121.639 128.436C123.059 127.15 124.856 126.282 126.805 125.94C128.753 125.598 130.767 125.798 132.594 126.514C134.42 127.231 135.979 128.432 137.075 129.968C138.171 131.504 138.755 133.306 138.755 135.149Z" fill="#CCCCCC"/>
<path d="M127.638 184.613C133.205 184.613 137.719 180.419 137.719 175.244C137.719 170.07 133.205 165.875 127.638 165.875C122.07 165.875 117.556 170.07 117.556 175.244C117.556 180.419 122.07 184.613 127.638 184.613Z" fill="#CCCCCC"/>
<path d="M256.651 66.3811H235.927C234.414 66.3811 232.963 65.8226 231.893 64.8283C230.824 63.8341 230.223 62.4856 230.223 61.0795V46.8538C230.223 46.7915 230.241 46.7305 230.277 46.6778C230.313 46.625 230.364 46.5826 230.424 46.5555C230.484 46.5284 230.552 46.5176 230.618 46.5245C230.685 46.5313 230.748 46.5554 230.801 46.5941L256.873 65.79C256.931 65.8328 256.973 65.8912 256.994 65.9573C257.015 66.0233 257.013 66.0937 256.988 66.1587C256.964 66.2237 256.918 66.28 256.858 66.3199C256.798 66.3597 256.726 66.3811 256.651 66.3811Z" fill="#CCCCCC"/>
<path d="M138.755 135.149C138.755 136.379 138.495 137.598 137.989 138.735C137.482 139.872 136.74 140.905 135.804 141.775C134.868 142.646 133.757 143.336 132.534 143.807C131.31 144.278 129.999 144.521 128.675 144.521C128.589 144.523 128.502 144.519 128.416 144.511C127.113 141.492 126.611 138.227 126.952 134.989C127.292 131.752 128.466 128.639 130.373 125.911C132.718 126.285 134.845 127.417 136.379 129.107C137.913 130.797 138.754 132.937 138.755 135.149Z" fill="#F72F2F"/>
<path d="M150.174 130.677C150.175 129.974 150.476 129.3 151.011 128.803C151.546 128.306 152.272 128.026 153.028 128.024H168.22C169.108 129.702 169.738 131.486 170.094 133.326H153.028C152.272 133.326 151.547 133.047 151.012 132.55C150.476 132.054 150.175 131.38 150.174 130.677Z" fill="#F72F2F"/>
<path d="M170.447 136.973C170.448 138.763 170.193 140.546 169.689 142.274H153.028C152.272 142.274 151.546 141.995 151.011 141.498C150.477 141 150.176 140.326 150.176 139.623C150.176 138.92 150.477 138.246 151.011 137.749C151.546 137.252 152.272 136.973 153.028 136.973H170.447Z" fill="#F72F2F"/>
<path d="M208.036 169.667C207.606 170.322 206.913 170.792 206.11 170.972C205.308 171.153 204.461 171.03 203.756 170.631L167.421 150.033C167.072 149.835 166.768 149.575 166.527 149.268C166.286 148.961 166.112 148.613 166.016 148.244C165.92 147.874 165.903 147.491 165.966 147.115C166.029 146.74 166.171 146.38 166.384 146.055C166.597 145.731 166.877 145.448 167.207 145.224C167.537 145 167.912 144.839 168.309 144.749C168.707 144.66 169.119 144.644 169.523 144.703C169.927 144.761 170.315 144.893 170.664 145.091L206.999 165.689C207.704 166.089 208.209 166.732 208.404 167.478C208.598 168.224 208.466 169.011 208.036 169.667Z" fill="#3F3D56"/>
<path d="M171.701 149.069C169.135 152.979 165.38 156.093 160.909 158.019C156.439 159.945 151.454 160.596 146.586 159.889C141.717 159.182 137.184 157.149 133.559 154.047C129.934 150.946 127.379 146.915 126.219 142.464C125.059 138.013 125.345 133.343 127.041 129.043C128.737 124.744 131.766 121.008 135.747 118.309C139.727 115.609 144.479 114.067 149.403 113.878C154.326 113.689 159.199 114.861 163.405 117.245C169.041 120.448 173.079 125.597 174.634 131.563C176.189 137.529 175.134 143.825 171.701 149.069ZM134.48 127.97C132.556 130.902 131.61 134.298 131.763 137.73C131.916 141.162 133.16 144.474 135.338 147.248C137.517 150.023 140.531 152.135 144.001 153.317C147.471 154.499 151.24 154.698 154.832 153.889C158.423 153.081 161.676 151.3 164.179 148.774C166.682 146.247 168.323 143.087 168.893 139.693C169.464 136.3 168.939 132.826 167.385 129.71C165.831 126.593 163.317 123.976 160.162 122.187C155.93 119.794 150.849 119.059 146.035 120.143C141.22 121.227 137.065 124.042 134.48 127.97Z" fill="#3F3D56"/>
<path d="M251.524 140.724C258.564 140.724 264.271 135.42 264.271 128.877C264.271 122.334 258.564 117.029 251.524 117.029C244.483 117.029 238.776 122.334 238.776 128.877C238.776 135.42 244.483 140.724 251.524 140.724Z" fill="#A0616A"/>
<path d="M250.7 195.295C250.454 194.583 250.373 193.831 250.461 193.088C250.55 192.345 250.807 191.628 251.215 190.983C251.622 190.339 252.172 189.782 252.828 189.348C253.484 188.915 254.23 188.616 255.019 188.469C255.269 188.424 255.522 188.395 255.777 188.383L269.205 168.353L256.939 157.515C256.47 157.101 256.094 156.605 255.833 156.055C255.572 155.505 255.431 154.913 255.417 154.312C255.404 153.711 255.519 153.114 255.755 152.555C255.991 151.995 256.345 151.485 256.794 151.053C257.244 150.621 257.782 150.277 258.376 150.039C258.969 149.801 259.608 149.675 260.255 149.668C260.901 149.661 261.543 149.773 262.143 149.998C262.743 150.223 263.288 150.556 263.749 150.978L280.685 166.498L280.719 166.536C281.242 167.277 281.495 168.155 281.44 169.04C281.384 169.925 281.023 170.77 280.41 171.449L261.595 192.13C261.651 192.296 261.698 192.464 261.735 192.634C261.893 193.368 261.882 194.124 261.703 194.853C261.524 195.582 261.181 196.267 260.697 196.865C260.213 197.462 259.599 197.957 258.895 198.319C258.19 198.68 257.412 198.899 256.61 198.961C256.448 198.974 256.287 198.981 256.126 198.981C254.919 198.976 253.745 198.617 252.77 197.956C251.796 197.294 251.071 196.363 250.7 195.295Z" fill="#A0616A"/>
<path d="M230.528 293.766L224.164 293.765L221.137 270.955L230.529 270.955L230.528 293.766Z" fill="#A0616A"/>
<path d="M232.15 299.498L211.633 299.497V299.256C211.633 298.281 211.839 297.316 212.241 296.416C212.642 295.515 213.23 294.697 213.972 294.008C214.713 293.319 215.594 292.772 216.563 292.399C217.532 292.026 218.57 291.834 219.619 291.834L232.151 291.834L232.15 299.498Z" fill="#2F2E41"/>
<path d="M293.775 285.589L288.307 288.614L273.149 270.455L281.218 265.99L293.775 285.589Z" fill="#A0616A"/>
<path d="M298.324 289.743L280.695 299.498L280.562 299.291C280.026 298.453 279.672 297.526 279.521 296.561C279.37 295.597 279.425 294.614 279.683 293.669C279.941 292.725 280.396 291.836 281.023 291.055C281.651 290.274 282.437 289.615 283.338 289.116L294.106 283.158L298.324 289.743Z" fill="#2F2E41"/>
<path d="M220.335 283.719C216.072 237.071 213.536 193.735 229.119 176.057L229.239 175.92L255.464 185.669L255.507 185.756C255.595 185.935 264.317 203.765 262.282 215.757L268.751 243.411L289.842 276.232C290.012 276.496 290.119 276.791 290.157 277.096C290.195 277.402 290.163 277.712 290.062 278.005C289.961 278.298 289.795 278.568 289.573 278.797C289.352 279.026 289.081 279.208 288.778 279.332L279.612 283.08C279.095 283.289 278.514 283.318 277.975 283.162C277.437 283.006 276.977 282.674 276.68 282.228L253.737 247.459L240.778 220.79C240.708 220.646 240.588 220.527 240.437 220.451C240.287 220.376 240.114 220.349 239.945 220.374C239.776 220.399 239.621 220.475 239.504 220.591C239.386 220.706 239.312 220.854 239.294 221.012L232.111 283.767C232.051 284.3 231.78 284.794 231.351 285.153C230.922 285.511 230.365 285.709 229.788 285.708H222.663C222.078 285.705 221.516 285.5 221.085 285.132C220.655 284.764 220.387 284.261 220.335 283.719Z" fill="#2F2E41"/>
<path d="M229.207 176.427L229.082 176.372L229.063 176.244C228.083 169.872 229.243 162.792 232.509 155.201C234.119 151.485 237.112 148.431 240.942 146.594C244.772 144.758 249.184 144.261 253.375 145.195C255.789 145.747 258.054 146.76 260.025 148.169C261.996 149.577 263.63 151.351 264.825 153.377C266.005 155.383 266.723 157.595 266.935 159.872C267.147 162.149 266.848 164.442 266.057 166.606C261.939 177.798 256.597 188.268 256.544 188.373L256.432 188.592L229.207 176.427Z" fill="#F72F2F"/>
<path d="M200.595 160.556C201.227 160.092 201.956 159.758 202.736 159.575C203.516 159.392 204.329 159.364 205.121 159.494C205.914 159.623 206.668 159.907 207.334 160.326C208 160.745 208.564 161.29 208.988 161.925C209.121 162.127 209.239 162.337 209.34 162.554L234.23 167.23L240.857 152.757C241.11 152.204 241.479 151.703 241.941 151.283C242.404 150.863 242.952 150.532 243.553 150.31C244.153 150.088 244.796 149.979 245.442 149.989C246.089 149.999 246.727 150.128 247.32 150.368C247.912 150.608 248.448 150.955 248.895 151.389C249.343 151.823 249.694 152.335 249.927 152.895C250.161 153.456 250.272 154.054 250.256 154.654C250.239 155.255 250.095 155.847 249.831 156.396L240.12 176.573L240.093 176.617C239.529 177.332 238.733 177.86 237.822 178.121C236.91 178.383 235.932 178.364 235.033 178.068L207.601 168.932C207.454 169.039 207.3 169.138 207.142 169.23C206.458 169.624 205.692 169.879 204.895 169.979C204.097 170.078 203.286 170.02 202.515 169.808C201.743 169.596 201.029 169.235 200.418 168.748C199.807 168.262 199.314 167.66 198.97 166.984C198.9 166.848 198.837 166.71 198.781 166.57C198.363 165.518 198.313 164.37 198.639 163.29C198.965 162.209 199.649 161.253 200.595 160.556Z" fill="#A0616A"/>
<path d="M297.576 141.564C296.348 139.542 294.559 137.69 292.194 136.943C289.14 135.978 285.833 137.005 282.692 137.692C280.273 138.22 277.745 138.544 275.306 138.098C272.868 137.652 270.515 136.333 269.406 134.266C267.774 131.225 269.149 127.599 269.049 124.202C268.998 122.353 268.496 120.539 267.581 118.896C266.666 117.254 265.361 115.826 263.766 114.72C262.171 113.614 260.326 112.859 258.371 112.512C256.416 112.165 254.402 112.235 252.48 112.717C249.473 111.91 246.751 111.835 244.891 113.984C242.551 113.984 240.306 114.848 238.652 116.386C236.997 117.923 236.067 120.009 236.067 122.184H244.504C244.104 124.184 244.561 126.249 245.778 127.939C247.267 129.973 249.857 131.444 250.356 133.86C250.839 136.201 249.127 138.423 247.33 140.124C245.534 141.826 243.45 143.513 242.89 145.839C242.546 147.605 242.936 149.426 243.981 150.935C245.025 152.426 246.319 153.751 247.815 154.859C254.555 160.226 262.565 164.034 271.191 165.973C277.266 167.333 283.91 167.685 289.55 165.184C291.805 164.184 293.816 162.763 295.456 161.011C297.096 159.258 298.331 157.21 299.084 154.995C299.837 152.78 300.091 150.444 299.832 148.134C299.573 145.824 298.805 143.587 297.576 141.564Z" fill="#2F2E41"/>
<path d="M299.481 300H200.865C200.728 300 200.596 299.949 200.498 299.859C200.401 299.768 200.346 299.645 200.346 299.518C200.346 299.39 200.401 299.267 200.498 299.176C200.596 299.086 200.728 299.035 200.865 299.035H299.481C299.619 299.035 299.751 299.086 299.848 299.176C299.945 299.267 300 299.39 300 299.518C300 299.645 299.945 299.768 299.848 299.859C299.751 299.949 299.619 300 299.481 300Z" fill="#CCCCCC"/>
</g>
<defs>
<clipPath id="clip0_2437_16615">
<rect width="300" height="300" fill="white"/>
</clipPath>
</defs>
</svg>
