<svg width="36" height="36" viewBox="0 0 36 36" fill="none" xmlns="http://www.w3.org/2000/svg">
<path d="M15.0758 1.33912C15.0173 1.34979 14.9596 1.36422 14.903 1.38232C14.5909 1.45222 14.3126 1.62819 14.1157 1.88025C13.9188 2.13231 13.8154 2.44485 13.8231 2.76462V9.67616C13.8205 9.85933 13.8543 10.0412 13.9226 10.2112C13.9909 10.3812 14.0923 10.5359 14.221 10.6663C14.3496 10.7968 14.5028 10.9003 14.6718 10.971C14.8408 11.0417 15.0222 11.0782 15.2054 11.0782C15.3886 11.0782 15.5699 11.0417 15.7389 10.971C15.9079 10.9003 16.0612 10.7968 16.1898 10.6663C16.3184 10.5359 16.4198 10.3812 16.4881 10.2112C16.5564 10.0412 16.5903 9.85933 16.5877 9.67616V2.76462C16.5947 2.56807 16.5597 2.37228 16.485 2.19033C16.4103 2.00839 16.2976 1.84448 16.1545 1.70955C16.0114 1.57463 15.8411 1.47179 15.6551 1.40791C15.4691 1.34403 15.2716 1.32058 15.0758 1.33912Z" fill="#111111"/>
<path d="M10.9289 1.33912C10.8704 1.34979 10.8127 1.36422 10.7561 1.38232C10.444 1.45222 10.1657 1.62819 9.9688 1.88025C9.77188 2.13231 9.66845 2.44485 9.67615 2.76462V9.67616C9.67356 9.85933 9.7074 10.0412 9.77571 10.2112C9.84401 10.3812 9.94542 10.5359 10.074 10.6663C10.2027 10.7968 10.3559 10.9003 10.5249 10.971C10.6939 11.0417 10.8753 11.0782 11.0585 11.0782C11.2417 11.0782 11.423 11.0417 11.592 10.971C11.761 10.9003 11.9143 10.7968 12.0429 10.6663C12.1715 10.5359 12.2729 10.3812 12.3412 10.2112C12.4095 10.0412 12.4434 9.85933 12.4408 9.67616V2.76462C12.4478 2.56807 12.4128 2.37228 12.338 2.19033C12.2633 2.00839 12.1507 1.84448 12.0076 1.70955C11.8645 1.57463 11.6942 1.47179 11.5082 1.40791C11.3222 1.34403 11.1247 1.32058 10.9289 1.33912Z" fill="#111111"/>
<path d="M6.78195 2.72143C6.72348 2.7321 6.66577 2.74653 6.60916 2.76462C6.29703 2.83453 6.0188 3.0105 5.82188 3.26256C5.62495 3.51462 5.52153 3.82716 5.52923 4.14693V4.79489V6.39318V7.51631V9.0714V11.0585C5.5272 11.1016 5.5272 11.1449 5.52923 11.1881V19.3523H8.29385V11.2745C8.29948 11.2026 8.29948 11.1304 8.29385 11.0585V9.67616V9.1146V7.47311V6.0908V4.40611V4.14693C8.30085 3.95037 8.26583 3.75458 8.19112 3.57264C8.11642 3.3907 8.00376 3.22679 7.86065 3.09186C7.71755 2.95694 7.5473 2.8541 7.36128 2.79022C7.17526 2.72634 6.97775 2.70288 6.78195 2.72143Z" fill="#111111"/>
<path fill-rule="evenodd" clip-rule="evenodd" d="M34.6873 0.691162L17.97 3.02381V5.09727L35.1193 3.45578C35.6722 3.31755 35.94 2.75598 35.94 2.20306L35.8104 1.6415C35.6722 1.08858 35.2402 0.552931 34.6873 0.691162ZM5.52923 4.79489V6.39318L1.5119 6.78196L1.38231 5.39965L5.52923 4.79489ZM34.9897 6.91155L17.97 7.34352V9.41698L34.9897 9.67616C35.5426 9.67616 35.94 9.24419 35.94 8.55304V8.03467C35.94 7.34352 35.5426 6.91155 34.9897 6.91155ZM0 20.7346V23.4992C0 30.4108 7.4731 35.94 12.3112 35.94H23.4992C28.4755 35.94 35.94 30.4108 35.94 23.4992V20.7346H0Z" fill="#111111"/>
<path d="M5.52923 7.51631L1.38231 7.6027V8.98501L5.52923 9.0714V7.51631Z" fill="#111111"/>
</svg>
