<svg width="56" height="56" viewBox="0 0 56 56" fill="none" xmlns="http://www.w3.org/2000/svg">
<rect x="2.5" y="2.5" width="51.85" height="51.85" rx="25.925" fill="#F5F5F5"/>
<rect x="2.5" y="2.5" width="51.85" height="51.85" rx="25.925" stroke="#F72F2F"/>
<g clip-path="url(#clip0_1408_4832)">
<path d="M25.0758 11.3391C25.0173 11.3498 24.9596 11.3642 24.903 11.3823C24.5909 11.4522 24.3126 11.6282 24.1157 11.8802C23.9188 12.1323 23.8154 12.4448 23.8231 12.7646V19.6761C23.8205 19.8593 23.8543 20.0412 23.9226 20.2112C23.9909 20.3811 24.0923 20.5358 24.221 20.6663C24.3496 20.7967 24.5028 20.9003 24.6718 20.971C24.8408 21.0417 25.0222 21.0781 25.2054 21.0781C25.3886 21.0781 25.5699 21.0417 25.7389 20.971C25.9079 20.9003 26.0612 20.7967 26.1898 20.6663C26.3184 20.5358 26.4198 20.3811 26.4881 20.2112C26.5564 20.0412 26.5903 19.8593 26.5877 19.6761V12.7646C26.5947 12.5681 26.5597 12.3723 26.485 12.1903C26.4103 12.0084 26.2976 11.8445 26.1545 11.7095C26.0114 11.5746 25.8411 11.4718 25.6551 11.4079C25.4691 11.344 25.2716 11.3206 25.0758 11.3391Z" fill="#111111"/>
<path d="M20.9289 11.3391C20.8704 11.3498 20.8127 11.3642 20.7561 11.3823C20.444 11.4522 20.1657 11.6282 19.9688 11.8802C19.7719 12.1323 19.6685 12.4448 19.6762 12.7646V19.6761C19.6736 19.8593 19.7074 20.0412 19.7757 20.2112C19.844 20.3811 19.9454 20.5358 20.074 20.6663C20.2027 20.7967 20.3559 20.9003 20.5249 20.971C20.6939 21.0417 20.8753 21.0781 21.0585 21.0781C21.2417 21.0781 21.423 21.0417 21.592 20.971C21.761 20.9003 21.9143 20.7967 22.0429 20.6663C22.1715 20.5358 22.2729 20.3811 22.3412 20.2112C22.4095 20.0412 22.4434 19.8593 22.4408 19.6761V12.7646C22.4478 12.5681 22.4128 12.3723 22.338 12.1903C22.2633 12.0084 22.1507 11.8445 22.0076 11.7095C21.8645 11.5746 21.6942 11.4718 21.5082 11.4079C21.3222 11.344 21.1247 11.3206 20.9289 11.3391Z" fill="#111111"/>
<path d="M16.7819 12.7214C16.7235 12.7321 16.6658 12.7465 16.6092 12.7646C16.297 12.8345 16.0188 13.0105 15.8219 13.2625C15.625 13.5146 15.5215 13.8271 15.5292 14.1469V14.7949V16.3932V17.5163V19.0714V21.0585C15.5272 21.1016 15.5272 21.1449 15.5292 21.188V29.3523H18.2938V21.2744C18.2995 21.2026 18.2995 21.1303 18.2938 21.0585V19.6761V19.1146V17.4731V16.0908V14.4061V14.1469C18.3008 13.9504 18.2658 13.7546 18.1911 13.5726C18.1164 13.3907 18.0038 13.2268 17.8607 13.0918C17.7175 12.9569 17.5473 12.8541 17.3613 12.7902C17.1753 12.7263 16.9778 12.7029 16.7819 12.7214Z" fill="#111111"/>
<path fill-rule="evenodd" clip-rule="evenodd" d="M44.6873 10.6911L27.97 13.0238V15.0973L45.1193 13.4558C45.6722 13.3175 45.94 12.756 45.94 12.203L45.8104 11.6415C45.6722 11.0886 45.2402 10.5529 44.6873 10.6911ZM15.5292 14.7949V16.3932L11.5119 16.7819L11.3823 15.3996L15.5292 14.7949ZM44.9897 16.9115L27.97 17.3435V19.417L44.9897 19.6761C45.5426 19.6761 45.94 19.2442 45.94 18.553V18.0347C45.94 17.3435 45.5426 16.9115 44.9897 16.9115ZM10 30.7346V33.4992C10 40.4108 17.4731 45.94 22.3112 45.94H33.4992C38.4755 45.94 45.94 40.4108 45.94 33.4992V30.7346H10Z" fill="#111111"/>
<path d="M15.5292 17.5163L11.3823 17.6027V18.985L15.5292 19.0714V17.5163Z" fill="#111111"/>
</g>
<defs>
<clipPath id="clip0_1408_4832">
<rect width="35.94" height="35.94" fill="white" transform="translate(10 10)"/>
</clipPath>
</defs>
</svg>
