<svg width="35" height="35" viewBox="0 0 34 34" fill="none" xmlns="http://www.w3.org/2000/svg">
<g clip-path="url(#clip0_1408_4855)">
<path d="M10.55 0.00980318C9.47686 -0.0911343 8.47811 0.568944 8.20385 1.61152L7.22038 5.3482C19.6795 5.71277 28.1078 14.0215 28.6351 26.399L32.4162 25.3511C33.4601 25.0616 34.1089 24.0442 33.9847 22.9671C32.5982 10.9622 22.6299 1.15 10.55 0.00980318ZM6.66721 7.4473L0.0365471 32.6478C-0.0116557 32.8309 -0.0107259 33.0234 0.0392428 33.206C0.0892114 33.3886 0.186451 33.5548 0.321154 33.6878C0.455856 33.8209 0.623256 33.916 0.806468 33.9637C0.989679 34.0113 1.18222 34.0098 1.36467 33.9593L26.5326 26.98C26.2491 15.3662 18.3594 7.58012 6.66721 7.44996V7.4473ZM8.50002 27.6248C8.07974 27.6248 7.66889 27.5002 7.31944 27.2667C6.96998 27.0332 6.69762 26.7013 6.53678 26.313C6.37594 25.9248 6.33386 25.4975 6.41585 25.0853C6.49785 24.6731 6.70023 24.2944 6.99742 23.9972C7.29461 23.7001 7.67325 23.4977 8.08546 23.4157C8.49767 23.3337 8.92493 23.3758 9.31322 23.5366C9.70152 23.6974 10.0334 23.9698 10.2669 24.3193C10.5004 24.6687 10.625 25.0796 10.625 25.4998C10.625 26.0634 10.4011 26.6039 10.0026 27.0024C9.60411 27.401 9.06361 27.6248 8.50002 27.6248ZM11.6875 17.5311C11.2672 17.5311 10.8564 17.4065 10.5069 17.173C10.1575 16.9395 9.88511 16.6076 9.72428 16.2193C9.56344 15.831 9.52136 15.4037 9.60335 14.9915C9.68535 14.5793 9.88773 14.2007 10.1849 13.9035C10.4821 13.6063 10.8607 13.4039 11.273 13.3219C11.6852 13.2399 12.1124 13.282 12.5007 13.4428C12.889 13.6037 13.2209 13.8761 13.4544 14.2255C13.6879 14.575 13.8125 14.9858 13.8125 15.4061C13.8125 15.9697 13.5886 16.5102 13.1901 16.9087C12.7916 17.3072 12.2511 17.5311 11.6875 17.5311ZM18.5938 24.4373C18.1735 24.4373 17.7626 24.3127 17.4132 24.0792C17.0637 23.8457 16.7914 23.5138 16.6305 23.1255C16.4697 22.7373 16.4276 22.31 16.5096 21.8978C16.5916 21.4856 16.794 21.1069 17.0912 20.8097C17.3884 20.5126 17.767 20.3102 18.1792 20.2282C18.5914 20.1462 19.0187 20.1883 19.407 20.3491C19.7953 20.5099 20.1271 20.7823 20.3606 21.1318C20.5941 21.4812 20.7188 21.8921 20.7188 22.3123C20.7188 22.8759 20.4949 23.4164 20.0964 23.8149C19.6979 24.2135 19.1574 24.4373 18.5938 24.4373Z" fill="#111111"/>
</g>
<defs>
<clipPath id="clip0_1408_4855">
<rect width="34" height="34" fill="white"/>
</clipPath>
</defs>
</svg>
