<svg width="56" height="56" viewBox="0 0 56 56" fill="none" xmlns="http://www.w3.org/2000/svg">
<rect x="2.5" y="2.5" width="51.85" height="51.85" rx="25.925" fill="#F5F5F5"/>
<rect x="2.5" y="2.5" width="51.85" height="51.85" rx="25.925" stroke="#F72F2F"/>
<g clip-path="url(#clip0_1408_4853)">
<path d="M24.55 10.0098C23.4769 9.90887 22.4781 10.5689 22.2039 11.6115L21.2204 15.3482C33.6795 15.7128 42.1078 24.0215 42.6351 36.399L46.4162 35.3511C47.4601 35.0616 48.1089 34.0442 47.9847 32.9671C46.5982 20.9622 36.6299 11.15 24.55 10.0098ZM20.6672 17.4473L14.0365 42.6478C13.9883 42.8309 13.9893 43.0234 14.0392 43.206C14.0892 43.3886 14.1865 43.5548 14.3212 43.6878C14.4559 43.8209 14.6233 43.916 14.8065 43.9637C14.9897 44.0113 15.1822 44.0098 15.3647 43.9593L40.5326 36.98C40.2491 25.3662 32.3594 17.5801 20.6672 17.45V17.4473ZM22.5 37.6248C22.0797 37.6248 21.6689 37.5002 21.3194 37.2667C20.97 37.0332 20.6976 36.7013 20.5368 36.313C20.3759 35.9248 20.3339 35.4975 20.4159 35.0853C20.4978 34.6731 20.7002 34.2944 20.9974 33.9972C21.2946 33.7001 21.6732 33.4977 22.0855 33.4157C22.4977 33.3337 22.9249 33.3758 23.3132 33.5366C23.7015 33.6974 24.0334 33.9698 24.2669 34.3193C24.5004 34.6687 24.625 35.0796 24.625 35.4998C24.625 36.0634 24.4011 36.6039 24.0026 37.0024C23.6041 37.401 23.0636 37.6248 22.5 37.6248ZM25.6875 27.5311C25.2672 27.5311 24.8564 27.4065 24.5069 27.173C24.1575 26.9395 23.8851 26.6076 23.7243 26.2193C23.5634 25.831 23.5214 25.4037 23.6034 24.9915C23.6853 24.5793 23.8877 24.2007 24.1849 23.9035C24.4821 23.6063 24.8607 23.4039 25.273 23.3219C25.6852 23.2399 26.1124 23.282 26.5007 23.4428C26.889 23.6037 27.2209 23.8761 27.4544 24.2255C27.6879 24.575 27.8125 24.9858 27.8125 25.4061C27.8125 25.9697 27.5886 26.5102 27.1901 26.9087C26.7916 27.3072 26.2511 27.5311 25.6875 27.5311ZM32.5938 34.4373C32.1735 34.4373 31.7626 34.3127 31.4132 34.0792C31.0637 33.8457 30.7914 33.5138 30.6305 33.1255C30.4697 32.7373 30.4276 32.31 30.5096 31.8978C30.5916 31.4856 30.794 31.1069 31.0912 30.8097C31.3884 30.5126 31.767 30.3102 32.1792 30.2282C32.5914 30.1462 33.0187 30.1883 33.407 30.3491C33.7953 30.5099 34.1271 30.7823 34.3606 31.1318C34.5941 31.4812 34.7188 31.8921 34.7188 32.3123C34.7188 32.8759 34.4949 33.4164 34.0964 33.8149C33.6979 34.2135 33.1574 34.4373 32.5938 34.4373Z" fill="#111111"/>
</g>
<defs>
<clipPath id="clip0_1408_4853">
<rect width="34" height="34" fill="white" transform="translate(14 10)"/>
</clipPath>
</defs>
</svg>
