<svg width="37" height="36" viewBox="0 0 37 36" fill="none" xmlns="http://www.w3.org/2000/svg">
<g clip-path="url(#clip0_887_4654)">
<path d="M33.5767 18.1762C33.5767 9.91018 26.8681 3.20154 18.6021 3.20154C10.3361 3.20154 3.62744 9.91018 3.62744 18.1762C3.62744 23.7018 7.32618 28.4488 12.6122 30.5303V33.1508H24.592V30.5303C29.878 28.4488 33.5767 23.7018 33.5767 18.1762ZM30.5818 18.1762H24.592V7.81373C28.1709 9.89521 30.5818 13.7587 30.5818 18.1762ZM21.597 6.58581V18.1762H15.6072V6.58581C16.5655 6.34622 17.5688 6.19647 18.6021 6.19647C19.6353 6.19647 20.6386 6.34622 21.597 6.58581ZM6.62237 18.1762C6.62237 13.7587 9.03329 9.89521 12.6122 7.81373V18.1762H6.62237Z" fill="black"/>
</g>
<defs>
<clipPath id="clip0_887_4654">
<rect width="35.9392" height="35.9392" fill="white" transform="translate(0.456299 0.0304565)"/>
</clipPath>
</defs>
</svg>
