<svg width="56" height="56" viewBox="0 0 56 56" fill="none" xmlns="http://www.w3.org/2000/svg">
<rect x="2.5" y="2.5" width="51.85" height="51.85" rx="25.925" fill="#F5F5F5"/>
<rect x="2.5" y="2.5" width="51.85" height="51.85" rx="25.925" stroke="#F72F2F"/>
<g clip-path="url(#clip0_1408_4823)">
<path d="M43.1204 28.1458C43.1204 19.8798 36.4118 13.1711 28.1458 13.1711C19.8798 13.1711 13.1711 19.8798 13.1711 28.1458C13.1711 33.6714 16.8699 38.4184 22.1559 40.4999V43.1204H34.1356V40.4999C39.4217 38.4184 43.1204 33.6714 43.1204 28.1458ZM40.1255 28.1458H34.1356V17.7833C37.7146 19.8648 40.1255 23.7282 40.1255 28.1458ZM31.1407 16.5554V28.1458H25.1508V16.5554C26.1092 16.3158 27.1125 16.166 28.1458 16.166C29.179 16.166 30.1823 16.3158 31.1407 16.5554ZM16.166 28.1458C16.166 23.7282 18.577 19.8648 22.1559 17.7833V28.1458H16.166Z" fill="#111111"/>
</g>
<defs>
<clipPath id="clip0_1408_4823">
<rect width="35.9392" height="35.9392" fill="white" transform="translate(10 10)"/>
</clipPath>
</defs>
</svg>
