<svg width="24" height="36" viewBox="0 0 24 36" fill="none" xmlns="http://www.w3.org/2000/svg">
<path d="M11.97 0C7.39628 0 4.14246 1.87068 2.28867 4.44758C2.21248 5.05352 2.29137 5.70404 2.53576 6.69382C2.71114 7.40256 3.26822 7.96394 3.97336 8.40098C5.05731 7.00147 6.95278 5.31355 9.81361 5.23376C10.0558 6.03522 10.2391 7.12241 10.173 8.51329C10.1543 8.91006 10.4501 9.25832 10.8469 9.27701C10.8584 9.27701 10.8803 9.27701 10.8918 9.27701C11.2728 9.27701 11.5926 8.96595 11.6106 8.58068C11.7163 6.3524 11.3107 5.10582 10.9592 4.15556C12.4385 4.35683 14.6612 4.83195 15.2945 8.10896C15.3692 8.49855 15.736 8.76774 16.1256 8.69299C16.5152 8.61751 16.7851 8.229 16.7096 7.83941C16.5119 6.81584 16.1656 6.00503 15.7437 5.32361C17.7563 5.20645 19.3099 5.97071 20.1688 7.50248C20.8855 7.10138 21.3595 6.74342 21.5615 5.97502C21.7635 5.20663 21.7205 4.93205 21.6738 3.99833C20.0989 1.84193 17.2172 0 11.97 0ZM22.8194 6.17719C22.6275 8.61823 19.4001 9.53434 16.1705 10.3552C13.9659 10.9159 11.8996 11.4471 10.8918 12.871C9.32123 15.0403 7.43258 18.8588 7.43258 24.6638C7.43258 28.8954 8.81897 34.3727 12.7113 35.8951L12.846 35.94H13.0033C14.0484 35.8997 16.6129 35.7711 17.9226 35.4907C19.6448 35.1464 20.9811 33.7106 21.1572 32.0315C21.2542 31.4299 23.5382 17.2313 23.5382 10.0857C23.5907 7.95873 22.9869 6.55168 22.8194 6.17719ZM1.09816 6.69382L0.716295 7.9068C0.481966 8.78733 0.469208 10.0043 0.469208 10.0632C0.469208 14.7311 2.75607 31.3102 2.85023 31.9866C3.02706 33.7491 4.40985 35.232 6.24207 35.5806C6.77973 35.6705 8.40009 35.7725 9.94838 35.8502C7.07893 33.302 5.99498 28.6647 5.99498 24.6638C5.99498 18.4908 8.01859 14.3941 9.7013 12.0624C8.84521 11.6792 7.84535 11.3838 6.8261 11.074C4.02349 10.223 1.08666 9.02058 1.09816 6.69382ZM7.94922 8.46836C7.78108 8.48924 7.62572 8.56884 7.51056 8.69311C7.39539 8.81737 7.32781 8.97832 7.31976 9.14756C7.3117 9.3168 7.36367 9.48344 7.46651 9.61809C7.56935 9.75274 7.71644 9.84674 7.88183 9.8835C7.88183 9.8835 8.63109 10.1429 9.11727 10.7371C9.17555 10.8159 9.24934 10.882 9.33411 10.9313C9.41888 10.9805 9.51283 11.0119 9.61018 11.0236C9.70754 11.0352 9.80624 11.0268 9.90022 10.9988C9.9942 10.9709 10.0815 10.924 10.1567 10.8611C10.2319 10.7982 10.2934 10.7205 10.3375 10.633C10.3815 10.5454 10.4072 10.4497 10.413 10.3518C10.4187 10.254 10.4044 10.1559 10.3708 10.0638C10.3373 9.97168 10.2853 9.88739 10.2179 9.81611C9.41028 8.82898 8.30862 8.51329 8.30862 8.51329C8.23663 8.4864 8.16079 8.47124 8.084 8.46836C8.03917 8.46414 7.99405 8.46414 7.94922 8.46836ZM13.4076 17.2512C14.2012 17.2512 14.8452 17.8952 14.8452 18.6888C14.8452 19.4824 14.2012 20.1264 13.4076 20.1264C12.6141 20.1264 11.97 19.4824 11.97 18.6888C11.97 17.8952 12.6141 17.2512 13.4076 17.2512ZM15.564 21.564C15.9615 21.564 16.2828 21.8853 16.2828 22.2828C16.2828 22.6803 15.9615 23.0016 15.564 23.0016C15.1665 23.0016 14.8452 22.6803 14.8452 22.2828C14.8452 21.8853 15.1665 21.564 15.564 21.564Z" fill="#111111"/>
<path d="M13.4076 17.2512C14.2012 17.2512 14.8452 17.8952 14.8452 18.6888C14.8452 19.4824 14.2012 20.1264 13.4076 20.1264C12.6141 20.1264 11.97 19.4824 11.97 18.6888C11.97 17.8952 12.6141 17.2512 13.4076 17.2512Z" fill="#111111"/>
<path d="M15.564 21.564C15.9615 21.564 16.2828 21.8853 16.2828 22.2828C16.2828 22.6803 15.9615 23.0016 15.564 23.0016C15.1665 23.0016 14.8452 22.6803 14.8452 22.2828C14.8452 21.8853 15.1665 21.564 15.564 21.564Z" fill="#111111"/>
</svg>
