<svg width="259" height="27" viewBox="0 0 259 27" fill="none" xmlns="http://www.w3.org/2000/svg">
<g clip-path="url(#clip0_1_2819)">
<path d="M7 18C5.9 18 5.01 18.9 5.01 20C5.01 21.1 5.9 22 7 22C8.1 22 9 21.1 9 20C9 18.9 8.1 18 7 18ZM1 2V4H3L6.6 11.59L5.25 14.04C5.09 14.32 5 14.65 5 15C5 16.1 5.9 17 7 17H19V15H7.42C7.28 15 7.17 14.89 7.17 14.75L7.2 14.63L8.1 13H15.55C16.3 13 16.96 12.59 17.3 11.97L20.88 5.48C20.96 5.34 21 5.17 21 5C21 4.45 20.55 4 20 4H5.21L4.27 2H1ZM17 18C15.9 18 15.01 18.9 15.01 20C15.01 21.1 15.9 22 17 22C18.1 22 19 21.1 19 20C19 18.9 18.1 18 17 18Z" fill="#FE0000"/>
</g>
<g clip-path="url(#clip1_1_2819)">
<path d="M136.396 4H120.396C119.286 4 118.406 4.89 118.406 6L118.396 18C118.396 19.11 119.286 20 120.396 20H136.396C137.506 20 138.396 19.11 138.396 18V6C138.396 4.89 137.506 4 136.396 4ZM136.396 18H120.396V12H136.396V18ZM136.396 8H120.396V6H136.396V8Z" fill="black"/>
</g>
<g clip-path="url(#clip2_1_2819)">
<path d="M244.792 2C239.272 2 234.792 6.48 234.792 12C234.792 17.52 239.272 22 244.792 22C250.312 22 254.792 17.52 254.792 12C254.792 6.48 250.312 2 244.792 2ZM242.792 17L237.792 12L239.202 10.59L242.792 14.17L250.382 6.58L251.792 8L242.792 17Z" fill="black"/>
</g>
<line x1="29" y1="12.5" x2="114" y2="12.5" stroke="black" stroke-dasharray="4 5"/>
<line x1="145" y1="12.5" x2="230" y2="12.5" stroke="black" stroke-dasharray="4 5"/>
<defs>
<clipPath id="clip0_1_2819">
<rect width="24" height="24" fill="white"/>
</clipPath>
<clipPath id="clip1_1_2819">
<rect width="24" height="24" fill="white" transform="translate(116.396)"/>
</clipPath>
<clipPath id="clip2_1_2819">
<rect width="24" height="24" fill="white" transform="translate(232.793)"/>
</clipPath>
</defs>
</svg>
