<svg width="254" height="30" viewBox="0 0 254 30" fill="none" xmlns="http://www.w3.org/2000/svg">
<path d="M11.2225 18.5625H23.6875V19.4375H10.75C9.75905 19.4375 9.0625 18.7289 9.0625 18C9.0625 17.7599 9.13164 17.5352 9.25441 17.3442L9.25448 17.3442L9.25934 17.3364L10.7781 14.8864L10.9488 14.611L10.7963 14.3252L6.74627 6.73519L6.58742 6.4375H6.25H4.5625V5.5625H7.33988L8.23898 7.26293L8.39738 7.5625H8.73625H25.375C25.7472 7.5625 25.9375 7.82111 25.9375 8C25.9375 8.07459 25.9171 8.13649 25.8918 8.17582L25.8918 8.17579L25.8871 8.1834L21.8596 14.6734L21.8588 14.6747C21.5879 15.1137 21.0356 15.4375 20.3687 15.4375H11.9875H11.6747L11.5097 15.7032L10.4972 17.3332L10.4551 17.4009L10.4335 17.4777L10.3998 17.5977L10.3787 17.6724V17.75C10.3787 18.2611 10.8185 18.5625 11.2225 18.5625ZM9.07375 23C9.07375 22.2677 9.76289 21.5625 10.75 21.5625C11.741 21.5625 12.4375 22.2711 12.4375 23C12.4375 23.7289 11.741 24.4375 10.75 24.4375C9.76289 24.4375 9.07375 23.7323 9.07375 23ZM20.3237 23C20.3237 22.2677 21.0129 21.5625 22 21.5625C22.991 21.5625 23.6875 22.2711 23.6875 23C23.6875 23.7289 22.991 24.4375 22 24.4375C21.0129 24.4375 20.3237 23.7323 20.3237 23Z" fill="#F72F2F" stroke="#F72F2F" stroke-width="1.125"/>
<line x1="34" y1="14.5" x2="84" y2="14.5" stroke="#F72F2F" stroke-dasharray="4 5"/>
<line x1="89" y1="14.5" x2="114" y2="14.5" stroke="#111111" stroke-dasharray="4 5"/>
<path d="M120.556 9.00045V9C120.556 8.18795 121.195 7.54598 122 7.54598H138C138.808 7.54598 139.454 8.19153 139.454 9V21C139.454 21.8085 138.808 22.454 138 22.454H122C121.192 22.454 120.546 21.8086 120.546 21.0002C120.546 21.0001 120.546 21.0001 120.546 21L120.556 9.00045ZM138 21.546H138.546V21V15V14.454H138H122H121.454V15V21V21.546H122H138ZM138 11.546H138.546V11V9V8.45402H138H122H121.454V9V11V11.546H122H138Z" fill="#F72F2F" stroke="#F72F2F" stroke-width="1.09195"/>
<line x1="146" y1="14.5" x2="226" y2="14.5" stroke="#111111" stroke-dasharray="4 5"/>
<path d="M251 15C251 10.0312 246.969 6 242 6C237.031 6 233 10.0312 233 15C233 19.9688 237.031 24 242 24C246.969 24 251 19.9688 251 15Z" stroke="#F72F2F" stroke-width="2" stroke-miterlimit="10"/>
<path d="M246.5 11.25L240.2 18.75L237.5 15.75" stroke="#F72F2F" stroke-width="2" stroke-linecap="round" stroke-linejoin="round"/>
</svg>

