<svg width="338" height="177" viewBox="0 0 338 177" fill="none" xmlns="http://www.w3.org/2000/svg">
<g clip-path="url(#clip0_1_6896)">
<path d="M314.809 172.045C314.373 173.172 313.83 174.255 313.188 175.278C313.009 175.561 312.822 175.84 312.623 176.11H296.068C295.951 176.022 295.839 175.931 295.723 175.844C295.141 175.798 294.563 175.74 293.998 175.677C294.056 175.627 294.119 175.578 294.177 175.528C293.878 175.553 293.579 175.578 293.279 175.59C293.516 175.619 293.757 175.648 293.998 175.677C293.819 175.823 293.637 175.968 293.45 176.11H292.727L293.213 175.59C292.826 175.603 292.444 175.611 292.058 175.603L293.267 175.278L294.572 174.93C294.621 174.971 294.675 175.012 294.725 175.054C296.952 173.097 298.763 170.712 300.05 168.041C301.337 165.37 302.073 162.468 302.216 159.506C302.359 156.545 301.904 153.585 300.88 150.803C299.856 148.021 298.283 145.473 296.255 143.311C299.52 145.502 302.316 148.321 304.482 151.603C306.647 154.885 308.137 158.566 308.866 162.43C309.241 164.319 309.297 166.257 309.033 168.164C309.178 168.002 309.323 167.84 309.465 167.674C311.569 165.124 313.087 162.142 313.908 158.94C314.73 155.737 314.836 152.393 314.219 149.145C315.83 152.732 316.712 156.604 316.814 160.536C316.915 164.467 316.233 168.38 314.809 172.045Z" fill="#E6E6E6"/>
<path d="M232.224 33.0626C238.669 33.0626 243.893 27.8381 243.893 21.3934C243.893 14.9487 238.669 9.72418 232.224 9.72418C225.779 9.72418 220.555 14.9487 220.555 21.3934C220.555 27.8381 225.779 33.0626 232.224 33.0626Z" fill="#2F2E41"/>
<path d="M270.065 171.245L264.971 171.245L262.547 151.594L270.066 151.595L270.065 171.245Z" fill="#FFB8B8"/>
<path d="M261.332 169.789H271.157V175.975H255.146C255.146 175.163 255.306 174.359 255.617 173.608C255.928 172.858 256.383 172.176 256.958 171.601C257.532 171.027 258.214 170.571 258.965 170.26C259.715 169.949 260.52 169.789 261.332 169.789Z" fill="#2F2E41"/>
<path d="M218.097 170.579L213.178 169.252L215.952 149.648L223.212 151.606L218.097 170.579Z" fill="#FFB8B8"/>
<path d="M210.043 166.899L219.529 169.457L217.919 175.43L202.46 171.262C202.887 169.678 203.926 168.328 205.348 167.51C206.77 166.692 208.459 166.472 210.043 166.899Z" fill="#2F2E41"/>
<path d="M227.751 80.3229L212.581 166.286L220.36 167.842L244.865 107.162L263.147 167.453L272.483 166.286C272.483 166.286 268.204 79.934 254.59 72.5435L227.751 80.3229Z" fill="#2F2E41"/>
<path d="M203.693 111.075C204.239 110.803 204.72 110.414 205.1 109.936C205.481 109.458 205.752 108.903 205.894 108.308C206.037 107.714 206.047 107.096 205.925 106.498C205.803 105.899 205.551 105.335 205.187 104.844L213.553 92.576L205.838 92.4562L199.076 104.125C198.292 104.791 197.78 105.721 197.636 106.74C197.493 107.758 197.728 108.794 198.297 109.651C198.866 110.507 199.73 111.125 200.724 111.388C201.719 111.651 202.775 111.539 203.693 111.075Z" fill="#FFB8B8"/>
<path d="M258.927 95.9048C259.474 95.6327 259.954 95.2439 260.335 94.7659C260.715 94.2879 260.986 93.7324 261.129 93.1383C261.271 92.5443 261.282 91.9262 261.159 91.3277C261.037 90.7292 260.785 90.1647 260.421 89.6741L268.788 77.4058L261.072 77.2861L254.31 88.9546C253.526 89.6207 253.014 90.5511 252.871 91.5696C252.727 92.588 252.962 93.6237 253.531 94.4804C254.1 95.3371 254.964 95.9553 255.958 96.2178C256.953 96.4804 258.009 96.369 258.927 95.9048Z" fill="#FFB8B8"/>
<path d="M232.521 35.3729C238.158 35.3729 242.727 30.8035 242.727 25.1667C242.727 19.53 238.158 14.9605 232.521 14.9605C226.884 14.9605 222.315 19.53 222.315 25.1667C222.315 30.8035 226.884 35.3729 232.521 35.3729Z" fill="#FFB8B8"/>
<path d="M254.59 41.0366C254.201 39.4807 247.589 39.8697 247.589 39.8697C247.589 39.8697 240.143 38.1579 240.213 38.3719C233.938 37.889 226.284 40.2446 225.169 40.6019C222.889 41.2311 218.531 43.1559 215.388 44.5717C214.951 44.7688 214.609 45.1306 214.437 45.5785C214.265 46.0263 214.277 46.524 214.47 46.9633L224.056 68.8483L225.417 83.0458L256.924 73.3215C249.144 70.2097 254.979 42.5925 254.59 41.0366Z" fill="#FE0000"/>
<path d="M251.867 41.4254L254.453 40.7759L268.593 68.6536L269.371 84.6018L260.425 77.6003V71.3767L251.089 59.3184L251.867 41.4254Z" fill="#FE0000"/>
<path d="M217.832 43.5645L214.838 44.8952C214.682 44.9645 214.545 45.0711 214.44 45.2056C214.335 45.34 214.265 45.4983 214.235 45.6663L208.302 79.5445L202.467 96.6594L210.247 100.549L219.193 79.1556L222.305 63.5966L217.832 43.5645Z" fill="#FE0000"/>
<path d="M221.818 20.3552C223.889 19.675 226.075 20.7413 228.098 21.5531C230.092 22.3531 232.223 22.9296 234.368 22.8036C236.513 22.6775 238.683 21.7716 239.98 20.0583C241.276 18.345 241.505 15.7773 240.221 14.0541C239.376 12.9197 238.027 12.2725 236.677 11.8511C233.792 10.9506 230.563 10.9195 227.821 12.1899C225.078 13.4603 222.928 16.1441 222.702 19.158" fill="#2F2E41"/>
<path d="M231.913 12.2259C231.217 7.51528 233.798 2.62435 237.319 0.869833C240.841 -0.884685 244.973 0.15032 248.145 2.76302C251.318 5.37571 253.631 9.39065 255.352 13.6586C257.074 17.9265 258.265 22.4977 259.668 26.9488C260.914 30.9019 262.376 34.8574 264.742 37.8808C267.107 40.9042 270.548 42.8716 273.844 42.0409C271.136 45.6822 266.154 45.0517 263.063 41.9371C259.972 38.8225 258.365 33.9544 257.1 29.2157C255.835 24.4771 254.735 19.5189 252.288 15.5921C247.935 8.60618 239.393 6.50739 233.293 10.9249" fill="#2F2E41"/>
<path d="M337.838 175.278H0V176.11H337.838V175.278Z" fill="#3F3D56"/>
<path d="M177.246 95.5382H29.8012C28.6206 95.5369 27.4887 95.0674 26.6538 94.2325C25.819 93.3977 25.3494 92.2658 25.3481 91.0852V55.9556C25.3494 54.775 25.819 53.6431 26.6538 52.8083C27.4887 51.9734 28.6206 51.5039 29.8012 51.5026H177.246C178.427 51.5039 179.559 51.9734 180.394 52.8083C181.229 53.6431 181.698 54.775 181.7 55.9556V91.0852C181.698 92.2658 181.229 93.3977 180.394 94.2325C179.559 95.0674 178.427 95.5369 177.246 95.5382ZM29.8012 52.4921C28.883 52.4932 28.0027 52.8585 27.3534 53.5078C26.7041 54.1571 26.3388 55.0374 26.3377 55.9556V91.0852C26.3388 92.0034 26.7041 92.8837 27.3534 93.533C28.0027 94.1823 28.883 94.5476 29.8012 94.5487H177.246C178.165 94.5476 179.045 94.1823 179.694 93.533C180.344 92.8837 180.709 92.0034 180.71 91.0852V55.9556C180.709 55.0374 180.344 54.1571 179.694 53.5078C179.045 52.8585 178.165 52.4932 177.246 52.4921H29.8012Z" fill="#3F3D56"/>
<path d="M170.072 88.117H36.9757C36.9106 88.1171 36.8461 88.1045 36.7859 88.0797C36.7257 88.0549 36.671 88.0185 36.6249 87.9725C36.5788 87.9266 36.5423 87.872 36.5173 87.8118C36.4923 87.7517 36.4795 87.6873 36.4795 87.6222C36.4795 87.5571 36.4923 87.4926 36.5173 87.4325C36.5423 87.3724 36.5788 87.3178 36.6249 87.2718C36.671 87.2258 36.7257 87.1894 36.7859 87.1646C36.8461 87.1398 36.9106 87.1272 36.9757 87.1274H170.072C170.137 87.1272 170.202 87.1398 170.262 87.1646C170.322 87.1894 170.377 87.2258 170.423 87.2718C170.469 87.3178 170.506 87.3724 170.531 87.4325C170.556 87.4926 170.568 87.5571 170.568 87.6222C170.568 87.6873 170.556 87.7517 170.531 87.8118C170.506 87.872 170.469 87.9266 170.423 87.9725C170.377 88.0185 170.322 88.0549 170.262 88.0797C170.202 88.1045 170.137 88.1171 170.072 88.117Z" fill="#E6E6E6"/>
<path d="M51.0768 71.7888H40.1916C40.0606 71.7892 39.9351 71.8415 39.8427 71.9343C39.7502 72.027 39.6982 72.1526 39.6982 72.2836C39.6982 72.4146 39.7502 72.5402 39.8427 72.633C39.9351 72.7257 40.0606 72.778 40.1916 72.7784H45.1394V81.5275C45.1307 82.1616 45.3641 82.7752 45.7921 83.2432C46.2201 83.7112 46.8104 83.9984 47.4428 84.0463C47.4737 84.0478 47.5056 84.0482 47.538 84.0482C47.9269 84.041 48.3083 83.9391 48.649 83.7514C48.9897 83.5636 49.2796 83.2957 49.4934 82.9707C49.5719 82.8658 49.6055 82.7339 49.5869 82.6042C49.5682 82.4745 49.4989 82.3575 49.394 82.2788C49.2891 82.2002 49.1574 82.1664 49.0276 82.1849C48.8978 82.2034 48.7807 82.2726 48.702 82.3774C48.5759 82.587 48.3972 82.7601 48.1836 82.8794C47.97 82.9988 47.729 83.0602 47.4843 83.0577C47.1063 83.0226 46.7557 82.8449 46.504 82.5607C46.2522 82.2764 46.1182 81.907 46.129 81.5274V72.7784H51.0768C51.1419 72.7786 51.2064 72.7659 51.2666 72.7411C51.3268 72.7164 51.3815 72.6799 51.4276 72.634C51.4737 72.588 51.5103 72.5334 51.5353 72.4733C51.5602 72.4132 51.5731 72.3487 51.5731 72.2836C51.5731 72.2185 51.5602 72.154 51.5353 72.0939C51.5103 72.0338 51.4737 71.9792 51.4276 71.9332C51.3815 71.8873 51.3268 71.8508 51.2666 71.8261C51.2064 71.8013 51.1419 71.7886 51.0768 71.7888Z" fill="#F7941E"/>
<path d="M88.1858 114.835C90.3719 114.835 92.1441 113.063 92.1441 110.877C92.1441 108.691 90.3719 106.919 88.1858 106.919C85.9997 106.919 84.2275 108.691 84.2275 110.877C84.2275 113.063 85.9997 114.835 88.1858 114.835Z" fill="#E6E6E6"/>
<path d="M103.524 114.835C105.71 114.835 107.482 113.063 107.482 110.877C107.482 108.691 105.71 106.919 103.524 106.919C101.338 106.919 99.5654 108.691 99.5654 110.877C99.5654 113.063 101.338 114.835 103.524 114.835Z" fill="#F7941E"/>
<path d="M118.862 114.835C121.048 114.835 122.82 113.063 122.82 110.877C122.82 108.691 121.048 106.919 118.862 106.919C116.676 106.919 114.904 108.691 114.904 110.877C114.904 113.063 116.676 114.835 118.862 114.835Z" fill="#E6E6E6"/>
<path d="M53.3873 83.6793C53.5488 83.6737 53.7019 83.6055 53.8143 83.4892C53.9266 83.373 53.9894 83.2176 53.9894 83.0559C53.9894 82.8943 53.9266 82.7389 53.8143 82.6226C53.7019 82.5063 53.5488 82.4382 53.3873 82.4326C53.2257 82.4382 53.0726 82.5063 52.9603 82.6226C52.8479 82.7389 52.7852 82.8943 52.7852 83.0559C52.7852 83.2176 52.8479 83.373 52.9603 83.4892C53.0726 83.6055 53.2257 83.6737 53.3873 83.6793Z" fill="#3F3D56"/>
<path d="M57.3453 83.6793C57.5068 83.6737 57.6599 83.6055 57.7723 83.4892C57.8846 83.373 57.9474 83.2176 57.9474 83.0559C57.9474 82.8943 57.8846 82.7389 57.7723 82.6226C57.6599 82.5063 57.5068 82.4382 57.3453 82.4326C57.1837 82.4382 57.0306 82.5063 56.9183 82.6226C56.8059 82.7389 56.7432 82.8943 56.7432 83.0559C56.7432 83.2176 56.8059 83.373 56.9183 83.4892C57.0306 83.6055 57.1837 83.6737 57.3453 83.6793Z" fill="#3F3D56"/>
<path d="M61.3038 83.6793C61.4653 83.6737 61.6184 83.6055 61.7307 83.4892C61.8431 83.373 61.9059 83.2176 61.9059 83.0559C61.9059 82.8943 61.8431 82.7389 61.7307 82.6226C61.6184 82.5063 61.4653 82.4382 61.3038 82.4326C61.1422 82.4382 60.9891 82.5063 60.8768 82.6226C60.7644 82.7389 60.7017 82.8943 60.7017 83.0559C60.7017 83.2176 60.7644 83.373 60.8768 83.4892C60.9891 83.6055 61.1422 83.6737 61.3038 83.6793Z" fill="#3F3D56"/>
</g>
<defs>
<clipPath id="clip0_1_6896">
<rect width="337.838" height="176.11" fill="white"/>
</clipPath>
</defs>
</svg>
