<svg width="39" height="33" viewBox="0 0 39 33" fill="none" xmlns="http://www.w3.org/2000/svg">
<path d="M2.20067 19.9394C2.09672 19.8816 2.07904 19.7394 2.1657 19.658L17.852 4.91586C17.9076 4.86356 17.9907 4.85323 18.0575 4.89032L36.8751 15.3443C36.979 15.4021 36.9967 15.5443 36.91 15.6257L21.2238 30.3678L21.344 30.4958L21.2238 30.3678C21.1681 30.4201 21.085 30.4305 21.0183 30.3934L2.20067 19.9394Z" fill="#111111" stroke="#111111" stroke-width="0.351142"/>
<path d="M17.9545 27.8235C17.7466 27.708 17.7112 27.4236 17.8846 27.2607L19.876 25.3891C19.9873 25.2845 20.1535 25.2638 20.287 25.338L22.6761 26.6652C22.884 26.7807 22.9193 27.0652 22.746 27.2281L20.7545 29.0997C20.6432 29.2043 20.4771 29.2249 20.3435 29.1507L17.9545 27.8235Z" fill="#F5F5F5"/>
<path d="M13.0385 25.0144C12.8306 24.8989 12.7953 24.6145 12.9686 24.4516L14.9601 22.58C15.0714 22.4754 15.2375 22.4547 15.3711 22.5289L17.7601 23.8561C17.968 23.9716 18.0033 24.256 17.83 24.4189L15.8385 26.2905C15.7272 26.3951 15.5611 26.4158 15.4275 26.3416L13.0385 25.0144Z" fill="#F5F5F5"/>
<path d="M8.12251 22.2053C7.9146 22.0898 7.87925 21.8053 8.05256 21.6424L10.044 19.7708C10.1553 19.6662 10.3215 19.6456 10.455 19.7198L12.8441 21.047C13.052 21.1625 13.0873 21.4469 12.914 21.6098L10.9225 23.4814C10.8112 23.586 10.6451 23.6067 10.5115 23.5325L8.12251 22.2053Z" fill="#F5F5F5"/>
<path d="M3.55769 19.7473C3.34978 19.6318 3.31443 19.3473 3.48774 19.1844L5.47922 17.3128C5.59052 17.2082 5.75669 17.1876 5.89022 17.2618L8.27924 18.589C8.48715 18.7045 8.5225 18.9889 8.34918 19.1518L6.35771 21.0234C6.2464 21.128 6.08024 21.1487 5.94671 21.0745L3.55769 19.7473Z" fill="#F5F5F5"/>
<path d="M22.5193 24.3121C22.3114 24.1966 22.2761 23.9122 22.4494 23.7493L24.4409 21.8777C24.5522 21.7731 24.7183 21.7524 24.8519 21.8266L27.2409 23.1538C27.4488 23.2693 27.4841 23.5538 27.3108 23.7166L25.3194 25.5882C25.208 25.6929 25.0419 25.7135 24.9083 25.6393L22.5193 24.3121Z" fill="#F5F5F5"/>
<path d="M26.733 20.4496C26.5251 20.3341 26.4898 20.0496 26.6631 19.8867L28.6546 18.0151C28.7659 17.9105 28.932 17.8899 29.0656 17.964L31.4546 19.2912C31.6625 19.4068 31.6979 19.6912 31.5245 19.8541L29.5331 21.7257C29.4218 21.8303 29.2556 21.8509 29.1221 21.7768L26.733 20.4496Z" fill="#F5F5F5"/>
<path d="M30.9468 16.587C30.7388 16.4715 30.7035 16.1871 30.8768 16.0242L32.8683 14.1526C32.9796 14.048 33.1458 14.0273 33.2793 14.1015L35.6683 15.4287C35.8762 15.5442 35.9116 15.8286 35.7383 15.9915L33.7468 17.8631C33.6355 17.9677 33.4693 17.9884 33.3358 17.9142L30.9468 16.587Z" fill="#F5F5F5"/>
<path d="M2.1249 17.5445C2.02094 17.4867 2.00327 17.3445 2.08993 17.2631L17.7762 2.52097C17.8318 2.46866 17.9149 2.45834 17.9817 2.49543L36.7993 12.9494C36.9033 13.0072 36.9209 13.1494 36.8343 13.2308L21.148 27.9729L21.2682 28.1009L21.148 27.9729C21.0924 28.0252 21.0093 28.0356 20.9425 27.9985L2.1249 17.5445Z" fill="#111111" stroke="#F5F5F5" stroke-width="0.351142"/>
<path d="M17.9545 25.7167C17.7466 25.6012 17.7112 25.3167 17.8846 25.1539L19.876 23.2823C19.9873 23.1776 20.1535 23.157 20.287 23.2312L22.6761 24.5584C22.884 24.6739 22.9193 24.9583 22.746 25.1212L20.7545 26.9928C20.6432 27.0974 20.4771 27.1181 20.3435 27.0439L17.9545 25.7167Z" fill="#F5F5F5"/>
<path d="M13.0385 22.9076C12.8306 22.7921 12.7953 22.5076 12.9686 22.3447L14.9601 20.4731C15.0714 20.3685 15.2375 20.3479 15.3711 20.422L17.7601 21.7492C17.968 21.8647 18.0033 22.1492 17.83 22.3121L15.8385 24.1837C15.7272 24.2883 15.5611 24.3089 15.4275 24.2348L13.0385 22.9076Z" fill="#F5F5F5"/>
<path d="M8.12251 20.0984C7.9146 19.9829 7.87925 19.6985 8.05256 19.5356L10.044 17.664C10.1553 17.5594 10.3215 17.5387 10.455 17.6129L12.8441 18.9401C13.052 19.0556 13.0873 19.3401 12.914 19.5029L10.9225 21.3745C10.8112 21.4792 10.6451 21.4998 10.5115 21.4256L8.12251 20.0984Z" fill="#F5F5F5"/>
<path d="M3.55769 17.6404C3.34978 17.5249 3.31443 17.2405 3.48774 17.0776L5.47922 15.206C5.59052 15.1014 5.75669 15.0807 5.89022 15.1549L8.27924 16.4821C8.48715 16.5976 8.5225 16.8821 8.34918 17.0449L6.35771 18.9166C6.2464 19.0212 6.08024 19.0418 5.94671 18.9676L3.55769 17.6404Z" fill="#F5F5F5"/>
<path d="M22.1682 21.8541C21.9603 21.7386 21.9249 21.4542 22.0982 21.2913L24.0897 19.4197C24.201 19.3151 24.3672 19.2944 24.5007 19.3686L26.8897 20.6958C27.0977 20.8113 27.133 21.0958 26.9597 21.2586L24.9682 23.1302C24.8569 23.2349 24.6907 23.2555 24.5572 23.1813L22.1682 21.8541Z" fill="#F5F5F5"/>
<path d="M17.2522 19.045C17.0443 18.9295 17.0089 18.645 17.1823 18.4822L19.1737 16.6106C19.285 16.5059 19.4512 16.4853 19.5847 16.5595L21.9738 17.8867C22.1817 18.0022 22.217 18.2866 22.0437 18.4495L20.0522 20.3211C19.9409 20.4257 19.7748 20.4464 19.6412 20.3722L17.2522 19.045Z" fill="#F5F5F5"/>
<path d="M12.3362 16.2359C12.1283 16.1204 12.093 15.8359 12.2663 15.673L14.2578 13.8014C14.3691 13.6968 14.5352 13.6762 14.6688 13.7503L17.0578 15.0775C17.2657 15.193 17.301 15.4775 17.1277 15.6404L15.1362 17.512C15.0249 17.6166 14.8588 17.6372 14.7252 17.5631L12.3362 16.2359Z" fill="#F5F5F5"/>
<path d="M7.77138 13.7779C7.56346 13.6624 7.52811 13.3779 7.70143 13.215L9.6929 11.3434C9.80421 11.2388 9.97037 11.2182 10.1039 11.2923L12.4929 12.6196C12.7008 12.7351 12.7362 13.0195 12.5629 13.1824L10.5714 15.054C10.4601 15.1586 10.2939 15.1792 10.1604 15.1051L7.77138 13.7779Z" fill="#F5F5F5"/>
<path d="M26.3819 17.9916C26.174 17.8761 26.1386 17.5916 26.312 17.4287L28.3034 15.5571C28.4147 15.4525 28.5809 15.4319 28.7144 15.506L31.1035 16.8332C31.3114 16.9488 31.3467 17.2332 31.1734 17.3961L29.1819 19.2677C29.0706 19.3723 28.9045 19.3929 28.7709 19.3188L26.3819 17.9916Z" fill="#F5F5F5"/>
<path d="M21.4659 15.1824C21.258 15.0669 21.2227 14.7825 21.396 14.6196L23.3875 12.748C23.4988 12.6434 23.6649 12.6227 23.7985 12.6969L26.1875 14.0241C26.3954 14.1396 26.4307 14.4241 26.2574 14.587L24.2659 16.4586C24.1546 16.5632 23.9885 16.5838 23.8549 16.5096L21.4659 15.1824Z" fill="#F5F5F5"/>
<path d="M16.5499 12.3733C16.342 12.2578 16.3067 11.9734 16.48 11.8105L18.4715 9.93886C18.5828 9.83426 18.7489 9.8136 18.8825 9.88779L21.2715 11.215C21.4794 11.3305 21.5147 11.6149 21.3414 11.7778L19.35 13.6494C19.2387 13.754 19.0725 13.7747 18.939 13.7005L16.5499 12.3733Z" fill="#F5F5F5"/>
<path d="M11.9851 9.9153C11.7772 9.7998 11.7418 9.51535 11.9151 9.35247L13.9066 7.48086C14.0179 7.37626 14.1841 7.3556 14.3176 7.42978L16.7066 8.75699C16.9145 8.87249 16.9499 9.15693 16.7766 9.31982L14.7851 11.1914C14.6738 11.296 14.5076 11.3167 14.3741 11.2425L11.9851 9.9153Z" fill="#F5F5F5"/>
<path d="M30.5956 14.129C30.3877 14.0135 30.3524 13.7291 30.5257 13.5662L32.5171 11.6946C32.6285 11.59 32.7946 11.5693 32.9282 11.6435L35.3172 12.9707C35.5251 13.0862 35.5604 13.3706 35.3871 13.5335L33.3956 15.4051C33.2843 15.5097 33.1182 15.5304 32.9846 15.4562L30.5956 14.129Z" fill="#F5F5F5"/>
<path d="M25.6796 11.3199C25.4717 11.2044 25.4363 10.9199 25.6097 10.757L27.6011 8.88544C27.7124 8.78083 27.8786 8.76018 28.0121 8.83436L30.4012 10.1616C30.6091 10.2771 30.6444 10.5615 30.4711 10.7244L28.4796 12.596C28.3683 12.7006 28.2022 12.7213 28.0686 12.6471L25.6796 11.3199Z" fill="#F5F5F5"/>
<path d="M20.7636 8.51074C20.5557 8.39523 20.5204 8.11079 20.6937 7.9479L22.6851 6.0763C22.7965 5.97169 22.9626 5.95104 23.0962 6.02522L25.4852 7.35242C25.6931 7.46793 25.7284 7.75237 25.5551 7.91525L23.5636 9.78686C23.4523 9.89147 23.2862 9.91212 23.1526 9.83794L20.7636 8.51074Z" fill="#F5F5F5"/>
<path d="M16.1988 6.05274C15.9909 5.93724 15.9555 5.6528 16.1289 5.48991L18.1203 3.61831C18.2316 3.5137 18.3978 3.49305 18.5313 3.56723L20.9203 4.89443C21.1283 5.00993 21.1636 5.29438 20.9903 5.45726L18.9988 7.32887C18.8875 7.43347 18.7214 7.45413 18.5878 7.37994L16.1988 6.05274Z" fill="#F5F5F5"/>
</svg>
