<svg width="56" height="56" viewBox="0 0 56 56" fill="none" xmlns="http://www.w3.org/2000/svg">
<rect x="2.5" y="2.5" width="51.85" height="51.85" rx="25.925" fill="#F5F5F5"/>
<rect x="2.5" y="2.5" width="51.85" height="51.85" rx="25.925" stroke="#F72F2F"/>
<path d="M11.2007 31.9394C11.0967 31.8816 11.079 31.7394 11.1657 31.658L26.852 16.9159C26.9076 16.8636 26.9907 16.8532 27.0575 16.8903L45.8751 27.3443C45.979 27.4021 45.9967 27.5443 45.91 27.6257L30.2238 42.3678L30.344 42.4958L30.2238 42.3678C30.1681 42.4201 30.085 42.4305 30.0183 42.3934L11.2007 31.9394Z" fill="#111111" stroke="#111111" stroke-width="0.351142"/>
<path d="M26.9545 39.8235C26.7466 39.708 26.7112 39.4236 26.8846 39.2607L28.876 37.3891C28.9873 37.2845 29.1535 37.2638 29.287 37.338L31.6761 38.6652C31.884 38.7807 31.9193 39.0652 31.746 39.2281L29.7545 41.0997C29.6432 41.2043 29.4771 41.2249 29.3435 41.1507L26.9545 39.8235Z" fill="#F5F5F5"/>
<path d="M22.0385 37.0144C21.8306 36.8989 21.7953 36.6145 21.9686 36.4516L23.9601 34.58C24.0714 34.4754 24.2375 34.4547 24.3711 34.5289L26.7601 35.8561C26.968 35.9716 27.0033 36.256 26.83 36.4189L24.8385 38.2905C24.7272 38.3951 24.5611 38.4158 24.4275 38.3416L22.0385 37.0144Z" fill="#F5F5F5"/>
<path d="M17.1225 34.2053C16.9146 34.0898 16.8792 33.8053 17.0526 33.6424L19.044 31.7708C19.1553 31.6662 19.3215 31.6456 19.455 31.7198L21.8441 33.047C22.052 33.1625 22.0873 33.4469 21.914 33.6098L19.9225 35.4814C19.8112 35.586 19.6451 35.6067 19.5115 35.5325L17.1225 34.2053Z" fill="#F5F5F5"/>
<path d="M12.5577 31.7473C12.3498 31.6318 12.3144 31.3473 12.4877 31.1844L14.4792 29.3128C14.5905 29.2082 14.7567 29.1876 14.8902 29.2618L17.2792 30.589C17.4871 30.7045 17.5225 30.9889 17.3492 31.1518L15.3577 33.0234C15.2464 33.128 15.0802 33.1487 14.9467 33.0745L12.5577 31.7473Z" fill="#F5F5F5"/>
<path d="M31.5193 36.3121C31.3114 36.1966 31.2761 35.9122 31.4494 35.7493L33.4409 33.8777C33.5522 33.7731 33.7183 33.7524 33.8519 33.8266L36.2409 35.1538C36.4488 35.2693 36.4841 35.5538 36.3108 35.7166L34.3194 37.5882C34.208 37.6929 34.0419 37.7135 33.9083 37.6393L31.5193 36.3121Z" fill="#F5F5F5"/>
<path d="M35.733 32.4496C35.5251 32.3341 35.4898 32.0496 35.6631 31.8867L37.6546 30.0151C37.7659 29.9105 37.932 29.8899 38.0656 29.964L40.4546 31.2912C40.6625 31.4068 40.6979 31.6912 40.5245 31.8541L38.5331 33.7257C38.4218 33.8303 38.2556 33.8509 38.1221 33.7768L35.733 32.4496Z" fill="#F5F5F5"/>
<path d="M39.9468 28.587C39.7388 28.4715 39.7035 28.1871 39.8768 28.0242L41.8683 26.1526C41.9796 26.048 42.1458 26.0273 42.2793 26.1015L44.6683 27.4287C44.8762 27.5442 44.9116 27.8286 44.7383 27.9915L42.7468 29.8631C42.6355 29.9677 42.4693 29.9884 42.3358 29.9142L39.9468 28.587Z" fill="#F5F5F5"/>
<path d="M11.1249 29.5445C11.0209 29.4867 11.0033 29.3445 11.0899 29.2631L26.7762 14.521C26.8318 14.4687 26.9149 14.4583 26.9817 14.4954L45.7993 24.9494C45.9033 25.0072 45.9209 25.1494 45.8343 25.2308L30.148 39.9729L30.2682 40.1009L30.148 39.9729C30.0924 40.0252 30.0093 40.0356 29.9425 39.9985L11.1249 29.5445Z" fill="#111111" stroke="#F5F5F5" stroke-width="0.351142"/>
<path d="M26.9545 37.7167C26.7466 37.6012 26.7112 37.3167 26.8846 37.1539L28.876 35.2823C28.9873 35.1776 29.1535 35.157 29.287 35.2312L31.6761 36.5584C31.884 36.6739 31.9193 36.9583 31.746 37.1212L29.7545 38.9928C29.6432 39.0974 29.4771 39.1181 29.3435 39.0439L26.9545 37.7167Z" fill="#F5F5F5"/>
<path d="M22.0385 34.9076C21.8306 34.7921 21.7953 34.5076 21.9686 34.3447L23.9601 32.4731C24.0714 32.3685 24.2375 32.3479 24.3711 32.422L26.7601 33.7492C26.968 33.8647 27.0033 34.1492 26.83 34.3121L24.8385 36.1837C24.7272 36.2883 24.5611 36.3089 24.4275 36.2348L22.0385 34.9076Z" fill="#F5F5F5"/>
<path d="M17.1225 32.0984C16.9146 31.9829 16.8792 31.6985 17.0526 31.5356L19.044 29.664C19.1553 29.5594 19.3215 29.5387 19.455 29.6129L21.8441 30.9401C22.052 31.0556 22.0873 31.3401 21.914 31.5029L19.9225 33.3745C19.8112 33.4792 19.6451 33.4998 19.5115 33.4256L17.1225 32.0984Z" fill="#F5F5F5"/>
<path d="M12.5577 29.6404C12.3498 29.5249 12.3144 29.2405 12.4877 29.0776L14.4792 27.206C14.5905 27.1014 14.7567 27.0807 14.8902 27.1549L17.2792 28.4821C17.4871 28.5976 17.5225 28.8821 17.3492 29.0449L15.3577 30.9166C15.2464 31.0212 15.0802 31.0418 14.9467 30.9676L12.5577 29.6404Z" fill="#F5F5F5"/>
<path d="M31.1682 33.8541C30.9603 33.7386 30.9249 33.4542 31.0982 33.2913L33.0897 31.4197C33.201 31.3151 33.3672 31.2944 33.5007 31.3686L35.8897 32.6958C36.0977 32.8113 36.133 33.0958 35.9597 33.2586L33.9682 35.1302C33.8569 35.2349 33.6907 35.2555 33.5572 35.1813L31.1682 33.8541Z" fill="#F5F5F5"/>
<path d="M26.2522 31.045C26.0443 30.9295 26.0089 30.645 26.1823 30.4822L28.1737 28.6106C28.285 28.5059 28.4512 28.4853 28.5847 28.5595L30.9738 29.8867C31.1817 30.0022 31.217 30.2866 31.0437 30.4495L29.0522 32.3211C28.9409 32.4257 28.7748 32.4464 28.6412 32.3722L26.2522 31.045Z" fill="#F5F5F5"/>
<path d="M21.3362 28.2359C21.1283 28.1204 21.093 27.8359 21.2663 27.673L23.2578 25.8014C23.3691 25.6968 23.5352 25.6762 23.6688 25.7503L26.0578 27.0775C26.2657 27.193 26.301 27.4775 26.1277 27.6404L24.1362 29.512C24.0249 29.6166 23.8588 29.6372 23.7252 29.5631L21.3362 28.2359Z" fill="#F5F5F5"/>
<path d="M16.7714 25.7779C16.5635 25.6624 16.5281 25.3779 16.7014 25.215L18.6929 23.3434C18.8042 23.2388 18.9704 23.2182 19.1039 23.2923L21.4929 24.6196C21.7008 24.7351 21.7362 25.0195 21.5629 25.1824L19.5714 27.054C19.4601 27.1586 19.2939 27.1792 19.1604 27.1051L16.7714 25.7779Z" fill="#F5F5F5"/>
<path d="M35.3819 29.9916C35.174 29.8761 35.1386 29.5916 35.312 29.4287L37.3034 27.5571C37.4147 27.4525 37.5809 27.4319 37.7144 27.506L40.1035 28.8332C40.3114 28.9488 40.3467 29.2332 40.1734 29.3961L38.1819 31.2677C38.0706 31.3723 37.9045 31.3929 37.7709 31.3188L35.3819 29.9916Z" fill="#F5F5F5"/>
<path d="M30.4659 27.1824C30.258 27.0669 30.2227 26.7825 30.396 26.6196L32.3875 24.748C32.4988 24.6434 32.6649 24.6227 32.7985 24.6969L35.1875 26.0241C35.3954 26.1396 35.4307 26.4241 35.2574 26.587L33.2659 28.4586C33.1546 28.5632 32.9885 28.5838 32.8549 28.5096L30.4659 27.1824Z" fill="#F5F5F5"/>
<path d="M25.5499 24.3733C25.342 24.2578 25.3067 23.9734 25.48 23.8105L27.4715 21.9389C27.5828 21.8343 27.7489 21.8136 27.8825 21.8878L30.2715 23.215C30.4794 23.3305 30.5147 23.6149 30.3414 23.7778L28.35 25.6494C28.2387 25.754 28.0725 25.7747 27.939 25.7005L25.5499 24.3733Z" fill="#F5F5F5"/>
<path d="M20.9851 21.9153C20.7772 21.7998 20.7418 21.5154 20.9151 21.3525L22.9066 19.4809C23.0179 19.3763 23.1841 19.3556 23.3176 19.4298L25.7066 20.757C25.9145 20.8725 25.9499 21.1569 25.7766 21.3198L23.7851 23.1914C23.6738 23.296 23.5076 23.3167 23.3741 23.2425L20.9851 21.9153Z" fill="#F5F5F5"/>
<path d="M39.5956 26.129C39.3877 26.0135 39.3524 25.7291 39.5257 25.5662L41.5171 23.6946C41.6285 23.59 41.7946 23.5693 41.9282 23.6435L44.3172 24.9707C44.5251 25.0862 44.5604 25.3706 44.3871 25.5335L42.3956 27.4051C42.2843 27.5097 42.1182 27.5304 41.9846 27.4562L39.5956 26.129Z" fill="#F5F5F5"/>
<path d="M34.6796 23.3199C34.4717 23.2044 34.4363 22.9199 34.6097 22.757L36.6011 20.8854C36.7124 20.7808 36.8786 20.7602 37.0121 20.8344L39.4012 22.1616C39.6091 22.2771 39.6444 22.5615 39.4711 22.7244L37.4796 24.596C37.3683 24.7006 37.2022 24.7213 37.0686 24.6471L34.6796 23.3199Z" fill="#F5F5F5"/>
<path d="M29.7636 20.5107C29.5557 20.3952 29.5204 20.1108 29.6937 19.9479L31.6851 18.0763C31.7965 17.9717 31.9626 17.951 32.0962 18.0252L34.4852 19.3524C34.6931 19.4679 34.7284 19.7524 34.5551 19.9153L32.5636 21.7869C32.4523 21.8915 32.2862 21.9121 32.1526 21.8379L29.7636 20.5107Z" fill="#F5F5F5"/>
<path d="M25.1988 18.0527C24.9909 17.9372 24.9555 17.6528 25.1289 17.4899L27.1203 15.6183C27.2316 15.5137 27.3978 15.493 27.5313 15.5672L29.9203 16.8944C30.1283 17.0099 30.1636 17.2944 29.9903 17.4573L27.9988 19.3289C27.8875 19.4335 27.7214 19.4541 27.5878 19.3799L25.1988 18.0527Z" fill="#F5F5F5"/>
</svg>
