<svg width="56" height="56" viewBox="0 0 56 56" fill="none" xmlns="http://www.w3.org/2000/svg">
<rect x="2.5" y="2.5" width="51.85" height="51.85" rx="25.925" fill="#F5F5F5"/>
<rect x="2.5" y="2.5" width="51.85" height="51.85" rx="25.925" stroke="#F72F2F"/>
<g clip-path="url(#clip0_1408_4828)">
<path d="M27.97 10C23.3963 10 20.1425 11.8707 18.2887 14.4476C18.2125 15.0535 18.2914 15.704 18.5358 16.6938C18.7111 17.4026 19.2682 17.9639 19.9734 18.401C21.0573 17.0015 22.9528 15.3135 25.8136 15.2338C26.0558 16.0352 26.2391 17.1224 26.173 18.5133C26.1543 18.9101 26.4501 19.2583 26.8469 19.277C26.8584 19.277 26.8803 19.277 26.8918 19.277C27.2728 19.277 27.5926 18.966 27.6106 18.5807C27.7163 16.3524 27.3107 15.1058 26.9592 14.1556C28.4385 14.3568 30.6612 14.832 31.2945 18.109C31.3692 18.4986 31.736 18.7677 32.1256 18.693C32.5152 18.6175 32.7851 18.229 32.7096 17.8394C32.5119 16.8158 32.1656 16.005 31.7437 15.3236C33.7563 15.2064 35.3099 15.9707 36.1688 17.5025C36.8855 17.1014 37.3595 16.7434 37.5615 15.975C37.7635 15.2066 37.7205 14.932 37.6738 13.9983C36.0989 11.8419 33.2172 10 27.97 10ZM38.8194 16.1772C38.6275 18.6182 35.4001 19.5343 32.1705 20.3552C29.9659 20.9159 27.8996 21.4471 26.8918 22.871C25.3212 25.0403 23.4326 28.8588 23.4326 34.6638C23.4326 38.8954 24.819 44.3727 28.7113 45.8951L28.846 45.94H29.0033C30.0484 45.8997 32.6129 45.7711 33.9226 45.4907C35.6448 45.1464 36.9811 43.7106 37.1572 42.0315C37.2542 41.4299 39.5382 27.2313 39.5382 20.0857C39.5907 17.9587 38.9869 16.5517 38.8194 16.1772ZM17.0982 16.6938L16.7163 17.9068C16.482 18.7873 16.4692 20.0043 16.4692 20.0632C16.4692 24.7311 18.7561 41.3102 18.8502 41.9866C19.0271 43.7491 20.4098 45.232 22.2421 45.5806C22.7797 45.6705 24.4001 45.7725 25.9484 45.8502C23.0789 43.302 21.995 38.6647 21.995 34.6638C21.995 28.4908 24.0186 24.3941 25.7013 22.0624C24.8452 21.6792 23.8454 21.3838 22.8261 21.074C20.0235 20.223 17.0867 19.0206 17.0982 16.6938ZM23.9492 18.4684C23.7811 18.4892 23.6257 18.5688 23.5106 18.6931C23.3954 18.8174 23.3278 18.9783 23.3198 19.1476C23.3117 19.3168 23.3637 19.4834 23.4665 19.6181C23.5693 19.7527 23.7164 19.8467 23.8818 19.8835C23.8818 19.8835 24.6311 20.1429 25.1173 20.7371C25.1756 20.8159 25.2493 20.882 25.3341 20.9313C25.4189 20.9805 25.5128 21.0119 25.6102 21.0236C25.7075 21.0352 25.8062 21.0268 25.9002 20.9988C25.9942 20.9709 26.0815 20.924 26.1567 20.8611C26.2319 20.7982 26.2934 20.7205 26.3375 20.633C26.3815 20.5454 26.4072 20.4497 26.413 20.3518C26.4187 20.254 26.4044 20.1559 26.3708 20.0638C26.3373 19.9717 26.2853 19.8874 26.2179 19.8161C25.4103 18.829 24.3086 18.5133 24.3086 18.5133C24.2366 18.4864 24.1608 18.4712 24.084 18.4684C24.0392 18.4641 23.994 18.4641 23.9492 18.4684ZM29.4076 27.2512C30.2012 27.2512 30.8452 27.8952 30.8452 28.6888C30.8452 29.4824 30.2012 30.1264 29.4076 30.1264C28.6141 30.1264 27.97 29.4824 27.97 28.6888C27.97 27.8952 28.6141 27.2512 29.4076 27.2512ZM31.564 31.564C31.9615 31.564 32.2828 31.8853 32.2828 32.2828C32.2828 32.6803 31.9615 33.0016 31.564 33.0016C31.1665 33.0016 30.8452 32.6803 30.8452 32.2828C30.8452 31.8853 31.1665 31.564 31.564 31.564Z" fill="#111111"/>
<path d="M29.4076 27.2512C30.2012 27.2512 30.8452 27.8952 30.8452 28.6888C30.8452 29.4824 30.2012 30.1264 29.4076 30.1264C28.6141 30.1264 27.97 29.4824 27.97 28.6888C27.97 27.8952 28.6141 27.2512 29.4076 27.2512Z" fill="#111111"/>
<path d="M31.564 31.564C31.9615 31.564 32.2828 31.8853 32.2828 32.2828C32.2828 32.6803 31.9615 33.0016 31.564 33.0016C31.1665 33.0016 30.8452 32.6803 30.8452 32.2828C30.8452 31.8853 31.1665 31.564 31.564 31.564Z" fill="#111111"/>
</g>
<defs>
<clipPath id="clip0_1408_4828">
<rect width="35.94" height="35.94" fill="white" transform="translate(10 10)"/>
</clipPath>
</defs>
</svg>
