<svg width="35" height="35" viewBox="0 0 35 35" fill="none" xmlns="http://www.w3.org/2000/svg">
<path d="M17.5 0C13.0459 0 9.87716 1.82175 8.07186 4.33125C7.99766 4.92135 8.07449 5.55485 8.31249 6.51875C8.48329 7.20895 9.02579 7.75565 9.71249 8.18125C10.7681 6.81835 12.614 5.17458 15.4 5.09688C15.6359 5.87738 15.8144 6.93613 15.75 8.29063C15.7318 8.67703 16.0198 9.01617 16.4062 9.03437C16.4174 9.03437 16.4388 9.03437 16.45 9.03437C16.821 9.03437 17.1325 8.73145 17.15 8.35625C17.2529 6.18625 16.8579 4.97228 16.5156 4.04688C17.9562 4.24288 20.1208 4.70558 20.7375 7.89688C20.8103 8.27628 21.1675 8.53843 21.5469 8.46563C21.9263 8.39213 22.1891 8.01378 22.1156 7.63438C21.9231 6.63758 21.5859 5.84798 21.175 5.18438C23.135 5.07028 24.6479 5.81455 25.4844 7.30625C26.1823 6.91565 26.6439 6.56705 26.8406 5.81875C27.0373 5.07045 26.9955 4.80305 26.95 3.89375C25.4163 1.79375 22.61 0 17.5 0ZM28.0656 6.01563C27.8787 8.39283 24.7357 9.28498 21.5906 10.0844C19.4437 10.6304 17.4314 11.1477 16.45 12.5344C14.9205 14.647 13.0812 18.3656 13.0812 24.0188C13.0812 28.1397 14.4314 33.4737 18.2219 34.9563L18.3531 35H18.5062C19.524 34.9608 22.0215 34.8355 23.2969 34.5625C24.9741 34.2272 26.2754 32.829 26.4469 31.1938C26.5414 30.6079 28.7656 16.7806 28.7656 9.82188C28.8167 7.75058 28.2287 6.38033 28.0656 6.01563ZM6.91249 6.51875L6.54061 7.7C6.31241 8.5575 6.29999 9.7426 6.29999 9.8C6.29999 14.3458 8.52704 30.4913 8.61874 31.15C8.79094 32.8664 10.1376 34.3105 11.9219 34.65C12.4455 34.7375 14.0234 34.8369 15.5312 34.9125C12.7368 32.431 11.6812 27.915 11.6812 24.0188C11.6812 18.0072 13.6519 14.0177 15.2906 11.7469C14.4569 11.3738 13.4832 11.0861 12.4906 10.7844C9.76131 9.95558 6.90129 8.78465 6.91249 6.51875ZM13.5844 8.24688C13.4206 8.26721 13.2693 8.34472 13.1572 8.46574C13.045 8.58676 12.9792 8.7435 12.9714 8.90831C12.9635 9.07312 13.0141 9.23541 13.1143 9.36653C13.2144 9.49766 13.3577 9.5892 13.5187 9.625C13.5187 9.625 14.2484 9.87757 14.7219 10.4563C14.7786 10.533 14.8505 10.5974 14.933 10.6454C15.0156 10.6933 15.1071 10.7239 15.2019 10.7352C15.2967 10.7466 15.3928 10.7384 15.4843 10.7111C15.5759 10.6839 15.6608 10.6383 15.7341 10.577C15.8073 10.5157 15.8672 10.4401 15.9101 10.3549C15.9531 10.2696 15.9781 10.1764 15.9837 10.0811C15.9893 9.98576 15.9753 9.89031 15.9426 9.80059C15.91 9.71087 15.8593 9.62879 15.7937 9.55938C15.0072 8.59806 13.9344 8.29063 13.9344 8.29063C13.8643 8.26444 13.7904 8.24967 13.7156 8.24688C13.672 8.24277 13.628 8.24277 13.5844 8.24688ZM18.9 16.8C19.6728 16.8 20.3 17.4272 20.3 18.2C20.3 18.9728 19.6728 19.6 18.9 19.6C18.1272 19.6 17.5 18.9728 17.5 18.2C17.5 17.4272 18.1272 16.8 18.9 16.8ZM21 21C21.3871 21 21.7 21.3129 21.7 21.7C21.7 22.0871 21.3871 22.4 21 22.4C20.6129 22.4 20.3 22.0871 20.3 21.7C20.3 21.3129 20.6129 21 21 21Z" fill="#111111"/>
<path d="M18.9 16.8C19.6728 16.8 20.3 17.4272 20.3 18.2C20.3 18.9728 19.6728 19.6 18.9 19.6C18.1272 19.6 17.5 18.9728 17.5 18.2C17.5 17.4272 18.1272 16.8 18.9 16.8Z" fill="#111111"/>
<path d="M21 21C21.3871 21 21.7 21.3129 21.7 21.7C21.7 22.0871 21.3871 22.4 21 22.4C20.6129 22.4 20.3 22.0871 20.3 21.7C20.3 21.3129 20.6129 21 21 21Z" fill="#111111"/>
</svg>
