<svg width="32" height="32" viewBox="0 0 32 32" fill="none" xmlns="http://www.w3.org/2000/svg">
<rect x="0.25" y="0.25" width="31.5" height="31.5" rx="15.75" fill="#F5F5F5"/>
<rect x="0.25" y="0.25" width="31.5" height="31.5" rx="15.75" stroke="#FE7F7F" stroke-width="0.5"/>
<path d="M17.008 6H15.01V18.5H17.008V6Z" fill="#FFC107"/>
<path d="M14.3154 6.50028L12.3228 6.64674L13.239 19.113L15.2316 18.9665L14.3154 6.50028Z" fill="#FFC107"/>
<path d="M11.6734 8.00129L9.6997 8.31525L11.6634 20.6598L13.6371 20.3458L11.6734 8.00129Z" fill="#FFC107"/>
<path d="M17.0063 19.4673L18.9984 19.6137L19.9146 7.14743L17.9225 7.00101L17.0063 19.4673Z" fill="#FFC107"/>
<path d="M18.5675 19.6863L20.5407 20.0002L22.5044 7.65569L20.5311 7.34181L18.5675 19.6863Z" fill="#FFC107"/>
<path d="M8.94047 8.86233L6.99901 9.33406L9.95003 21.4793L11.8915 21.0076L8.94047 8.86233Z" fill="#FFC107"/>
<path d="M25.0014 9.84751L23.0333 9.50037L20.8621 21.8099L22.8303 22.157L25.0014 9.84751Z" fill="#FFC107"/>
<path d="M15.0251 8.94132L13.0331 9.09516L13.9956 21.5577L15.9876 21.4038L15.0251 8.94132Z" fill="#FFEE58"/>
<path d="M18.5646 9.55462L16.5743 9.38564L15.5168 21.8406L17.5071 22.0096L18.5646 9.55462Z" fill="#FFEE58"/>
<path d="M19.778 23.093L17.8475 22.576L21.071 10.5L23.0015 11.0165L19.778 23.093Z" fill="#FFEE58"/>
<path d="M12.5841 23.5918L14.5142 23.0751L11.2819 11.0011L9.35187 11.5177L12.5841 23.5918Z" fill="#FFEE58"/>
<path d="M21.913 13C21.4365 15.8365 18.978 18 16.0085 18C13.039 18 10.581 15.8365 10.104 13H7.5175L10.015 26C10.015 26 13.5115 25.5 16.009 25.5C18.5065 25.5 22.0025 26 22.0025 26L24.5005 13H21.913Z" fill="#F72F2F"/>
<path d="M24.2125 14.5L24.5005 13H21.913C21.8245 13.5265 21.6675 14.0295 21.4515 14.5H24.2125Z" fill="#F7941E"/>
<path d="M10.566 14.5C10.3505 14.0295 10.193 13.5265 10.1045 13H7.5175L7.8055 14.5H10.566Z" fill="#F7941E"/>
<path d="M21.91 13C21.433 15.8365 18.972 18 16 18C13.028 18 10.567 15.8365 10.09 13H8.575C9.066 16.6635 12.2045 19.5 16 19.5C19.796 19.5 22.934 16.6635 23.4255 13H21.91Z" fill="#F7941E"/>
<path d="M12.5881 20.426C12.5558 20.4929 12.4756 20.5223 12.4083 20.4907C12.2702 20.4258 12.1127 20.3862 11.9645 20.3862C11.7329 20.3862 11.5564 20.4686 11.5564 20.661C11.5564 21.1201 12.7102 20.8847 12.7102 21.6264C12.7102 22.0345 12.3491 22.2151 11.9527 22.2151C11.6977 22.2151 11.4368 22.1385 11.244 21.9955C11.1934 21.958 11.1781 21.889 11.2066 21.833C11.2417 21.7638 11.329 21.7413 11.3938 21.7839C11.5603 21.8933 11.7699 21.956 11.9645 21.956C12.2078 21.956 12.404 21.8658 12.408 21.6617C12.4197 21.1633 11.262 21.4184 11.2659 20.6845C11.2659 20.2881 11.6074 20.1233 11.9841 20.1233C12.1787 20.1233 12.3684 20.167 12.5246 20.2431C12.5926 20.2762 12.6211 20.3579 12.5881 20.426Z" fill="#F5F5F5"/>
<path d="M14.7446 20.5366C14.699 20.5948 14.6157 20.6083 14.5551 20.566C14.4137 20.4671 14.2408 20.4096 14.0405 20.4096C13.6127 20.4096 13.3066 20.7197 13.3066 21.171C13.3066 21.6223 13.6127 21.9363 14.0405 21.9363C14.2622 21.9363 14.4524 21.8731 14.5937 21.7554C14.6466 21.7114 14.725 21.7172 14.7721 21.7675C14.8213 21.8199 14.8202 21.9036 14.7671 21.9521C14.5849 22.1185 14.3323 22.2149 14.0287 22.2149C13.4283 22.2149 13.0044 21.7871 13.0044 21.171C13.0044 20.5548 13.4322 20.1271 14.0287 20.1271C14.3042 20.1238 14.5396 20.2009 14.7193 20.3384C14.7814 20.3859 14.7927 20.475 14.7446 20.5366Z" fill="#F5F5F5"/>
<path d="M15.3923 22.3149C15.3767 22.4163 15.3607 22.5174 15.3458 22.6188C15.3082 22.8743 15.2754 23.1305 15.2323 23.3851C15.2064 23.5383 15.1341 23.6731 15.0255 23.7858C15.0047 23.8074 14.9999 23.8259 15.0057 23.8557C15.0586 24.1242 15.1094 24.3932 15.1605 24.6622C15.1814 24.772 15.13 24.8565 15.0323 24.8742C14.9419 24.8905 14.8615 24.8249 14.8413 24.7194C14.7952 24.478 14.7481 24.2368 14.703 23.9952C14.6977 23.9667 14.6886 23.9559 14.6588 23.9564C14.5529 23.9579 14.447 23.9577 14.3411 23.9565C14.3132 23.9561 14.3011 23.9632 14.2955 23.9935C14.2512 24.2321 14.2045 24.4702 14.1586 24.7084C14.1562 24.7206 14.1538 24.7329 14.1507 24.7449C14.1276 24.8356 14.0474 24.8906 13.9632 24.8737C13.8728 24.8555 13.817 24.7719 13.834 24.6775C13.8492 24.5933 13.8665 24.5095 13.8827 24.4254C13.9123 24.2715 13.9418 24.1176 13.9722 23.9597C13.9456 23.9581 13.9227 23.9576 13.8999 23.9551C13.8058 23.9451 13.7436 23.8763 13.7472 23.7871C13.7507 23.6991 13.8201 23.6333 13.9138 23.6328C14.135 23.6319 14.3563 23.629 14.5773 23.6337C14.7293 23.6369 14.8203 23.5815 14.876 23.4303C14.9154 23.3238 14.9343 23.2084 14.9514 23.0952C14.9933 22.8183 15.0284 22.5404 15.0672 22.2631C15.0792 22.1776 15.133 22.1214 15.2085 22.1107C15.2829 22.1001 15.346 22.1399 15.3837 22.2207C15.3855 22.2246 15.3894 22.2275 15.3923 22.2308V22.3149Z" fill="#F5F5F5"/>
<path d="M12.8348 24.5485V23.0889H12.7774C12.5157 23.0889 12.254 23.0892 11.9923 23.0888C11.8995 23.0887 11.8361 23.0473 11.814 22.9744C11.7843 22.8766 11.848 22.7787 11.9503 22.7654C11.9642 22.7635 11.9783 22.7637 11.9923 22.7637C12.6637 22.7637 13.335 22.7636 14.0064 22.7638C14.1085 22.7638 14.175 22.8145 14.1887 22.9014C14.202 22.986 14.1487 23.0653 14.0649 23.0827C14.0408 23.0877 14.0155 23.0886 13.9907 23.0887C13.7337 23.0891 13.4767 23.0889 13.2197 23.0889H13.1628V24.5485C13.2084 24.5485 13.2529 24.548 13.2973 24.5486C13.3981 24.5497 13.4676 24.6136 13.4697 24.7064C13.4718 24.799 13.4052 24.8703 13.3047 24.8717C13.1007 24.8746 12.8966 24.8746 12.6926 24.8717C12.5926 24.8702 12.5257 24.7981 12.5282 24.7058C12.5307 24.6131 12.6004 24.5496 12.7013 24.5485C12.7446 24.5481 12.7879 24.5485 12.8348 24.5485Z" fill="#F5F5F5"/>
<path d="M12.0258 23.9568C12.0723 24.199 12.117 24.4326 12.162 24.6662C12.1818 24.769 12.1318 24.8524 12.0374 24.8729C11.95 24.8918 11.8651 24.8321 11.8455 24.7331C11.7984 24.4951 11.7525 24.2568 11.7089 24.0181C11.7006 23.9725 11.687 23.9528 11.6359 23.9555C11.5396 23.9606 11.4428 23.9582 11.3463 23.9563C11.3142 23.9557 11.3011 23.9637 11.2947 23.998C11.2505 24.2381 11.2032 24.4777 11.1575 24.7176C11.1361 24.8299 11.0543 24.8944 10.9591 24.8722C10.8677 24.8509 10.8173 24.7698 10.8358 24.6731C10.8883 24.3981 10.9414 24.1232 10.9929 23.8481C10.9958 23.8324 10.9927 23.8089 10.9827 23.7986C10.83 23.6414 10.7657 23.4469 10.7374 23.2356C10.6962 22.9287 10.6535 22.622 10.6103 22.3154C10.5955 22.21 10.6501 22.1252 10.7459 22.1107C10.8378 22.0967 10.9173 22.1618 10.9317 22.2654C10.9765 22.5875 11.0203 22.9097 11.0649 23.2319C11.0782 23.3283 11.1054 23.4202 11.1581 23.5034C11.2112 23.5873 11.2848 23.633 11.3863 23.6326C11.6184 23.6317 11.8505 23.6314 12.0825 23.6327C12.2111 23.6335 12.2896 23.7557 12.2343 23.8661C12.2031 23.9284 12.1492 23.954 12.0822 23.9567C12.0655 23.9574 12.0487 23.9568 12.0258 23.9568Z" fill="#F5F5F5"/>
</svg>
