<svg width="32" height="32" viewBox="0 0 32 32" fill="none" xmlns="http://www.w3.org/2000/svg">
<g clip-path="url(#clip0_1408_4765)">
<rect width="32" height="32" rx="16" fill="#F5F5F5"/>
<g clip-path="url(#clip1_1408_4765)">
<path d="M23.4483 11.5408C23.1609 12.1498 22.3551 12.5579 21.7461 12.2705L15.5846 9.36251C14.9757 9.07509 14.7785 8.1936 15.0659 7.58461C15.3533 6.97563 16.1591 6.56752 16.7681 6.85493L22.9296 9.76289C23.5386 10.0503 23.7358 10.9318 23.4483 11.5408Z" fill="#F7941E"/>
<path d="M20.2071 8.47797L22.9296 9.76288C23.5386 10.0503 23.7696 10.8602 23.4822 11.4691C23.1947 12.0781 22.4376 12.2902 21.8286 12.0028" fill="#333333" fill-opacity="0.2"/>
<path d="M13.9232 28.2891L8.19156 25.5841L14.5515 7.56084L23.7937 11.9228L13.9232 28.2891Z" fill="#F72F2F"/>
<path d="M14.5157 7.54394L23.7937 11.9228L13.9232 28.2891" fill="#B21414"/>
<path d="M14.5157 7.54394L23.7937 11.9228L18.0886 21.3195" fill="#8E0404"/>
<path d="M24.715 11.9196L13.6101 6.67851L12.5956 8.82786L23.7006 14.0689L24.715 11.9196Z" fill="#F7941E"/>
<path d="M13.6101 6.67851L24.715 11.9196L23.7006 14.0689" fill="#333333" fill-opacity="0.2"/>
<path d="M14.9476 26.5826L8.85778 23.7084L8.59129 24.4587L14.5378 27.2652L14.9476 26.5826Z" fill="#B21414"/>
<path d="M22.3139 6.05577C22.2193 5.79212 22.2133 5.52647 21.9496 5.62104L20.2792 6.19053C20.1569 6.26418 19.8405 6.37768 19.8087 6.53787C19.8087 6.53787 19.7749 6.60952 19.758 6.64534L18.9633 8.329C18.845 8.57976 19.233 8.50007 19.4838 8.61842C19.7345 8.73677 19.9197 9.08696 20.038 8.8362L20.7988 7.22419L22.3638 6.69254C22.6443 6.56213 22.4085 6.31941 22.3139 6.05577Z" fill="#5C5C5C"/>
<path d="M16.3371 11.2731C16.2793 11.3197 16.1942 11.3121 16.1468 11.2548C16.0497 11.1372 15.9241 11.0342 15.7901 10.9709C15.5807 10.8721 15.3858 10.8713 15.3037 11.0452C15.1077 11.4604 16.2517 11.7399 15.9351 12.4107C15.7609 12.7798 15.3574 12.789 14.9989 12.6198C14.7682 12.5109 14.5649 12.3303 14.4516 12.1187C14.4219 12.0632 14.4375 11.9943 14.4872 11.9558C14.5485 11.9083 14.637 11.9251 14.6774 11.9913C14.7813 12.1613 14.9441 12.3075 15.1201 12.3906C15.3401 12.4944 15.5561 12.4966 15.6467 12.3136C15.8701 11.8679 14.7142 11.6045 15.031 10.9425C15.2002 10.5841 15.5793 10.5807 15.9201 10.7415C16.096 10.8246 16.2489 10.9451 16.3577 11.0805C16.405 11.1394 16.3959 11.2256 16.3371 11.2731Z" fill="#F5F5F5"/>
<path d="M18.2403 12.2935C18.1742 12.3268 18.0931 12.3035 18.0564 12.2393C17.9707 12.0895 17.8389 11.9638 17.6577 11.8783C17.2709 11.6957 16.8617 11.8454 16.6691 12.2536C16.4765 12.6617 16.6193 13.0763 17.0062 13.2589C17.2067 13.3535 17.4056 13.3776 17.5837 13.3315C17.6503 13.3142 17.7187 13.3529 17.7398 13.4185C17.762 13.4869 17.7253 13.5621 17.6565 13.5833C17.4207 13.656 17.1511 13.6354 16.8766 13.5058C16.3336 13.2495 16.1328 12.6818 16.3958 12.1246C16.6588 11.5673 17.2282 11.3631 17.7677 11.6177C18.0182 11.7323 18.1982 11.9025 18.302 12.1036C18.3379 12.173 18.3101 12.2584 18.2403 12.2935Z" fill="#F5F5F5"/>
<path d="M18.0669 14.1782C18.0096 14.2632 17.9519 14.3479 17.8951 14.4332C17.7521 14.6482 17.613 14.8659 17.4654 15.0777C17.3766 15.2052 17.2538 15.2963 17.1074 15.3519C17.0794 15.3625 17.0671 15.3771 17.0597 15.4066C16.9929 15.672 16.924 15.937 16.8555 16.202C16.8275 16.3102 16.745 16.3647 16.649 16.339C16.5603 16.3152 16.5156 16.2215 16.5424 16.1175C16.6037 15.8795 16.664 15.6413 16.7264 15.4036C16.7338 15.3755 16.7301 15.3619 16.703 15.3496C16.6066 15.3058 16.5109 15.2604 16.4156 15.2141C16.3905 15.2018 16.3766 15.2031 16.3585 15.2281C16.2167 15.4249 16.0729 15.6204 15.9296 15.8162C15.9222 15.8262 15.9149 15.8363 15.907 15.8459C15.8473 15.918 15.7513 15.9335 15.6824 15.8823C15.6084 15.8273 15.5936 15.7278 15.6493 15.6497C15.699 15.58 15.7504 15.5116 15.8009 15.4425C15.8934 15.316 15.9858 15.1894 16.0806 15.0595C16.0573 15.0468 16.0368 15.0365 16.0172 15.0246C15.9364 14.9753 15.9095 14.8865 15.9509 14.8074C15.9916 14.7294 16.0824 14.6994 16.1674 14.739C16.3678 14.8326 16.5691 14.9244 16.767 15.023C16.9031 15.0908 17.009 15.0795 17.124 14.9666C17.205 14.887 17.2714 14.7907 17.3352 14.6957C17.4912 14.4632 17.6416 14.2268 17.7951 13.9926C17.8423 13.9204 17.915 13.8926 17.9878 13.9151C18.0596 13.9372 18.0998 14.0002 18.0993 14.0894C18.0993 14.0936 18.1016 14.0979 18.1028 14.1021L18.0669 14.1782Z" fill="#F5F5F5"/>
<path d="M14.8014 15.1067L15.4244 13.7867L15.3724 13.7622C15.1358 13.6505 14.899 13.5391 14.6625 13.427C14.5786 13.3873 14.5389 13.3229 14.55 13.2475C14.5649 13.1463 14.6643 13.085 14.7626 13.1166C14.7759 13.1209 14.7886 13.1271 14.8012 13.1331C15.4084 13.4196 16.0155 13.706 16.6226 13.9927C16.715 14.0363 16.7535 14.1105 16.7288 14.195C16.7047 14.2772 16.6227 14.3262 16.5395 14.3061C16.5155 14.3003 16.4922 14.2904 16.4698 14.2799C16.2372 14.1705 16.0048 14.0607 15.7724 13.951L15.721 13.9267L15.098 15.2467C15.1393 15.2661 15.1796 15.2847 15.2196 15.3042C15.3103 15.3482 15.3458 15.4356 15.3082 15.5205C15.2705 15.6052 15.1799 15.6411 15.0884 15.5996C14.9026 15.5151 14.718 15.428 14.5348 15.3383C14.445 15.2943 14.4153 15.2004 14.4569 15.118C14.4987 15.0353 14.5889 15.0077 14.6806 15.0497C14.72 15.0678 14.759 15.0866 14.8014 15.1067Z" fill="#F5F5F5"/>
<path d="M14.3216 14.2263C14.2602 14.4651 14.201 14.6955 14.142 14.926C14.116 15.0274 14.0352 15.0814 13.941 15.0596C13.854 15.0395 13.8026 14.9493 13.8271 14.8513C13.8862 14.616 13.9464 14.3809 14.0088 14.1464C14.0207 14.1016 14.0169 14.0781 13.9695 14.0587C13.8803 14.0222 13.7938 13.9787 13.7072 13.9358C13.6785 13.9216 13.6632 13.9231 13.6429 13.9515C13.5004 14.1498 13.3553 14.3462 13.2116 14.5436C13.1443 14.6361 13.0428 14.6595 12.9662 14.5988C12.8927 14.5405 12.8817 14.4457 12.9396 14.3661C13.1045 14.1399 13.2698 13.9139 13.4339 13.6871C13.4432 13.6742 13.4504 13.6516 13.4458 13.638C13.3748 13.4307 13.3996 13.2273 13.4642 13.0241C13.558 12.729 13.6503 12.4334 13.7421 12.1377C13.7736 12.036 13.8592 11.9827 13.952 12.0104C14.0412 12.037 14.0852 12.1299 14.0541 12.2297C13.9571 12.5401 13.8591 12.8502 13.762 13.1605C13.7329 13.2535 13.7183 13.3482 13.7304 13.4458C13.7426 13.5444 13.7897 13.6171 13.8816 13.6601C14.0919 13.7584 14.3019 13.8572 14.5112 13.9574C14.6272 14.013 14.6459 14.157 14.5488 14.2332C14.494 14.2762 14.4344 14.2764 14.3726 14.2502C14.3572 14.2437 14.3422 14.236 14.3216 14.2263Z" fill="#F5F5F5"/>
</g>
</g>
<rect x="0.25" y="0.25" width="31.5" height="31.5" rx="15.75" stroke="#FE7F7F" stroke-width="0.5"/>
<defs>
<clipPath id="clip0_1408_4765">
<rect width="32" height="32" rx="16" fill="white"/>
</clipPath>
<clipPath id="clip1_1408_4765">
<rect width="24" height="24" fill="white" transform="translate(10.2696 0.0261765) rotate(25.2653)"/>
</clipPath>
</defs>
</svg>
